<?xml version="1.0" encoding="utf-8"?>
<!-- Generator: Adobe Illustrator 25.0.0, SVG Export Plug-In . SVG Version: 6.00 Build 0)  -->
<svg version="1.1" id="Layer_1" xmlns="http://www.w3.org/2000/svg" xmlns:xlink="http://www.w3.org/1999/xlink" x="0px" y="0px"
	 viewBox="0 0 110 110" style="enable-background:new 0 0 110 110;" xml:space="preserve">
<style type="text/css">
	.st0{display:none;}
	.st1{fill:#FFFFFF;}
	.st2{display:inline;fill:#FFFFFF;}
	.st3{display:none;fill:#FFFFFF;}
</style>
<g class="st0">
	<path class="st1" d="M73.8,8c9.4,0,18.8,0,28.2,0c0,31.3,0,62.7,0,94c-31.3,0-62.7,0-94,0C8,70.7,8,39.3,8,8c21.4,0,42.8,0,64.1,0
		c-2.2,0.8-3,2.4-3,4.7c0.1,15.3,0,30.7,0,46c0,0.4,0,0.7,0,1.2c-1.1,0.3-1.2,1.1-1.2,2.1c0,1,0,2,0,3c-2.9,0-5.3,0.9-7.6,2.5
		c0.1-2,0.3-3.8,0.4-5.6c0-0.6,0.2-1,0.8-1.3c1.4-0.7,2-2,1.9-3.5c-0.1-1.6-1-2.8-2.5-3.3c-0.6-0.2-1.3-0.2-2-0.2
		c-13.1,0-26.2,0-39.3,0c-0.3,0-0.6,0-0.9,0c-1.8,0.2-3.1,1.3-3.4,2.9c-0.4,1.6,0.3,3.3,1.9,4.1c0.5,0.3,0.7,0.6,0.7,1.1
		c0.1,1.5,0.2,2.9,0.3,4.4c0.5,7,0.9,14,1.4,20.9c0.2,3.1,0.4,6.3,0.7,9.4c0.3,3.2,2.9,5.4,6.1,5.4c22.3,0,44.6,0,66.9,0
		c1.4,0,1.9-0.7,1.6-2c-1.1-5.2-2.2-10.4-3.2-15.6c-0.6-3-1.2-6-1.7-9c-0.8-4.9-4.2-8.8-9-10c-1-0.2-2-0.3-3.1-0.5
		c0-0.9,0-1.8,0-2.7c0.1-1-0.1-2-1.2-2.3c0-0.4,0-0.8,0-1.2c0-15.3,0-30.5,0-45.8C76.7,10.5,76,8.8,73.8,8z"/>
	<path class="st2" d="M73.8,8c2.2,0.8,3,2.5,3,4.8c-0.1,15.3,0,30.5,0,45.8c0,0.4,0,0.7,0,1.2c1.1,0.4,1.2,1.3,1.2,2.3
		c0,0.9,0,1.8,0,2.7C79,65,80,65,81,65.3c4.8,1.2,8.2,5.1,9,10c0.5,3,1.1,6,1.7,9c1.1,5.2,2.2,10.4,3.2,15.6c0.3,1.3-0.3,2-1.6,2
		c-22.3,0-44.6,0-66.9,0c-3.2,0-5.8-2.2-6.1-5.4c-0.3-3.1-0.5-6.3-0.7-9.4c-0.5-7-0.9-14-1.4-20.9c-0.1-1.5-0.2-2.9-0.3-4.4
		c0-0.5-0.2-0.9-0.7-1.1c-1.5-0.8-2.3-2.4-1.9-4.1c0.4-1.7,1.7-2.8,3.4-2.9c0.3,0,0.6,0,0.9,0c13.1,0,26.2,0,39.3,0
		c0.7,0,1.4,0,2,0.2c1.5,0.5,2.4,1.7,2.5,3.3c0.1,1.5-0.5,2.8-1.9,3.5c-0.6,0.3-0.7,0.7-0.8,1.3c-0.1,1.8-0.2,3.6-0.4,5.6
		c2.3-1.6,4.7-2.5,7.6-2.5c0-1,0-2,0-3c0-1,0.1-1.8,1.2-2.1c0-0.4,0-0.8,0-1.2c0-15.3,0-30.7,0-46c0-2.3,0.8-3.9,3-4.7
		C72.7,8,73.2,8,73.8,8z M21.1,68.5c0.2,2.2,0.3,4.5,0.5,6.8c0.4,6.7,0.9,13.5,1.3,20.2c0.2,2.4,1.5,3.6,3.9,3.6
		c7.8,0,15.6,0,23.4,0c0.3,0,0.7,0,1,0c0.1-0.2,0.1-0.3,0.1-0.4c1.5-7,3-14.1,4.4-21.1c0.4-1.9,0.5-3.9,1.3-5.8
		c0.5-1.1,0.5-2.3,0.8-3.5c-0.1,0-0.2-0.1-0.3-0.1c-0.1,0.1-0.2,0.3-0.3,0.4c-3.1,3.9-7,6.4-12,6.9c-3.3,0.3-6.6,0.3-10,0.2
		c-4-0.1-7.6-1.5-10.8-4C23.2,70.6,22.2,69.6,21.1,68.5z M57.7,61.1c-12.4,0-24.6,0-36.9,0c1.5,6,6.5,10.8,12.6,11.5
		c3,0.4,6.1,0.2,9.2,0.2c3.5,0,6.6-1.1,9.3-3.2C54.9,67.5,56.8,64.7,57.7,61.1z M58.7,75.4c9.5,0,19,0,28.5,0c0-0.2,0-0.4,0-0.5
		c-0.9-4.1-4.5-7.1-8.7-7.2c-3.6-0.1-7.3-0.1-10.9,0c-1,0-2.1,0.2-3,0.6C61.3,69.6,59.4,72,58.7,75.4z M75,78.3
		c-1.1,0-2.1,0.1-3.1,0c-0.8-0.1-1,0.2-1,1c-0.2,5.3-0.5,10.5-0.7,15.8c-0.1,1.3,0,2.6,0,3.9c1.9,0,3.7,0,5.7,0
		C75.6,92.1,75.3,85.2,75,78.3z M73.9,59.8c0-0.3,0-0.6,0-0.9c0-15.5,0-31.1,0-46.6c0-0.3,0.1-0.6-0.1-0.8c-0.2-0.3-0.6-0.7-0.9-0.7
		c-0.3,0-0.7,0.4-1,0.8c-0.1,0.2,0,0.5,0,0.8c0,15.5,0,30.9,0,46.4c0,0.3,0,0.6,0,1C72.6,59.8,73.2,59.8,73.9,59.8z M61.9,78.3
		c-1.1,0-2,0-2.9,0c-0.6,0-0.8,0.1-0.9,0.7c-0.5,2.7-1.1,5.4-1.7,8.2C55.6,91.1,54.8,95,54,99c1.8,0,3.5,0,5.4,0
		C60.2,92.1,61.1,85.3,61.9,78.3z M83.9,78.3c0.9,7,1.7,13.9,2.6,20.7c1.8,0,3.6,0,5.3,0c-0.2-0.8-0.3-1.6-0.5-2.4
		C90.2,90.8,89,84.9,87.7,79c-0.1-0.3-0.4-0.7-0.6-0.7C86.1,78.2,85.1,78.3,83.9,78.3z M83.7,99c-0.9-6.9-1.7-13.8-2.6-20.7
		c-1.2,0-2.2,0-3.4,0c0.3,6.9,0.6,13.8,0.9,20.7C80.4,99,82,99,83.7,99z M68.1,78.3c-0.9,0-1.8,0-2.6,0c-0.7,0-0.9,0.2-1,0.9
		c-0.6,5.2-1.3,10.5-1.9,15.7c-0.2,1.4-0.3,2.8-0.5,4.2c1.7,0,3.4,0,5.1,0C67.5,92.1,67.8,85.2,68.1,78.3z M39.3,58.3
		c6.5,0,13.1,0,19.6,0c0.3,0,0.7,0.1,1-0.1c0.3-0.2,0.7-0.6,0.8-0.9c0-0.3-0.4-0.7-0.7-0.9c-0.3-0.2-0.8-0.1-1.2-0.1
		c-12.9,0-25.9,0-38.8,0c-0.2,0-0.5,0-0.7,0c-0.7,0-1.2,0.2-1.2,1c0,0.8,0.5,1,1.2,1c0.2,0,0.5,0,0.7,0
		C26.4,58.3,32.8,58.3,39.3,58.3z M70.8,62.7c0,0.8,0,1.5,0,2.2c1.4,0,2.8,0,4.2,0c0-0.8,0-1.5,0-2.2C73.6,62.7,72.2,62.7,70.8,62.7
		z"/>
	<path class="st1" d="M21.1,68.5c1.1,1,2.2,2.1,3.3,3.1c3.1,2.5,6.7,4,10.8,4c3.3,0.1,6.7,0.1,10-0.2c4.9-0.5,8.9-3,12-6.9
		c0.1-0.1,0.2-0.3,0.3-0.4c0.1,0,0.2,0.1,0.3,0.1c-0.2,1.2-0.3,2.4-0.8,3.5c-0.8,1.9-0.9,3.8-1.3,5.8c-1.4,7.1-2.9,14.1-4.4,21.1
		c0,0.1-0.1,0.2-0.1,0.4c-0.3,0-0.6,0-1,0c-7.8,0-15.6,0-23.4,0c-2.4,0-3.7-1.2-3.9-3.6C22.4,88.8,22,82,21.6,75.3
		C21.4,73,21.2,70.7,21.1,68.5z M27.3,89.5c-0.1-1.6-0.2-3-0.3-4.3c-0.1-1-0.7-1.5-1.5-1.5c-0.8,0.1-1.3,0.7-1.2,1.7
		c0.1,1.5,0.2,3,0.3,4.5c0.1,1,0.6,1.6,1.4,1.5c0.9,0,1.3-0.6,1.3-1.6C27.3,89.6,27.3,89.4,27.3,89.5z"/>
	<path class="st1" d="M57.7,61.1c-1,3.6-2.8,6.4-5.7,8.6c-2.8,2.1-5.9,3.2-9.3,3.2c-3.1,0-6.2,0.1-9.2-0.2
		c-6.1-0.8-11.1-5.5-12.6-11.5C33.1,61.1,45.3,61.1,57.7,61.1z"/>
	<path class="st1" d="M58.7,75.4c0.7-3.4,2.6-5.8,5.8-7.1c0.9-0.4,2-0.6,3-0.6c3.6-0.1,7.3-0.1,10.9,0c4.2,0.1,7.8,3.1,8.7,7.2
		c0,0.1,0,0.3,0,0.5C77.7,75.4,68.2,75.4,58.7,75.4z"/>
	<path class="st1" d="M75,78.3c0.3,7,0.6,13.8,0.9,20.7c-2,0-3.8,0-5.7,0c0-1.3,0-2.6,0-3.9c0.2-5.3,0.5-10.5,0.7-15.8
		c0-0.8,0.2-1.1,1-1C72.9,78.3,73.8,78.3,75,78.3z"/>
	<path class="st1" d="M73.9,59.8c-0.7,0-1.3,0-2,0c0-0.4,0-0.7,0-1c0-15.5,0-30.9,0-46.4c0-0.3-0.1-0.6,0-0.8c0.2-0.3,0.6-0.7,1-0.8
		c0.3,0,0.7,0.4,0.9,0.7c0.1,0.2,0.1,0.5,0.1,0.8c0,15.5,0,31.1,0,46.6C73.9,59.2,73.9,59.5,73.9,59.8z"/>
	<path class="st1" d="M61.9,78.3c-0.9,7-1.7,13.9-2.6,20.7c-1.8,0-3.6,0-5.4,0c0.8-4,1.6-7.9,2.5-11.9c0.6-2.7,1.2-5.4,1.7-8.2
		c0.1-0.6,0.3-0.8,0.9-0.7C60,78.3,60.9,78.3,61.9,78.3z"/>
	<path class="st1" d="M83.9,78.3c1.2,0,2.2,0,3.2,0c0.2,0,0.5,0.4,0.6,0.7c1.2,5.9,2.5,11.8,3.7,17.6c0.2,0.8,0.3,1.5,0.5,2.4
		c-1.8,0-3.5,0-5.3,0C85.7,92.1,84.8,85.3,83.9,78.3z"/>
	<path class="st1" d="M83.7,99c-1.7,0-3.3,0-5.1,0c-0.3-6.9-0.6-13.8-0.9-20.7c1.2,0,2.2,0,3.4,0C82,85.2,82.9,92.1,83.7,99z"/>
	<path class="st1" d="M68.1,78.3c-0.3,7-0.6,13.8-0.9,20.7c-1.7,0-3.3,0-5.1,0c0.2-1.4,0.3-2.8,0.5-4.2c0.7-5.2,1.3-10.5,1.9-15.7
		c0.1-0.7,0.3-0.9,1-0.9C66.4,78.3,67.2,78.3,68.1,78.3z"/>
	<path class="st1" d="M39.3,58.3c-6.4,0-12.9,0-19.3,0c-0.2,0-0.5,0-0.7,0c-0.7,0-1.3-0.2-1.2-1c0-0.7,0.5-1,1.2-1
		c0.2,0,0.5,0,0.7,0c12.9,0,25.9,0,38.8,0c0.4,0,0.8-0.1,1.2,0.1c0.3,0.2,0.7,0.6,0.7,0.9c0,0.3-0.4,0.7-0.8,0.9
		c-0.2,0.2-0.7,0.1-1,0.1C52.3,58.3,45.8,58.3,39.3,58.3z"/>
	<path class="st1" d="M70.8,62.7c1.4,0,2.7,0,4.2,0c0,0.7,0,1.4,0,2.2c-1.4,0-2.7,0-4.2,0C70.8,64.1,70.8,63.4,70.8,62.7z"/>
	<path class="st2" d="M27.3,89.5c0-0.1,0,0.1,0,0.3c0,1-0.5,1.6-1.3,1.6c-0.8,0-1.4-0.5-1.4-1.5c-0.1-1.5-0.2-3-0.3-4.5
		c-0.1-1,0.4-1.6,1.2-1.7c0.8-0.1,1.4,0.5,1.5,1.5C27.1,86.5,27.2,87.9,27.3,89.5z"/>
</g>
<g class="st0">
	<path class="st1" d="M107.2,42.1c0,21.7,0,43.4,0,65.1c-34.8,0-69.5,0-104.3,0c0-34.8,0-69.5,0-104.3c17.1,0,34.2,0,51.2,0
		c-1,0.4-2.1,0.6-3,1.1c-2.7,1.3-4.5,4.6-4.2,7.2c1,0,2.1,0,3.2,0c0.1-0.4,0.1-0.7,0.2-1c0.6-2.7,3.2-4.4,5.9-3.8
		c2.6,0.5,4.4,3.1,3.9,5.8c-0.4,2.3-2.2,3.9-4.6,4.2c-1.5,0.1-2,0.7-2,2.1c0,0.2,0,0.3,0,0.5c0.2,0.9-0.3,1.2-1.1,1.4
		c-2.1,0.5-4.3,1-6.4,1.6c-1.3,0.3-2.7,0.6-4,1c-0.1-0.4-0.1-0.6-0.2-0.8c-0.2-2.2-0.8-2.6-3-2.2c-4.3,0.8-8.6,1.8-12.9,2.3
		c-3.6,0.4-6.3,1.8-8.8,4.5C12.9,31.2,8.4,35.5,4,39.8c-1.2,1.2-1.2,2,0,3.2c0.4,0.4,0.8,0.8,1.1,1.2c3.8,3.8,7.7,7.7,11.5,11.5
		c1.2,1.2,1.9,1.2,3,0.1c0.6-0.6,1.2-1.2,1.9-1.9c0.5-0.5,1-1,1.6-1.6c0,3.7,0,7.3,0,10.9c-0.5,0-1,0-1.5,0c-3.8,0-7.5-0.1-11.3,0.2
		c-4.5,0.3-8,5-7.2,9.5c0.4,2.2,1.5,4,3.2,5.5c-4.5,5.5-4.5,8.4,0,13.5c0,0.1,0,0.1-0.1,0.2c-0.2,0.2-0.3,0.3-0.5,0.5
		c-2.5,2.4-3.3,5.3-2.2,8.6c1.2,3.7,4.3,5.8,8.4,5.8c19.7,0,39.4,0,59.2,0c1.1,0,1.9-0.3,2.6-1.1c4.1-4.1,8.1-8.2,12.2-12.2
		c0.8-0.8,1.1-1.7,1.1-2.8c0-12.4,0-24.8,0-37.2c0-0.4,0-0.8,0-1.5c1.3,1.3,2.4,2.5,3.6,3.6c1,1,1.9,1,2.9,0
		C98.1,51.3,102.6,46.7,107.2,42.1z"/>
	<path class="st2" d="M107.2,42.1c-4.6,4.6-9.1,9.2-13.7,13.7c-1,1-1.9,1-2.9,0c-1.1-1.1-2.2-2.2-3.6-3.6c0,0.7,0,1.1,0,1.5
		c0,12.4,0,24.8,0,37.2c0,1.1-0.3,2-1.1,2.8c-4.1,4-8.2,8.1-12.2,12.2c-0.7,0.8-1.5,1.1-2.6,1.1c-19.7,0-39.4,0-59.2,0
		c-4.1,0-7.2-2.1-8.4-5.8c-1.1-3.3-0.3-6.2,2.2-8.6c0.2-0.2,0.3-0.3,0.5-0.5c0,0,0.1-0.1,0.1-0.2c-4.4-5.1-4.4-8,0-13.5
		c-1.7-1.4-2.8-3.2-3.2-5.5c-0.8-4.5,2.7-9.2,7.2-9.5c3.7-0.2,7.5-0.1,11.3-0.2c0.5,0,0.9,0,1.5,0c0-3.6,0-7.2,0-10.9
		c-0.6,0.6-1.1,1.1-1.6,1.6c-0.6,0.6-1.2,1.3-1.9,1.9c-1.1,1.1-1.9,1-3-0.1C12.7,51.9,8.9,48,5.1,44.2c-0.4-0.4-0.8-0.8-1.1-1.2
		c-1.2-1.2-1.2-2,0-3.2c4.4-4.4,8.9-8.6,13.1-13.2c2.5-2.7,5.2-4.1,8.8-4.5c4.3-0.5,8.6-1.5,12.9-2.3c2.2-0.4,2.7,0,3,2.2
		c0,0.2,0.1,0.5,0.2,0.8c1.4-0.3,2.7-0.7,4-1c2.1-0.5,4.3-1.1,6.4-1.6c0.8-0.2,1.3-0.5,1.1-1.4c0-0.2,0-0.3,0-0.5c0-1.5,0.5-2,2-2.1
		c2.4-0.2,4.2-1.9,4.6-4.2c0.5-2.7-1.3-5.3-3.9-5.8c-2.7-0.5-5.3,1.2-5.9,3.8c-0.1,0.3-0.1,0.7-0.2,1c-1.1,0-2.1,0-3.2,0
		c-0.3-2.6,1.5-5.9,4.2-7.2c1-0.5,2-0.7,3-1.1c0.7,0,1.4,0,2,0c0.1,0,0.2,0.1,0.3,0.1c4.1,0.6,6.8,4.1,7.1,7.7c0.2,4-2,7.3-6,8.6
		c-0.3,0.1-0.5,0.2-0.7,0.4c0,0.1,0,0.2,0,0.4c3.9,1,7.7,1.9,11.6,2.9c0.1-0.5,0.1-0.8,0.1-1.1c0.1-1.8,0.9-2.4,2.7-2
		c5.8,1.1,11.5,2.1,17.3,3.2c0.7,0.1,1.4,0.5,1.9,1c2.3,2.2,4.5,4.4,6.7,6.7c3.4,3.4,6.8,6.8,10.1,10.2
		C107.2,41.3,107.2,41.7,107.2,42.1z M103.1,41.3c-0.2-0.2-0.5-0.4-0.8-0.6c-4.6-4.6-9.1-9.2-13.8-13.7c-0.4-0.4-1.1-0.8-1.7-0.9
		c-3.6-0.7-7.3-1.4-10.9-2c-1.4-0.3-2.8-0.5-4.1-0.7c-1.7,8.4-9.1,12.4-15.4,12.8c-4,0.3-7.7-0.6-11.1-2.7
		c-3.7-2.4-6.1-5.7-6.9-10.1c-0.2,0-0.4,0-0.6,0c-5,0.9-9.9,1.8-14.9,2.7c-0.4,0.1-0.9,0.4-1.2,0.7c-4.7,4.7-9.4,9.3-14,14
		c-0.2,0.2-0.4,0.4-0.5,0.6c3.7,3.7,7.3,7.3,11.1,11.1c3.4-3.5,6.9-7,10.3-10.4c0.9,0.8,1.7,1.5,2.5,2.3c-1.3,1.3-2.6,2.5-3.8,3.8
		c-0.3,0.4-0.6,1-0.6,1.5c0,4.2,0,8.3,0,12.5c0,0.3,0,0.6,0.1,1c0.5,0,0.9,0,1.3,0c6.5,0,13.1,0,19.6,0c0.8,0,1.6,0,2.3,0.2
		c4.6,0.7,7.7,5.5,6.7,10c-0.5,2-1.6,3.6-3.1,5c4.3,3.5,4.5,9.7,0,13.5c3.7,3.4,4.3,7.3,1.7,11.7c5,0,10,0,15,0c0-0.4,0-0.8,0-1.2
		c0-3.3,0-6.5,0-9.8c0-1.9,0.6-2.4,2.4-2.4c3.3,0,6.6,0,9.9,0c0.4,0,0.7,0,1.1,0c0-0.3,0-0.6,0-0.8c0-13.2,0-26.4,0-39.6
		c0-0.4-0.2-1-0.6-1.3c-1.3-1.3-2.6-2.6-3.9-3.9c0.8-0.8,1.6-1.6,2.3-2.4c3.5,3.5,7,7,10.4,10.4C95.6,48.7,99.3,45.1,103.1,41.3z
		 M29.9,90.1c5.9,0,11.7,0,17.6,0c0.5,0,1.1,0,1.6-0.1c2.6-0.3,4.6-2.9,4.3-5.5c-0.4-2.8-2.4-4.5-5.4-4.5c-12,0-24,0-36.1,0
		c-0.2,0-0.4,0-0.6,0c-3.5,0.2-5.7,3.6-4.5,6.8c0.8,2.1,2.6,3.2,5.1,3.2C17.9,90.2,23.9,90.1,29.9,90.1z M29.9,103.6
		c5,0,10.1,0,15.1,0c1.4,0,2.7,0,4.1-0.1c2.6-0.2,4.6-2.9,4.3-5.5c-0.4-2.7-2.3-4.5-5-4.5c-12.3,0-24.5,0-36.8,0c-0.2,0-0.4,0-0.6,0
		C7.8,93.9,5.7,97,6.6,100c0.7,2.3,2.5,3.6,5.3,3.6C17.9,103.6,23.9,103.6,29.9,103.6z M30,66.7c-6.1,0-12.3,0-18.4,0
		c-3.7,0-6,3.3-4.9,6.7c0.7,2.1,2.6,3.3,5.3,3.3c12,0,23.9,0,35.9,0c0.4,0,0.8,0,1.2-0.1c2.6-0.3,4.7-2.9,4.3-5.5
		c-0.4-2.8-2.3-4.5-5.2-4.5C42.1,66.7,36,66.7,30,66.7z M67.3,26.1c-2.9-0.7-5.6-1.3-8.3-2.1c-2.6-0.8-5.2-0.8-7.8,0
		c-2.7,0.8-5.5,1.4-8.3,2.1c2.9,4.5,7,6.8,12.2,6.8C60.3,32.9,64.4,30.7,67.3,26.1z M73.6,100.7c2.4-2.4,4.8-4.8,7.1-7.1
		c-2.2,0-4.6,0-7.1,0C73.6,96.1,73.6,98.5,73.6,100.7z"/>
	<path class="st1" d="M107.2,40.9c-3.4-3.4-6.8-6.8-10.1-10.2c-2.2-2.2-4.4-4.5-6.7-6.7c-0.5-0.5-1.2-0.9-1.9-1
		c-5.7-1.1-11.5-2.1-17.3-3.2c-1.8-0.3-2.5,0.2-2.7,2c0,0.3-0.1,0.6-0.1,1.1c-3.9-1-7.8-1.9-11.6-2.9c0-0.1,0-0.2,0-0.4
		c0.2-0.1,0.5-0.3,0.7-0.4c4-1.4,6.2-4.6,6-8.6c-0.2-3.6-3-7.1-7.1-7.7c-0.1,0-0.2-0.1-0.3-0.1c17,0,34,0,51,0
		C107.2,15.5,107.2,28.2,107.2,40.9z"/>
	<path class="st1" d="M103.1,41.3c-3.8,3.8-7.5,7.5-11.2,11.2C88.5,49,85,45.5,81.5,42c-0.8,0.8-1.5,1.5-2.3,2.4
		c1.3,1.3,2.7,2.6,3.9,3.9c0.3,0.3,0.6,0.9,0.6,1.3c0,13.2,0,26.4,0,39.6c0,0.2,0,0.5,0,0.8c-0.4,0-0.7,0-1.1,0c-3.3,0-6.6,0-9.9,0
		c-1.9,0-2.4,0.6-2.4,2.4c0,3.3,0,6.5,0,9.8c0,0.4,0,0.7,0,1.2c-5,0-9.9,0-15,0c2.5-4.4,2-8.3-1.7-11.7c4.5-3.7,4.2-10,0-13.5
		c1.6-1.3,2.7-2.9,3.1-5c1-4.5-2.1-9.3-6.7-10c-0.8-0.1-1.6-0.2-2.3-0.2c-6.5,0-13.1,0-19.6,0c-0.4,0-0.8,0-1.3,0
		c0-0.4-0.1-0.7-0.1-1c0-4.2,0-8.3,0-12.5c0-0.5,0.3-1.1,0.6-1.5c1.2-1.3,2.5-2.5,3.8-3.8c-0.9-0.8-1.6-1.5-2.5-2.3
		c-3.4,3.4-6.8,6.9-10.3,10.4c-3.7-3.7-7.4-7.4-11.1-11.1c0.1-0.2,0.3-0.4,0.5-0.6c4.7-4.7,9.3-9.4,14-14c0.3-0.3,0.8-0.6,1.2-0.7
		c5-0.9,9.9-1.8,14.9-2.7c0.2,0,0.3,0,0.6,0c0.9,4.4,3.2,7.7,6.9,10.1c3.4,2.1,7.1,3,11.1,2.7c6.3-0.4,13.7-4.4,15.4-12.8
		c1.4,0.2,2.8,0.5,4.1,0.7c3.6,0.7,7.3,1.3,10.9,2c0.6,0.1,1.3,0.5,1.7,0.9c4.6,4.5,9.2,9.1,13.8,13.7
		C102.6,40.9,102.9,41.1,103.1,41.3z"/>
	<path class="st1" d="M29.9,90.1c-6,0-12,0-18,0c-2.6,0-4.4-1.2-5.1-3.2c-1.2-3.2,1.1-6.6,4.5-6.8c0.2,0,0.4,0,0.6,0
		c12,0,24,0,36.1,0c3,0,5.1,1.7,5.4,4.5c0.3,2.6-1.7,5.2-4.3,5.5c-0.5,0.1-1.1,0.1-1.6,0.1C41.6,90.1,35.7,90.1,29.9,90.1z
		 M48.3,83.5c-12.9,0-25.7,0-38.5,0c0,1.1,0,2.2,0,3.3c12.9,0,25.7,0,38.5,0C48.3,85.7,48.3,84.6,48.3,83.5z"/>
	<path class="st1" d="M29.9,103.6c-6,0-12,0-18,0c-2.7,0-4.6-1.3-5.3-3.6c-0.9-3,1.2-6.1,4.3-6.4c0.2,0,0.4,0,0.6,0
		c12.3,0,24.5,0,36.8,0c2.7,0,4.7,1.8,5,4.5c0.4,2.6-1.6,5.2-4.3,5.5c-1.3,0.1-2.7,0.1-4.1,0.1C40,103.6,34.9,103.6,29.9,103.6z
		 M9.8,100.2c12.9,0,25.7,0,38.5,0c0-1.1,0-2.1,0-3.2c-12.9,0-25.7,0-38.5,0C9.8,98,9.8,99.1,9.8,100.2z"/>
	<path class="st1" d="M30,66.7c6.1,0,12.1,0,18.2,0c2.9,0,4.9,1.8,5.2,4.5c0.3,2.6-1.7,5.2-4.3,5.5c-0.4,0-0.8,0.1-1.2,0.1
		c-12,0-23.9,0-35.9,0c-2.7,0-4.5-1.2-5.3-3.3c-1.2-3.4,1.2-6.7,4.9-6.7C17.7,66.6,23.8,66.7,30,66.7z M9.8,73.3
		c13.4,0,26.8,0,40.1,0c0-1.1,0-2.2,0-3.3c-13.4,0-26.8,0-40.1,0C9.8,71.1,9.8,72.2,9.8,73.3z"/>
	<path class="st1" d="M67.3,26.1c-2.9,4.6-7,6.8-12.2,6.8c-5.2,0-9.3-2.2-12.2-6.8c2.8-0.7,5.6-1.3,8.3-2.1c2.6-0.8,5.2-0.8,7.8,0
		C61.7,24.8,64.4,25.4,67.3,26.1z"/>
	<path class="st1" d="M73.6,100.7c0-2.2,0-4.6,0-7.1c2.5,0,4.9,0,7.1,0C78.4,95.9,76,98.3,73.6,100.7z"/>
	<path class="st2" d="M48.3,83.5c0,1.1,0,2.2,0,3.3c-12.8,0-25.6,0-38.5,0c0-1.1,0-2.1,0-3.3C22.6,83.5,35.4,83.5,48.3,83.5z"/>
	<path class="st2" d="M9.8,100.2c0-1.1,0-2.1,0-3.2c12.9,0,25.7,0,38.5,0c0,1.1,0,2.1,0,3.2C35.5,100.2,22.7,100.2,9.8,100.2z"/>
	<path class="st2" d="M9.8,73.3c0-1.1,0-2.2,0-3.3c13.4,0,26.7,0,40.1,0c0,1.1,0,2.1,0,3.3C36.6,73.3,23.2,73.3,9.8,73.3z"/>
</g>
<g class="st0">
	<path class="st1" d="M106.3,35.1c0,23.7,0,47.4,0,71.2c-34.2,0-68.4,0-102.6,0c0-34.2,0-68.4,0-102.6c34.2,0,68.4,0,102.6,0
		c0,9.8,0,19.6,0,29.4c-1.2-4.1-4-5.1-7.4-5.1c-7.2,0.1-14.5,0-21.7-0.1c-15.8-0.1-31.6-0.1-47.4-0.2c-0.8,0-1-0.3-1.2-1
		c-1.1-4.1-2.2-8.2-3.3-12.2c-0.8-2.9-3.3-5.2-6.1-5.3C15,9.2,10.9,9.3,6.7,9.3c-1.2,0-2.1,0.7-2.6,1.9c-0.8,2.1,0.7,4,3.1,4.1
		c3.5,0,6.9,0,10.4,0c1.5,0,1.7,0.1,2.1,1.6c3.8,14.3,7.7,28.5,11.5,42.8c0.6,2.4,1.3,4.7,1.9,7.1c-0.3,0-0.4,0.1-0.6,0.1
		c-4.6,0.5-8.2,4.2-8.4,8.8c-0.3,4.6,2.9,8.7,7.5,9.6c1.6,0.3,3.4,0.2,5.1,0.2c0.3,0,0.7,0,1,0.1c-1.6,5.8-0.5,10,3.4,12.9
		c3.5,2.6,8.2,2.8,11.9,0.4c1.9-1.2,3.2-2.8,4-4.8c1.2-2.8,1.1-5.6-0.2-8.5c6.3,0,12.5,0,18.7,0c-1.5,6.4-0.4,10.3,3.7,13.1
		c3.5,2.4,8.3,2.4,11.8,0c1.8-1.2,3.1-2.8,3.9-4.9c1.1-2.8,0.9-5.7-0.3-8.4c0.2-0.1,0.3-0.2,0.4-0.2c1.3-0.8,1.8-2.1,1.5-3.4
		c-0.3-1.3-1.5-2.2-3-2.2c-0.3,0-0.6,0-0.9,0c-19.4,0-38.8,0-58.2,0c-0.4,0-0.8,0-1.2,0c-1.9-0.1-3.2-1.5-3.2-3.3
		c0-1.8,1.3-3.2,3.1-3.4c0.4,0,0.9,0,1.3,0c18.8,0,37.6,0,56.4,0c4.2,0,7-2.2,7.9-6.2c1.7-7.2,3.3-14.4,5-21.6
		C104.7,41.8,105.5,38.4,106.3,35.1z"/>
	<path class="st2" d="M106.3,35.1c-0.8,3.3-1.6,6.7-2.4,10c-1.7,7.2-3.3,14.4-5,21.6c-0.9,4-3.7,6.2-7.9,6.2c-18.8,0-37.6,0-56.4,0
		c-0.4,0-0.9,0-1.3,0c-1.9,0.2-3.1,1.5-3.1,3.4c0,1.8,1.3,3.2,3.2,3.3c0.4,0,0.8,0,1.2,0c19.4,0,38.8,0,58.2,0c0.3,0,0.6,0,0.9,0
		c1.5,0.1,2.6,0.9,3,2.2c0.4,1.3-0.2,2.6-1.5,3.4c-0.1,0.1-0.2,0.1-0.4,0.2c1.2,2.8,1.4,5.6,0.3,8.4c-0.8,2-2.1,3.6-3.9,4.9
		c-3.6,2.4-8.3,2.4-11.8,0c-4.1-2.8-5.2-6.7-3.7-13.1c-6.2,0-12.4,0-18.7,0c1.2,2.8,1.3,5.7,0.2,8.5c-0.8,2-2.2,3.6-4,4.8
		c-3.7,2.3-8.4,2.2-11.9-0.4c-3.9-2.9-5-7-3.4-12.9c-0.4,0-0.7,0-1-0.1c-1.7-0.1-3.4,0.1-5.1-0.2c-4.6-0.9-7.7-5-7.5-9.6
		c0.3-4.6,3.8-8.3,8.4-8.8c0.2,0,0.3-0.1,0.6-0.1c-0.6-2.4-1.3-4.8-1.9-7.1c-3.8-14.3-7.7-28.5-11.5-42.8c-0.4-1.4-0.6-1.6-2.1-1.6
		c-3.5,0-6.9,0-10.4,0c-2.4,0-3.9-2-3.1-4.1C4.6,10,5.4,9.3,6.7,9.3c4.2,0,8.3-0.1,12.5,0.1c2.8,0.1,5.3,2.3,6.1,5.3
		c1.1,4.1,2.2,8.1,3.3,12.2c0.2,0.7,0.5,1,1.2,1c15.8,0,31.6,0.1,47.4,0.2c7.2,0,14.5,0.2,21.7,0.1c3.5,0,6.2,0.9,7.4,5.1
		C106.3,33.8,106.3,34.4,106.3,35.1z M30.5,33.8c1.2,4.4,2.4,8.7,3.5,13c0.2,0.6,0.6,0.6,1,0.6c3.3,0,6.5,0,9.8,0
		c0.3,0,0.6-0.1,0.9-0.1c0-0.2,0.1-0.2,0.1-0.2c-0.5-4.3-1.1-8.5-1.7-12.8c0-0.2-0.5-0.5-0.8-0.5c-1.2-0.1-2.3,0-3.5,0
		C36.8,33.8,33.7,33.8,30.5,33.8z M82.5,34c-4.5,0-8.8,0-13.1,0c0,4.5,0,8.9,0,13.3c0.2,0,0.2,0.1,0.3,0.1c3.5,0,6.9,0,10.4,0
		c0.7,0,0.7-0.4,0.8-0.9c0.2-1.9,0.5-3.8,0.7-5.6C81.9,38.7,82.2,36.4,82.5,34z M51.9,47.4c3.9,0,7.6,0,11.4,0c0-4.5,0-9,0-13.4
		c-4.4,0-8.8,0-13.2,0C50.7,38.5,51.3,42.9,51.9,47.4z M86.8,47.4c3.5,0,6.9,0,10.4,0c1-4.4,2-8.8,3-13.2c-0.1,0-0.2-0.1-0.3-0.1
		c-3.6,0-7.2-0.1-10.8,0c-0.2,0-0.6,0.4-0.7,0.7c-0.3,1.9-0.5,3.8-0.8,5.6C87.4,42.7,87.1,45,86.8,47.4z M48.3,66.8
		c0-0.4,0-0.8-0.1-1.2c-0.5-3.8-1-7.6-1.5-11.4c-0.1-0.7-0.3-0.9-1-0.9c-3.1,0-6.1,0-9.2,0c-0.2,0-0.4,0.1-0.8,0.1
		c1.1,4.1,2.2,8.2,3.4,12.2c0.1,0.4,0.8,1,1.2,1C43,66.9,45.6,66.8,48.3,66.8z M69.4,66.9c2.8,0,5.6,0,8.3,0c0.2,0,0.5-0.4,0.6-0.6
		c0.6-4,1.1-8,1.6-12c0-0.2,0-0.5,0-0.8c-3.5,0-7,0-10.5,0C69.4,57.9,69.4,62.3,69.4,66.9z M52.7,53.5c0.6,4.3,1.1,8.5,1.7,12.7
		c0.1,0.6,0.3,0.7,0.9,0.7c2.3,0,4.5,0,6.8,0c0.4,0,0.8,0,1.2,0c0-4.6,0-9,0-13.4C59.7,53.5,56.2,53.5,52.7,53.5z M84.3,66.9
		c2.4,0,4.6,0,6.8,0c1.3,0,1.7-0.4,2-1.6c0.7-3.1,1.4-6.2,2.2-9.3c0.2-0.8,0.3-1.6,0.5-2.5c-3.2,0-6.2,0-9.2,0
		c-0.6,0-0.7,0.4-0.7,0.8c-0.3,1.9-0.5,3.9-0.8,5.8C84.8,62.3,84.6,64.5,84.3,66.9z M47.4,94.5c2.5,0,4.5-2.1,4.5-4.5
		c0-2.4-2.1-4.4-4.5-4.4c-2.5,0-4.5,2-4.5,4.5C42.9,92.6,44.9,94.5,47.4,94.5z M85.3,94.5c2.5,0,4.5-2,4.5-4.5c0-2.5-2-4.5-4.5-4.5
		c-2.4,0-4.4,2-4.5,4.5C80.8,92.5,82.8,94.5,85.3,94.5z"/>
	<path class="st1" d="M30.5,33.8c3.2,0,6.3,0,9.3,0c1.2,0,2.3,0,3.5,0c0.3,0,0.7,0.3,0.8,0.5c0.6,4.2,1.1,8.5,1.7,12.8
		c0,0,0,0.1-0.1,0.2c-0.3,0-0.6,0.1-0.9,0.1c-3.3,0-6.5,0-9.8,0c-0.5,0-0.9,0-1-0.6C32.9,42.6,31.7,38.3,30.5,33.8z"/>
	<path class="st1" d="M82.5,34c-0.3,2.4-0.6,4.7-0.9,6.9c-0.2,1.9-0.5,3.8-0.7,5.6c-0.1,0.5-0.1,0.9-0.8,0.9c-3.5,0-6.9,0-10.4,0
		c-0.1,0-0.2,0-0.3-0.1c0-4.4,0-8.9,0-13.3C73.7,34,78.1,34,82.5,34z"/>
	<path class="st1" d="M51.9,47.4c-0.6-4.5-1.2-8.9-1.8-13.4c4.4,0,8.7,0,13.2,0c0,4.5,0,8.9,0,13.4C59.5,47.4,55.8,47.4,51.9,47.4z"
		/>
	<path class="st1" d="M86.8,47.4c0.3-2.4,0.6-4.7,0.9-7c0.2-1.9,0.5-3.8,0.8-5.6c0-0.3,0.5-0.7,0.7-0.7c3.6,0,7.2,0,10.8,0
		c0.1,0,0.1,0,0.3,0.1c-1,4.4-2,8.8-3,13.2C93.8,47.4,90.4,47.4,86.8,47.4z"/>
	<path class="st1" d="M48.3,66.8c-2.7,0-5.3,0-7.9,0c-0.4,0-1.1-0.6-1.2-1c-1.2-4-2.2-8.1-3.4-12.2c0.3,0,0.6-0.1,0.8-0.1
		c3.1,0,6.1,0,9.2,0c0.7,0,0.9,0.2,1,0.9c0.5,3.8,1,7.6,1.5,11.4C48.3,66,48.3,66.4,48.3,66.8z"/>
	<path class="st1" d="M69.4,66.9c0-4.5,0-8.9,0-13.4c3.5,0,7,0,10.5,0c0,0.3,0,0.5,0,0.8c-0.5,4-1,8-1.6,12c0,0.2-0.4,0.6-0.6,0.6
		C75,66.9,72.2,66.9,69.4,66.9z"/>
	<path class="st1" d="M52.7,53.5c3.6,0,7,0,10.5,0c0,4.4,0,8.8,0,13.4c-0.4,0-0.8,0-1.2,0c-2.3,0-4.5,0-6.8,0
		c-0.5,0-0.8-0.1-0.9-0.7C53.8,62,53.3,57.8,52.7,53.5z"/>
	<path class="st1" d="M84.3,66.9c0.3-2.3,0.6-4.6,0.9-6.8c0.3-1.9,0.5-3.9,0.8-5.8c0.1-0.5,0.1-0.8,0.7-0.8c3,0,6,0,9.2,0
		c-0.2,0.9-0.3,1.7-0.5,2.5c-0.7,3.1-1.4,6.2-2.2,9.3c-0.3,1.3-0.7,1.6-2,1.6C88.9,66.9,86.6,66.9,84.3,66.9z"/>
	<path class="st1" d="M47.4,94.5c-2.5,0-4.5-2-4.5-4.5c0-2.5,2-4.5,4.5-4.5c2.4,0,4.5,2,4.5,4.4C51.9,92.5,49.9,94.5,47.4,94.5z"/>
	<path class="st1" d="M85.3,94.5c-2.5,0-4.5-2-4.5-4.5c0-2.4,2-4.4,4.5-4.5c2.5,0,4.5,2,4.5,4.5C89.8,92.6,87.8,94.5,85.3,94.5z"/>
</g>
<g class="st0">
	<path class="st1" d="M106.1,85.6c0,6.8,0,13.7,0,20.5c-34.1,0-68.1,0-102.2,0c0-34.1,0-68.1,0-102.2c34.1,0,68.1,0,102.2,0
		c0,26.4,0,52.7,0,79.1c0-0.1-0.1-0.1-0.1-0.2c-0.9-4.2-3.4-6.9-7.6-8c-0.2-0.1-0.5-0.4-0.5-0.6c0-1.9,0-3.8,0-5.7
		c0.2-0.1,0.4-0.1,0.5-0.1c2.1-0.5,3.1-1.7,3.1-3.8c0-0.7,0-1.3,0-2c0-2.9-1.3-4.1-4.1-4.1c-1.2,0-2.4,0-3.6,0
		c-0.1-0.2-0.1-0.3-0.1-0.3c0-0.2,0-0.3,0-0.5c0.1-6.5-2.3-11.9-6.9-16.3c-4.8-4.5-10.7-4.4-15.5,0c-1.1,1-2.1,2.3-3.1,3.4
		c-0.6-0.5-0.3-0.9,0-1.4c4-6.6,8-13.2,11.9-19.9c1.5-2.6,0.7-5.7-1.8-7c-2.6-1.4-5.6-0.3-6.9,2.4c-0.6,1.2-1.1,2.4-1.7,3.6
		c-2.5,5.4-4.9,10.7-7.4,16.1c-0.1,0.3-0.6,0.7-0.8,0.7c-2.5-0.5-4.8-0.2-7.1,1c-1.7-2.8-4.1-4.5-7.3-4.9c-3.2-0.4-6,0.6-8.3,2.8
		c-0.2-0.1-0.3-0.2-0.3-0.2c-4.6-4.2-12.8-3.1-15.5,3.4c-0.2,0.5-0.6,0.5-1,0.5c-6.1-0.1-10.3,4-10.3,10.1c0,0.6-0.2,0.8-0.7,1
		c-1.3,0.5-2.2,1.5-2.5,2.9c-0.2,0.8-0.1,1.7-0.2,2.7c-0.1,0-0.2,0-0.4,0c-2.3,0.2-3.6,1.5-3.6,3.8c0,0.9,0,1.9,0,2.8
		c0.1,1.4,0.7,2.5,2,3.1c0.5,0.2,1,0.3,1.5,0.5c0,3.1,0,6.2,0,9.3c0,1.2,0,2.4,0.2,3.6c1.3,7.3,7.7,13.6,17.8,12.7
		c0.8-0.1,1.4-0.8,1.4-1.5c0-0.8-0.6-1.4-1.5-1.4c-0.8,0-1.7,0-2.5,0c-6.3-0.1-11.5-4.5-12.3-10.7c-0.4-3.1-0.2-6.2-0.2-9.3
		c0-0.9,0-1.7,0-2.7c0.6,0,1,0,1.5,0c25.5,0,50.9,0,76.4,0c0.4,0,0.8,0,1.2-0.1c0.8-0.2,1.2-0.7,1.2-1.5c0-0.8-0.5-1.3-1.4-1.4
		c-0.4,0-0.8,0-1.2,0c-26.3,0-52.6,0-78.9,0c-2.8,0-2.4,0.3-2.4-2.4c0-1.6,0-1.6,1.6-1.6c29,0,58.1,0,87.1,0c2.7,0,2.7,0,2.7,2.7
		c0,1.3,0,1.3-1.3,1.3c-0.1,0-0.3,0-0.4,0c-1.3,0-1.8,0.5-1.8,1.9c0,2.1,0,4.2,0,6.3c0,0.3,0,0.6-0.1,1c-0.5,0-1,0-1.4,0
		c-9.5,0-19,0-28.5,0c-4,0-6.9,2-8.6,5.6c-1.7,3.6-1.1,7,1.2,10.1c0.1,0.2,0.3,0.4,0.5,0.7c-1.7,0-3.2,0-4.7,0c-6.8,0-13.6,0-20.4,0
		c-1.2,0-1.8,0.6-1.8,1.5c0,0.9,0.6,1.4,1.8,1.5c0.3,0,0.5,0,0.8,0c9.1,0,18.2,0,27.3,0c11.6,0,23.2,0,34.8,0c4.6,0,8.3-2.6,9.7-6.7
		C105.8,86.8,105.9,86.2,106.1,85.6z"/>
	<path class="st2" d="M106.1,85.6c-0.2,0.6-0.3,1.2-0.5,1.8c-1.4,4.1-5.1,6.7-9.7,6.7c-11.6,0-23.2,0-34.8,0c-9.1,0-18.2,0-27.3,0
		c-0.3,0-0.5,0-0.8,0c-1.1,0-1.7-0.6-1.8-1.5c0-1,0.6-1.5,1.8-1.5c6.8,0,13.6,0,20.4,0c1.5,0,3,0,4.7,0c-0.2-0.3-0.4-0.5-0.5-0.7
		c-2.3-3.1-2.8-6.6-1.2-10.1c1.7-3.6,4.6-5.6,8.6-5.6c9.5-0.1,19,0,28.5,0c0.4,0,0.9,0,1.4,0c0-0.4,0.1-0.7,0.1-1c0-2.1,0-4.2,0-6.3
		c0-1.4,0.5-1.9,1.8-1.9c0.1,0,0.3,0,0.4,0c1.3,0,1.3,0,1.3-1.3c0-2.7,0-2.7-2.7-2.7c-29,0-58.1,0-87.1,0c-1.6,0-1.6,0-1.6,1.6
		c0,2.7-0.4,2.4,2.4,2.4c26.3,0,52.6,0,78.9,0c0.4,0,0.8,0,1.2,0c0.9,0.1,1.3,0.6,1.4,1.4c0,0.8-0.4,1.3-1.2,1.5
		c-0.4,0.1-0.8,0.1-1.2,0.1c-25.5,0-50.9,0-76.4,0c-0.5,0-0.9,0-1.5,0c0,0.9,0,1.8,0,2.7c0,3.1-0.2,6.3,0.2,9.3
		c0.8,6.2,6,10.6,12.3,10.7c0.8,0,1.7,0,2.5,0c0.9,0,1.5,0.6,1.5,1.4c0,0.8-0.5,1.5-1.4,1.5C15.6,95,9.3,88.6,8,81.3
		c-0.2-1.2-0.2-2.4-0.2-3.6c0-3.1,0-6.2,0-9.3c-0.5-0.2-1.1-0.3-1.5-0.5c-1.3-0.6-2-1.6-2-3.1c0-0.9,0-1.9,0-2.8
		c0-2.3,1.3-3.6,3.6-3.8c0.2,0,0.3,0,0.4,0c0.1-0.9,0-1.8,0.2-2.7c0.3-1.4,1.2-2.3,2.5-2.9c0.5-0.2,0.7-0.4,0.7-1
		c0-6.1,4.2-10.3,10.3-10.1c0.4,0,0.8,0,1-0.5c2.7-6.5,11-7.6,15.5-3.4c0.1,0.1,0.2,0.1,0.3,0.2c2.3-2.3,5.1-3.2,8.3-2.8
		c3.2,0.4,5.6,2.1,7.3,4.9c2.3-1.2,4.6-1.4,7.1-1c0.2,0,0.7-0.4,0.8-0.7c2.5-5.3,4.9-10.7,7.4-16.1c0.6-1.2,1.1-2.4,1.7-3.6
		c1.3-2.8,4.4-3.8,6.9-2.4c2.5,1.4,3.4,4.4,1.8,7c-4,6.6-8,13.2-11.9,19.9c-0.3,0.5-0.6,1,0,1.4c1-1.1,2-2.4,3.1-3.4
		c4.8-4.4,10.8-4.5,15.5,0c4.7,4.4,7,9.9,6.9,16.3c0,0.2,0,0.3,0,0.5c0,0.1,0,0.1,0.1,0.3c1.2,0,2.4,0,3.6,0c2.8,0,4.1,1.3,4.1,4.1
		c0,0.7,0,1.3,0,2c0,2.1-1,3.3-3.1,3.8c-0.2,0-0.3,0.1-0.5,0.1c0,1.9,0,3.8,0,5.7c0,0.2,0.3,0.5,0.5,0.6c4.2,1.1,6.7,3.8,7.6,8
		c0,0.1,0.1,0.1,0.1,0.2C106.1,83.8,106.1,84.7,106.1,85.6z M64.3,58.4c-0.3-3.2,0.3-6.2,1.4-9.1c0.2-0.5,0.1-1.1,0.1-1.6
		c-0.7-4.8-6-7.4-10.2-4.9c-2.5,1.5-2.5,1.5-3.8-1.1c-2.3-4.5-8.5-4.9-11.5-0.8c-0.6,0.7-1.1,1.4-2.1,0.9c-0.4-0.2-0.7-0.6-1-0.9
		c-1.8-2.1-4.1-2.9-6.8-2.4c-2.6,0.5-4.3,2.2-5.1,4.8c-0.5,1.7-0.9,1.9-2.5,1.6c-4.3-0.9-8.2,2.2-8.3,6.5c0,0.8,0.2,1.1,1.1,1.1
		c6.5,0,13.1,0,19.6,0c4.6,0,9.2,0,13.7,0c2.4,0,4.1,1.5,4.5,3.7c0.1,0.7,0,1.4,0,2.2C57,58.4,60.6,58.4,64.3,58.4z M69.8,77.6
		c-1.8,0-3.4-0.1-5,0c-3.4,0.1-6.2,3-6.3,6.4c-0.2,4,2.9,7.1,7,7.1c5.1,0,10.3,0,15.4,0c5.1,0,10.2,0,15.2,0c3.6,0,6.4-2.5,6.9-6
		c0.4-3.1-1.5-6.5-4.7-7.2c-2.1-0.5-4.4-0.4-6.6-0.5c0,1,0,1.7,0,2.5c0,4.9-1.3,7-4.5,7c-3.1,0-4.5-2.1-4.5-7c0-0.8,0-1.5,0-2.3
		c-1.4,0-2.6,0-4,0c0,1.6,0,3,0,4.5c0,2.7-1.9,4.7-4.4,4.8c-2.6,0-4.5-2-4.5-4.8C69.8,80.7,69.8,79.2,69.8,77.6z M87.7,58.4
		c0.6,0,1.1,0,1.6,0c1.4,0,1.5,0,1.5-1.4c-0.1-5.2-2-9.7-5.7-13.4c-3.8-3.7-8.2-3.7-12,0c-3,2.9-4.8,6.5-5.5,10.6
		c-0.2,1.3-0.2,2.7-0.3,4.1c1.2,0,2.1,0,3,0c-0.8-6.8,4.2-10.5,8.6-10.6c2.4,0,4.4,0.7,6.2,2.3C87.4,52.3,88.2,55.1,87.7,58.4z
		 M30.8,55.4c-5.8,0-11.5,0-17.3,0c-0.4,0-0.7,0-1.1,0c-0.8,0.1-1.2,0.6-1.3,1.3c-0.1,0.8,0.3,1.3,1.1,1.6c0.3,0.1,0.7,0.1,1.1,0.1
		c11.7,0,23.4,0,35,0c0.3,0,0.6,0,0.9,0c0.8-0.2,1.3-0.7,1.3-1.5c0-0.8-0.5-1.3-1.4-1.4c-0.3,0-0.7,0-1,0
		C42.3,55.4,36.6,55.4,30.8,55.4z M79,58.4c1.6,0,3.2,0,4.9,0c0.6,0,0.8-0.2,0.9-0.8c0.3-2.5-0.5-4.5-2.6-5.9
		c-1.9-1.3-4.5-1.3-6.5,0c-2.1,1.4-2.9,3.5-2.5,5.9c0.1,0.6,0.3,0.8,0.9,0.8C75.8,58.4,77.4,58.4,79,58.4z M65.7,41.4
		c0.2-0.4,0.4-0.6,0.5-0.9c3.7-6.1,7.3-12.2,11-18.2c0.2-0.3,0.4-0.6,0.5-0.9c0.4-1,0-2-0.9-2.5c-0.9-0.5-2-0.2-2.6,0.7
		c-0.2,0.3-0.3,0.6-0.4,0.9c-2.2,4.8-4.4,9.6-6.6,14.4c-0.9,1.9-1.7,3.7-2.6,5.6C65,40.8,65.3,41.1,65.7,41.4z M72.8,77.6
		c0,1.7,0,3.3,0,4.9c0,0.8,0.6,1.4,1.4,1.4c0.8,0.1,1.5-0.4,1.5-1.2c0.1-1.7,0-3.4,0-5.1C74.8,77.6,73.9,77.6,72.8,77.6z M85.8,77.6
		c0,1.7-0.1,3.3,0,5c0,0.8,0.7,1.3,1.5,1.3c0.8,0,1.4-0.5,1.4-1.3c0.1-1.7,0-3.3,0-5C87.7,77.6,86.8,77.6,85.8,77.6z"/>
	<path class="st1" d="M64.3,58.4c-3.7,0-7.3,0-10.9,0c0-0.8,0.1-1.5,0-2.2c-0.4-2.2-2.2-3.7-4.5-3.7c-4.6,0-9.2,0-13.7,0
		c-6.5,0-13.1,0-19.6,0c-0.9,0-1.1-0.3-1.1-1.1c0-4.3,4-7.4,8.3-6.5c1.7,0.4,2,0.1,2.5-1.6c0.8-2.6,2.5-4.3,5.1-4.8
		c2.7-0.5,5,0.2,6.8,2.4c0.3,0.3,0.6,0.8,1,0.9c1,0.5,1.6-0.2,2.1-0.9c3-4.1,9.3-3.6,11.5,0.8c1.3,2.6,1.3,2.6,3.8,1.1
		c4.2-2.5,9.6,0.1,10.2,4.9c0.1,0.5,0.1,1.1-0.1,1.6C64.7,52.2,64.1,55.2,64.3,58.4z"/>
	<path class="st1" d="M69.8,77.6c0,1.6,0,3.1,0,4.6c0,2.8,2,4.8,4.5,4.8c2.5,0,4.4-2,4.4-4.8c0-1.5,0-3,0-4.5c1.3,0,2.6,0,4,0
		c0,0.8,0,1.6,0,2.3c0,4.9,1.4,7,4.5,7c3.1,0,4.5-2.1,4.5-7c0-0.7,0-1.5,0-2.5c2.3,0.2,4.5,0,6.6,0.5c3.1,0.7,5.1,4.1,4.7,7.2
		c-0.5,3.5-3.3,5.9-6.9,6c-5.1,0-10.2,0-15.2,0c-5.1,0-10.3,0-15.4,0c-4.1,0-7.2-3.1-7-7.1c0.1-3.4,2.9-6.2,6.3-6.4
		C66.4,77.5,68.1,77.6,69.8,77.6z"/>
	<path class="st1" d="M87.7,58.4c0.4-3.3-0.4-6.1-2.8-8.3c-1.7-1.6-3.8-2.4-6.2-2.3c-4.3,0.1-9.4,3.8-8.6,10.6c-0.9,0-1.8,0-3,0
		c0.1-1.4,0-2.8,0.3-4.1c0.7-4.1,2.5-7.7,5.5-10.6c3.8-3.7,8.2-3.7,12,0c3.7,3.6,5.7,8.1,5.7,13.4c0,1.4,0,1.4-1.5,1.4
		C88.8,58.4,88.3,58.4,87.7,58.4z"/>
	<path class="st1" d="M30.8,55.4c5.8,0,11.5,0,17.3,0c0.3,0,0.7,0,1,0c0.9,0.1,1.3,0.6,1.4,1.4c0,0.8-0.5,1.4-1.3,1.5
		c-0.3,0.1-0.6,0-0.9,0c-11.7,0-23.4,0-35,0c-0.4,0-0.7,0-1.1-0.1c-0.8-0.2-1.2-0.8-1.1-1.6c0.1-0.7,0.5-1.2,1.3-1.3
		c0.4,0,0.7,0,1.1,0C19.3,55.4,25,55.4,30.8,55.4z"/>
	<path class="st1" d="M79,58.4c-1.6,0-3.2,0-4.9,0c-0.6,0-0.8-0.2-0.9-0.8c-0.3-2.5,0.5-4.5,2.5-5.9c1.9-1.3,4.5-1.3,6.5,0
		c2.1,1.4,2.9,3.4,2.6,5.9c-0.1,0.6-0.3,0.8-0.9,0.8C82.2,58.4,80.6,58.4,79,58.4z"/>
	<path class="st1" d="M65.7,41.4c-0.4-0.3-0.7-0.6-1.1-0.9c0.9-1.9,1.7-3.8,2.6-5.6c2.2-4.8,4.4-9.6,6.6-14.4
		c0.1-0.3,0.3-0.6,0.4-0.9c0.6-0.9,1.7-1.2,2.6-0.7c0.9,0.5,1.3,1.5,0.9,2.5c-0.1,0.3-0.3,0.6-0.5,0.9c-3.7,6.1-7.3,12.2-11,18.2
		C66.1,40.8,65.9,41.1,65.7,41.4z"/>
	<path class="st1" d="M72.8,77.6c1,0,1.9,0,3,0c0,1.7,0.1,3.4,0,5.1c0,0.8-0.7,1.3-1.5,1.2c-0.8-0.1-1.4-0.6-1.4-1.4
		C72.8,80.9,72.8,79.3,72.8,77.6z"/>
	<path class="st1" d="M85.8,77.6c1,0,1.9,0,2.9,0c0,1.7,0.1,3.4,0,5c0,0.8-0.6,1.3-1.4,1.3c-0.8,0-1.4-0.5-1.5-1.3
		C85.7,80.9,85.8,79.3,85.8,77.6z"/>
</g>
<g>
	<path class="st3" d="M1.9,1.9c35.4,0,70.8,0,106.2,0c0,35.4,0,70.8,0,106.2c-35.4,0-70.8,0-106.2,0C1.9,72.7,1.9,37.3,1.9,1.9z
		 M26.7,11.5c-0.5,0-0.9,0-1.2,0c-2.3,0-4.6,0-6.8,0c-6.7,0-11.2,4.5-11.2,11.1c0,18.7,0,37.5,0,56.2c0,0.7,0,1.5,0.1,2.2
		c0.9,5.3,5.2,8.9,10.6,8.9c12.6,0,25.1,0,37.7,0c0.4,0,0.8,0,1.2,0c4.2,10.9,15.9,16.7,26.9,14.2c10.1-2.3,17.4-11,18-21.5
		c0.3-5-1-9.6-3.7-13.8c-3.6-5.5-8.7-8.9-15.2-10.3c0-0.5,0-0.9,0-1.3c0-7.2,0-14.5,0-21.7c0-4.7,0.1-9.4-0.1-14.1
		c-0.1-5-4-9.3-9-9.8c-2.9-0.3-5.9-0.1-8.9-0.2c-0.4,0-0.8,0-1.3,0c0-1.3,0-2.5,0-3.7c0-1.5-0.8-2.4-2.1-2.4c-1.3,0-2.1,0.9-2.1,2.4
		c0,1.2,0,2.4,0,3.6c-9.7,0-19.2,0-28.8,0c0-1.3,0-2.4,0-3.6c0-1.5-0.8-2.4-2.1-2.4c-1.3,0-2.1,0.9-2.1,2.4
		C26.7,8.9,26.7,10.1,26.7,11.5z"/>
	<path class="st1" d="M26.7,11.5c0-1.3,0-2.5,0-3.7c0-1.5,0.8-2.4,2.1-2.4c1.3,0,2.1,0.9,2.1,2.4c0,1.2,0,2.3,0,3.6
		c9.6,0,19.1,0,28.8,0c0-1.2,0-2.4,0-3.6c0-1.5,0.8-2.4,2.1-2.4c1.3,0,2.1,0.9,2.1,2.4c0,1.2,0,2.4,0,3.7c0.5,0,0.9,0,1.3,0
		c3,0,5.9-0.1,8.9,0.2c4.9,0.5,8.9,4.8,9,9.8c0.1,4.7,0.1,9.4,0.1,14.1c0,7.2,0,14.5,0,21.7c0,0.4,0,0.8,0,1.3
		c6.5,1.4,11.6,4.8,15.2,10.3c2.7,4.2,4,8.8,3.7,13.8c-0.6,10.5-7.9,19.1-18,21.5c-11,2.5-22.7-3.3-26.9-14.2c-0.4,0-0.8,0-1.2,0
		c-12.6,0-25.1,0-37.7,0c-5.4,0-9.7-3.6-10.6-8.9c-0.1-0.7-0.1-1.4-0.1-2.2c0-18.7,0-37.5,0-56.2c0-6.7,4.5-11.1,11.2-11.1
		c2.3,0,4.6,0,6.8,0C25.8,11.5,26.2,11.5,26.7,11.5z M55.9,85.7c-1.1-7.2,0.5-13.6,5.1-19.1c4.6-5.5,10.7-8.2,17.8-8.4
		c0-9,0-17.8,0-26.7c-22.4,0-44.7,0-67.1,0c0,0.5,0,0.8,0,1.2c0,15.3,0,30.6,0,45.8c0,4.6,2.6,7.2,7.2,7.2c12,0,23.9,0,35.9,0
		C55.1,85.7,55.5,85.7,55.9,85.7z M97.9,81.5c0.1-10.4-8.5-19-19-19.1c-10.4,0-19,8.4-19,18.9c-0.1,10.5,8.4,19.1,18.9,19.2
		C89.3,100.5,97.8,92,97.9,81.5z M26.7,15.8c-3.4,0-6.7-0.3-10,0.1c-2.6,0.3-4.4,2.1-4.8,4.8c-0.3,2.1-0.1,4.2-0.1,6.4
		c22.3,0,44.6,0,67.1,0c0-1.7,0-3.2,0-4.8c0-3.8-2.7-6.5-6.5-6.5c-2.6,0-5.1,0-7.7,0c-0.3,0-0.5,0.1-0.8,0.1c0,0.7,0,1.2,0,1.8
		c0,0.6,0,1.2,0,1.9c-0.1,1.4-0.9,2.3-2.1,2.3c-1.3,0-2.1-0.9-2.1-2.4c0-1.2,0-2.4,0-3.6c-9.6,0-19.2,0-28.8,0c0,1,0,1.9,0,2.9
		c0,2.2-0.6,3.1-2.1,3.2c-1.5,0-2.1-0.9-2.1-3.1C26.7,17.8,26.7,16.8,26.7,15.8z"/>
	<path class="st3" d="M55.9,85.7c-0.5,0-0.8,0-1.2,0c-12,0-23.9,0-35.9,0c-4.6,0-7.2-2.6-7.2-7.2c0-15.3,0-30.6,0-45.8
		c0-0.4,0-0.7,0-1.2c22.4,0,44.7,0,67.1,0c0,8.9,0,17.7,0,26.7C71.7,58.3,65.6,61,61,66.5C56.4,72.1,54.8,78.5,55.9,85.7z
		 M43.2,53.7c3.9,0,7.8,0,11.7,0c1.5,0,3,0,4.6,0c1.3,0,2.2-0.9,2.2-2.1c0-1.2-1-2.1-2.3-2.1c-0.2,0-0.3,0-0.5,0
		c-10.5,0-20.9,0-31.4,0c-0.3,0-0.6,0-0.9,0c-1.1,0.1-1.9,1.1-1.9,2.1c0,1.1,0.8,1.9,2,2c0.3,0,0.7,0,1,0
		C32.9,53.7,38,53.7,43.2,53.7z M36.7,67.5c3.2,0,6.3,0,9.5,0c1.4,0,2.3-0.9,2.3-2.1c0-1.2-0.9-2.1-2.3-2.1c-0.4,0-0.8,0-1.1,0
		c-5.8,0-11.5,0-17.3,0c-0.3,0-0.6,0-0.9,0c-1.3,0.1-2.2,1-2.2,2.1c0,1.2,1,2.1,2.3,2.1C30.2,67.5,33.4,67.5,36.7,67.5z"/>
	<path class="st3" d="M97.9,81.5c-0.1,10.6-8.6,19-19.2,19c-10.5,0-18.9-8.6-18.9-19.2c0.1-10.5,8.6-18.9,19-18.9
		C89.4,62.4,97.9,71,97.9,81.5z M76.1,85.8c-0.3-0.3-0.6-0.5-0.8-0.8c-1.8-1.8-3.7-3.7-5.5-5.5c-0.6-0.7-1.4-1-2.3-0.7
		c-1.6,0.5-2,2.4-0.7,3.6c2.4,2.5,4.9,4.9,7.4,7.4c1.4,1.4,2.4,1.4,3.8,0c4.4-4.2,8.7-8.3,13.1-12.5c0.3-0.3,0.7-0.6,0.8-0.9
		c0.1-0.7,0.3-1.6,0-2.1c-0.3-0.5-1.1-0.9-1.7-1c-0.6,0-1.3,0.4-1.8,0.8c-3.1,2.9-6.1,5.8-9.2,8.7C78.2,83.8,77.1,84.8,76.1,85.8z"
		/>
	<path class="st3" d="M26.7,15.8c0,1,0,1.9,0,2.9c0,2.2,0.7,3.1,2.1,3.1c1.4,0,2.1-1,2.1-3.2c0-0.9,0-1.9,0-2.9c9.6,0,19.1,0,28.8,0
		c0,1.2,0,2.4,0,3.6c0,1.5,0.8,2.4,2.1,2.4c1.2,0,2.1-0.9,2.1-2.3c0-0.6,0-1.2,0-1.9c0-0.6,0-1.2,0-1.8c0.3,0,0.6-0.1,0.8-0.1
		c2.6,0,5.1,0,7.7,0c3.8,0,6.5,2.7,6.5,6.5c0,1.6,0,3.2,0,4.8c-22.4,0-44.8,0-67.1,0c0-2.2-0.3-4.3,0.1-6.4c0.4-2.6,2.2-4.5,4.8-4.8
		C20,15.6,23.3,15.8,26.7,15.8z"/>
	<path class="st1" d="M43.2,53.7c-5.2,0-10.3,0-15.5,0c-0.3,0-0.7,0-1,0c-1.1-0.1-1.9-1-2-2c0-1.1,0.8-2,1.9-2.1c0.3,0,0.6,0,0.9,0
		c10.5,0,20.9,0,31.4,0c0.2,0,0.3,0,0.5,0c1.4,0,2.3,0.9,2.3,2.1c0,1.2-0.9,2-2.2,2.1c-1.5,0-3,0-4.6,0C51,53.7,47.1,53.7,43.2,53.7
		z"/>
	<path class="st1" d="M36.7,67.5c-3.2,0-6.5,0-9.7,0c-1.3,0-2.2-0.9-2.3-2.1c0-1.2,0.9-2.1,2.2-2.1c0.3,0,0.6,0,0.9,0
		c5.8,0,11.5,0,17.3,0c0.4,0,0.8,0,1.1,0c1.4,0.1,2.3,0.9,2.3,2.1c0,1.3-0.9,2.1-2.3,2.1C43,67.5,39.9,67.5,36.7,67.5z"/>
	<path class="st1" d="M76.1,85.8c1.1-1,2.1-2,3.1-2.9c3-2.9,6.1-5.8,9.2-8.7c0.5-0.4,1.2-0.8,1.8-0.8c0.6,0,1.5,0.5,1.7,1
		c0.3,0.6,0.1,1.4,0,2.1c-0.1,0.3-0.5,0.6-0.8,0.9c-4.4,4.2-8.7,8.3-13.1,12.5c-1.4,1.4-2.4,1.3-3.8,0c-2.5-2.5-4.9-4.9-7.4-7.4
		c-1.3-1.3-0.9-3.2,0.7-3.6c0.9-0.3,1.7,0.1,2.3,0.7c1.8,1.8,3.7,3.7,5.5,5.5C75.5,85.3,75.8,85.5,76.1,85.8z"/>
</g>
</svg>
