<?xml version="1.0" encoding="utf-8"?>
<!-- Generator: Adobe Illustrator 25.0.0, SVG Export Plug-In . SVG Version: 6.00 Build 0)  -->
<svg version="1.1" id="Layer_1" xmlns="http://www.w3.org/2000/svg" xmlns:xlink="http://www.w3.org/1999/xlink" x="0px" y="0px"
	 viewBox="0 0 110 110" style="enable-background:new 0 0 110 110;" xml:space="preserve">
<style type="text/css">
	.st0{display:none;fill:#FFFFFF;}
	.st1{fill:#FFFFFF;}
</style>
<g>
	<path class="st0" d="M73.8,8c9.4,0,18.8,0,28.2,0c0,31.3,0,62.7,0,94c-31.3,0-62.7,0-94,0C8,70.7,8,39.3,8,8c21.4,0,42.8,0,64.1,0
		c-2.2,0.8-3,2.4-3,4.7c0.1,15.3,0,30.7,0,46c0,0.4,0,0.7,0,1.2c-1.1,0.3-1.2,1.1-1.2,2.1c0,1,0,2,0,3c-2.9,0-5.3,0.9-7.6,2.5
		c0.1-2,0.3-3.8,0.4-5.6c0-0.6,0.2-1,0.8-1.3c1.4-0.7,2-2,1.9-3.5c-0.1-1.6-1-2.8-2.5-3.3c-0.6-0.2-1.3-0.2-2-0.2
		c-13.1,0-26.2,0-39.3,0c-0.3,0-0.6,0-0.9,0c-1.8,0.2-3.1,1.3-3.4,2.9c-0.4,1.6,0.3,3.3,1.9,4.1c0.5,0.3,0.7,0.6,0.7,1.1
		c0.1,1.5,0.2,2.9,0.3,4.4c0.5,7,0.9,14,1.4,20.9c0.2,3.1,0.4,6.3,0.7,9.4c0.3,3.2,2.9,5.4,6.1,5.4c22.3,0,44.6,0,66.9,0
		c1.4,0,1.9-0.7,1.6-2c-1.1-5.2-2.2-10.4-3.2-15.6c-0.6-3-1.2-6-1.7-9c-0.8-4.9-4.2-8.8-9-10c-1-0.2-2-0.3-3.1-0.5
		c0-0.9,0-1.8,0-2.7c0.1-1-0.1-2-1.2-2.3c0-0.4,0-0.8,0-1.2c0-15.3,0-30.5,0-45.8C76.7,10.5,76,8.8,73.8,8z"/>
	<path class="st1" d="M73.8,8c2.2,0.8,3,2.5,3,4.8c-0.1,15.3,0,30.5,0,45.8c0,0.4,0,0.7,0,1.2c1.1,0.4,1.2,1.3,1.2,2.3
		c0,0.9,0,1.8,0,2.7C79,65,80,65,81,65.3c4.8,1.2,8.2,5.1,9,10c0.5,3,1.1,6,1.7,9c1.1,5.2,2.2,10.4,3.2,15.6c0.3,1.3-0.3,2-1.6,2
		c-22.3,0-44.6,0-66.9,0c-3.2,0-5.8-2.2-6.1-5.4c-0.3-3.1-0.5-6.3-0.7-9.4c-0.5-7-0.9-14-1.4-20.9c-0.1-1.5-0.2-2.9-0.3-4.4
		c0-0.5-0.2-0.9-0.7-1.1c-1.5-0.8-2.3-2.4-1.9-4.1c0.4-1.7,1.7-2.8,3.4-2.9c0.3,0,0.6,0,0.9,0c13.1,0,26.2,0,39.3,0
		c0.7,0,1.4,0,2,0.2c1.5,0.5,2.4,1.7,2.5,3.3c0.1,1.5-0.5,2.8-1.9,3.5c-0.6,0.3-0.7,0.7-0.8,1.3c-0.1,1.8-0.2,3.6-0.4,5.6
		c2.3-1.6,4.7-2.5,7.6-2.5c0-1,0-2,0-3c0-1,0.1-1.8,1.2-2.1c0-0.4,0-0.8,0-1.2c0-15.3,0-30.7,0-46c0-2.3,0.8-3.9,3-4.7
		C72.7,8,73.2,8,73.8,8z M21.1,68.5c0.2,2.2,0.3,4.5,0.5,6.8c0.4,6.7,0.9,13.5,1.3,20.2c0.2,2.4,1.5,3.6,3.9,3.6
		c7.8,0,15.6,0,23.4,0c0.3,0,0.7,0,1,0c0.1-0.2,0.1-0.3,0.1-0.4c1.5-7,3-14.1,4.4-21.1c0.4-1.9,0.5-3.9,1.3-5.8
		c0.5-1.1,0.5-2.3,0.8-3.5c-0.1,0-0.2-0.1-0.3-0.1c-0.1,0.1-0.2,0.3-0.3,0.4c-3.1,3.9-7,6.4-12,6.9c-3.3,0.3-6.6,0.3-10,0.2
		c-4-0.1-7.6-1.5-10.8-4C23.2,70.6,22.2,69.6,21.1,68.5z M57.7,61.1c-12.4,0-24.6,0-36.9,0c1.5,6,6.5,10.8,12.6,11.5
		c3,0.4,6.1,0.2,9.2,0.2c3.5,0,6.6-1.1,9.3-3.2C54.9,67.5,56.8,64.7,57.7,61.1z M58.7,75.4c9.5,0,19,0,28.5,0c0-0.2,0-0.4,0-0.5
		c-0.9-4.1-4.5-7.1-8.7-7.2c-3.6-0.1-7.3-0.1-10.9,0c-1,0-2.1,0.2-3,0.6C61.3,69.6,59.4,72,58.7,75.4z M75,78.3
		c-1.1,0-2.1,0.1-3.1,0c-0.8-0.1-1,0.2-1,1c-0.2,5.3-0.5,10.5-0.7,15.8c-0.1,1.3,0,2.6,0,3.9c1.9,0,3.7,0,5.7,0
		C75.6,92.1,75.3,85.2,75,78.3z M73.9,59.8c0-0.3,0-0.6,0-0.9c0-15.5,0-31.1,0-46.6c0-0.3,0.1-0.6-0.1-0.8c-0.2-0.3-0.6-0.7-0.9-0.7
		c-0.3,0-0.7,0.4-1,0.8c-0.1,0.2,0,0.5,0,0.8c0,15.5,0,30.9,0,46.4c0,0.3,0,0.6,0,1C72.6,59.8,73.2,59.8,73.9,59.8z M61.9,78.3
		c-1.1,0-2,0-2.9,0c-0.6,0-0.8,0.1-0.9,0.7c-0.5,2.7-1.1,5.4-1.7,8.2C55.6,91.1,54.8,95,54,99c1.8,0,3.5,0,5.4,0
		C60.2,92.1,61.1,85.3,61.9,78.3z M83.9,78.3c0.9,7,1.7,13.9,2.6,20.7c1.8,0,3.6,0,5.3,0c-0.2-0.8-0.3-1.6-0.5-2.4
		C90.2,90.8,89,84.9,87.7,79c-0.1-0.3-0.4-0.7-0.6-0.7C86.1,78.2,85.1,78.3,83.9,78.3z M83.7,99c-0.9-6.9-1.7-13.8-2.6-20.7
		c-1.2,0-2.2,0-3.4,0c0.3,6.9,0.6,13.8,0.9,20.7C80.4,99,82,99,83.7,99z M68.1,78.3c-0.9,0-1.8,0-2.6,0c-0.7,0-0.9,0.2-1,0.9
		c-0.6,5.2-1.3,10.5-1.9,15.7c-0.2,1.4-0.3,2.8-0.5,4.2c1.7,0,3.4,0,5.1,0C67.5,92.1,67.8,85.2,68.1,78.3z M39.3,58.3
		c6.5,0,13.1,0,19.6,0c0.3,0,0.7,0.1,1-0.1c0.3-0.2,0.7-0.6,0.8-0.9c0-0.3-0.4-0.7-0.7-0.9c-0.3-0.2-0.8-0.1-1.2-0.1
		c-12.9,0-25.9,0-38.8,0c-0.2,0-0.5,0-0.7,0c-0.7,0-1.2,0.2-1.2,1c0,0.8,0.5,1,1.2,1c0.2,0,0.5,0,0.7,0
		C26.4,58.3,32.8,58.3,39.3,58.3z M70.8,62.7c0,0.8,0,1.5,0,2.2c1.4,0,2.8,0,4.2,0c0-0.8,0-1.5,0-2.2C73.6,62.7,72.2,62.7,70.8,62.7
		z"/>
	<path class="st0" d="M21.1,68.5c1.1,1,2.2,2.1,3.3,3.1c3.1,2.5,6.7,4,10.8,4c3.3,0.1,6.7,0.1,10-0.2c4.9-0.5,8.9-3,12-6.9
		c0.1-0.1,0.2-0.3,0.3-0.4c0.1,0,0.2,0.1,0.3,0.1c-0.2,1.2-0.3,2.4-0.8,3.5c-0.8,1.9-0.9,3.8-1.3,5.8c-1.4,7.1-2.9,14.1-4.4,21.1
		c0,0.1-0.1,0.2-0.1,0.4c-0.3,0-0.6,0-1,0c-7.8,0-15.6,0-23.4,0c-2.4,0-3.7-1.2-3.9-3.6C22.4,88.8,22,82,21.6,75.3
		C21.4,73,21.2,70.7,21.1,68.5z M27.3,89.5c-0.1-1.6-0.2-3-0.3-4.3c-0.1-1-0.7-1.5-1.5-1.5c-0.8,0.1-1.3,0.7-1.2,1.7
		c0.1,1.5,0.2,3,0.3,4.5c0.1,1,0.6,1.6,1.4,1.5c0.9,0,1.3-0.6,1.3-1.6C27.3,89.6,27.3,89.4,27.3,89.5z"/>
	<path class="st0" d="M57.7,61.1c-1,3.6-2.8,6.4-5.7,8.6c-2.8,2.1-5.9,3.2-9.3,3.2c-3.1,0-6.2,0.1-9.2-0.2
		c-6.1-0.8-11.1-5.5-12.6-11.5C33.1,61.1,45.3,61.1,57.7,61.1z"/>
	<path class="st0" d="M58.7,75.4c0.7-3.4,2.6-5.8,5.8-7.1c0.9-0.4,2-0.6,3-0.6c3.6-0.1,7.3-0.1,10.9,0c4.2,0.1,7.8,3.1,8.7,7.2
		c0,0.1,0,0.3,0,0.5C77.7,75.4,68.2,75.4,58.7,75.4z"/>
	<path class="st0" d="M75,78.3c0.3,7,0.6,13.8,0.9,20.7c-2,0-3.8,0-5.7,0c0-1.3,0-2.6,0-3.9c0.2-5.3,0.5-10.5,0.7-15.8
		c0-0.8,0.2-1.1,1-1C72.9,78.3,73.8,78.3,75,78.3z"/>
	<path class="st0" d="M73.9,59.8c-0.7,0-1.3,0-2,0c0-0.4,0-0.7,0-1c0-15.5,0-30.9,0-46.4c0-0.3-0.1-0.6,0-0.8c0.2-0.3,0.6-0.7,1-0.8
		c0.3,0,0.7,0.4,0.9,0.7c0.1,0.2,0.1,0.5,0.1,0.8c0,15.5,0,31.1,0,46.6C73.9,59.2,73.9,59.5,73.9,59.8z"/>
	<path class="st0" d="M61.9,78.3c-0.9,7-1.7,13.9-2.6,20.7c-1.8,0-3.6,0-5.4,0c0.8-4,1.6-7.9,2.5-11.9c0.6-2.7,1.2-5.4,1.7-8.2
		c0.1-0.6,0.3-0.8,0.9-0.7C60,78.3,60.9,78.3,61.9,78.3z"/>
	<path class="st0" d="M83.9,78.3c1.2,0,2.2,0,3.2,0c0.2,0,0.5,0.4,0.6,0.7c1.2,5.9,2.5,11.8,3.7,17.6c0.2,0.8,0.3,1.5,0.5,2.4
		c-1.8,0-3.5,0-5.3,0C85.7,92.1,84.8,85.3,83.9,78.3z"/>
	<path class="st0" d="M83.7,99c-1.7,0-3.3,0-5.1,0c-0.3-6.9-0.6-13.8-0.9-20.7c1.2,0,2.2,0,3.4,0C82,85.2,82.9,92.1,83.7,99z"/>
	<path class="st0" d="M68.1,78.3c-0.3,7-0.6,13.8-0.9,20.7c-1.7,0-3.3,0-5.1,0c0.2-1.4,0.3-2.8,0.5-4.2c0.7-5.2,1.3-10.5,1.9-15.7
		c0.1-0.7,0.3-0.9,1-0.9C66.4,78.3,67.2,78.3,68.1,78.3z"/>
	<path class="st0" d="M39.3,58.3c-6.4,0-12.9,0-19.3,0c-0.2,0-0.5,0-0.7,0c-0.7,0-1.3-0.2-1.2-1c0-0.7,0.5-1,1.2-1
		c0.2,0,0.5,0,0.7,0c12.9,0,25.9,0,38.8,0c0.4,0,0.8-0.1,1.2,0.1c0.3,0.2,0.7,0.6,0.7,0.9c0,0.3-0.4,0.7-0.8,0.9
		c-0.2,0.2-0.7,0.1-1,0.1C52.3,58.3,45.8,58.3,39.3,58.3z"/>
	<path class="st0" d="M70.8,62.7c1.4,0,2.7,0,4.2,0c0,0.7,0,1.4,0,2.2c-1.4,0-2.7,0-4.2,0C70.8,64.1,70.8,63.4,70.8,62.7z"/>
	<path class="st1" d="M27.3,89.5c0-0.1,0,0.1,0,0.3c0,1-0.5,1.6-1.3,1.6c-0.8,0-1.4-0.5-1.4-1.5c-0.1-1.5-0.2-3-0.3-4.5
		c-0.1-1,0.4-1.6,1.2-1.7c0.8-0.1,1.4,0.5,1.5,1.5C27.1,86.5,27.2,87.9,27.3,89.5z"/>
</g>
</svg>
