<?xml version="1.0" encoding="utf-8"?>
<!-- Generator: Adobe Illustrator 25.0.0, SVG Export Plug-In . SVG Version: 6.00 Build 0)  -->
<svg version="1.1" id="Layer_1" xmlns="http://www.w3.org/2000/svg" xmlns:xlink="http://www.w3.org/1999/xlink" x="0px" y="0px"
	 viewBox="0 0 464.2 21" style="enable-background:new 0 0 464.2 21;" xml:space="preserve">
<style type="text/css">
	.st0{fill:#1A716B;}
	.st1{fill:#FFFFFF;}
</style>
<rect class="st0" width="464.2" height="21"/>
<path id="Fill-4" class="st1" d="M454.7,20.1c-0.5,0-0.8-0.2-1.1-0.5c-0.6-0.6-0.6-1.6,0-2.2l6.9-6.9l-6.9-6.9
	c-0.6-0.6-0.6-1.6,0-2.2c0.6-0.6,1.6-0.6,2.2,0l8,8c0.6,0.6,0.6,1.6,0,2.2l-8,8C455.4,19.9,455.1,20.1,454.7,20.1"/>
<rect x="420.4" y="8" class="st1" width="23.6" height="3.2"/>
<rect x="386" y="8" class="st1" width="23.6" height="3.2"/>
<rect x="351.3" y="8" class="st1" width="23.6" height="3.2"/>
<rect x="316.8" y="8" class="st1" width="23.6" height="3.2"/>
<rect x="282.3" y="8" class="st1" width="23.6" height="3.2"/>
<rect x="247.7" y="8" class="st1" width="23.6" height="3.2"/>
<rect x="213.1" y="8" class="st1" width="23.6" height="3.2"/>
<rect x="178.6" y="8" class="st1" width="23.6" height="3.2"/>
<rect x="144" y="8" class="st1" width="23.6" height="3.2"/>
<rect x="109.4" y="8" class="st1" width="23.6" height="3.2"/>
<rect x="74.8" y="8" class="st1" width="23.6" height="3.2"/>
<rect x="40.3" y="8" class="st1" width="23.6" height="3.2"/>
<rect x="5.7" y="8" class="st1" width="23.6" height="3.2"/>
</svg>
