<svg id="Layer_1" data-name="Layer 1" xmlns="http://www.w3.org/2000/svg" viewBox="0 0 756.35 464.64"><defs><style>.cls-1{fill:#e9f6f6;}.cls-2{fill:#f5fbfd;}.cls-3{fill:#f68f66;}.cls-4{fill:#b35a34;opacity:0.5;}.cls-15,.cls-34,.cls-5{fill:#fff;}.cls-10,.cls-32,.cls-5{opacity:0.3;}.cls-6{fill:#0e3a33;}.cls-33,.cls-7{fill:#83ccc3;}.cls-8{fill:#d5def1;}.cls-9{fill:#11544d;}.cls-10,.cls-32{fill:#91d2c5;}.cls-11{fill:#52a098;}.cls-12{fill:#2f7c73;}.cls-13{fill:#1c5b49;}.cls-13,.cls-21,.cls-27{opacity:0.4;}.cls-14{fill:#1b716b;}.cls-16{fill:#142148;}.cls-17,.cls-19,.cls-27{fill:#243f87;}.cls-18{fill:#4c6ab3;}.cls-19{opacity:0.6;}.cls-20{fill:#f9b385;}.cls-21{fill:#ec5f61;}.cls-22{fill:#e42627;}.cls-23{opacity:0.8;}.cls-24{fill:#e69c30;}.cls-25{fill:#e38b6d;}.cls-26{fill:#e42c29;}.cls-28{fill:#0c514a;}.cls-29{fill:#8fa4d4;}.cls-30{fill:#f9b71d;}.cls-31{fill:#f9c243;}.cls-32,.cls-33,.cls-34,.cls-35{fill-rule:evenodd;}.cls-35{fill:#79afa0;}</style></defs><path class="cls-1" d="M392.83,165.19l-.84-1A173.33,173.33,0,0,1,448.77,135c30.88-9,77.11-11.58,122,27.49l-.85,1c-44.44-38.67-90.19-36.15-120.75-27.24A171.65,171.65,0,0,0,392.83,165.19Z" transform="translate(-25.19 -29.15)"/><path class="cls-2" d="M749.48,414.66c-4.82-51.39-24.74-90.39-76.35-119-15.23-8.44-34.28-12.56-43.41-27.38s-5.69-33.51-7.49-50.69c-4.61-44.09-46.74-78.19-90.83-82.85S443.46,150,410,179.09c-25.13,21.79-47.14,49.62-78.8,59.83-52.2,16.83-109-20.72-162.58-8.94-28.83,6.33-53,26.52-70.68,50.17C68.36,319.72,61,369.76,70,418.32c4.94,26.56,17,53.49,34.38,74.16l621.19-1.29C743.77,473,751.55,436.7,749.48,414.66Z" transform="translate(-25.19 -29.15)"/><circle class="cls-2" cx="279.21" cy="139.44" r="48"/><circle class="cls-2" cx="384.41" cy="125.78" r="19.89" transform="translate(141.25 437.33) rotate(-75.51)"/><circle class="cls-2" cx="688.85" cy="264.59" r="19.89" transform="translate(247.88 845.07) rotate(-76.72)"/><path class="cls-1" d="M746.5,491.92l-1.15-.6c23.34-44,25.81-91.27,6.78-129.72-20-40.43-60.83-67.63-115-76.59l.21-1.28c54.56,9,95.72,36.48,115.91,77.29C772.51,399.86,770,447.57,746.5,491.92Z" transform="translate(-25.19 -29.15)"/><path class="cls-1" d="M108,493.79C79.93,463.52,61.38,427.07,54.4,388.37c-6.49-36-2.29-71.79,11.83-100.68,21.82-44.63,64.06-67.62,115.85-63.1l-.11,1.29c-51.24-4.47-93,18.26-114.57,62.38-14,28.64-18.17,64.11-11.72,99.88,6.94,38.45,25.37,74.68,53.31,104.77Z" transform="translate(-25.19 -29.15)"/><rect class="cls-3" x="99.76" y="369.28" width="166.92" height="93.96"/><rect class="cls-4" x="99.76" y="369.28" width="59.81" height="93.96"/><rect class="cls-5" x="212.75" y="402.09" width="22.89" height="15.57" transform="translate(-210.88 604.92) rotate(-90)"/><rect class="cls-6" x="233.71" y="266.91" width="275.73" height="196.33"/><path class="cls-7" d="M561.48,226.66h-51V180.1a17,17,0,0,1,34-.16v29.71c0,.14,0,.3,0,.44V211l0,0A17,17,0,0,0,561.48,226.66Z" transform="translate(-25.19 -29.15)"/><path class="cls-8" d="M578.47,199.37v10.29a17,17,0,0,1-33.94,1.3Z" transform="translate(-25.19 -29.15)"/><path class="cls-1" d="M527.47,163.09c-.36,0-.71,0-1.06,0s-.46,0-.68.05-.48,0-.72.09-.29,0-.43.06l-.53.11c-.26.05-.51.1-.77.17s-.72.19-1.09.32c-.18,0-.36.12-.53.18a5.55,5.55,0,0,0-.52.2,6.36,6.36,0,0,0-.71.31,5,5,0,0,0-.62.3l-.19.09q-.27.13-.54.3a15.4,15.4,0,0,0-2,1.36l-.54.44c-.21.17-.39.34-.59.52l-.55.54a17.25,17.25,0,0,0-1.43,1.65c-.2.26-.38.51-.56.77a18.91,18.91,0,0,0-1.49,2.73l-.3.73a19.37,19.37,0,0,0-.69,2.28c-.05.28-.1.53-.15.79-.09.54-.17,1.08-.21,1.63V417.32H283.15V189.6a26.51,26.51,0,0,1,26.52-26.51Z" transform="translate(-25.19 -29.15)"/><rect class="cls-7" x="284.84" y="158.25" width="172.54" height="9.08"/><rect class="cls-7" x="284.84" y="184.84" width="159.17" height="9.08"/><rect class="cls-7" x="284.84" y="211.44" width="150.78" height="9.08"/><rect class="cls-7" x="284.84" y="238.03" width="172.54" height="9.08"/><rect class="cls-7" x="351.52" y="264.95" width="93.54" height="9.08"/><path class="cls-9" d="M395.53,345.09a3.08,3.08,0,0,1-2.63-1.25,5.77,5.77,0,0,1-.71-3.62l.88-23.47,1.3.05-.88,23.46a4.61,4.61,0,0,0,.46,2.82c1.1,1.52,3.75.21,4.27-.07,2.62-1.4,4.49-4,6.31-6.59,2-2.83,4.1-5.77,7.25-7.14,1.87-.82,3.25.38,4.36,1.34a5.56,5.56,0,0,0,1.85,1.24c1.65.49,3.29.06,5-.39a11.76,11.76,0,0,1,4.76-.57,13,13,0,0,1,3.87,1.4c1.72.85,3.21,1.59,5.36,1.06,3-.71,5.74-2.4,8.41-4,.77-.47,1.54-.95,2.32-1.4,3-1.74,7.51-3.94,12-2.91l-.29,1.26c-4.05-.92-8.25,1.14-11.06,2.77-.77.45-1.53.92-2.3,1.39a31.36,31.36,0,0,1-8.77,4.2c-2.61.62-4.46-.28-6.25-1.17a12,12,0,0,0-3.49-1.28,10.75,10.75,0,0,0-4.24.54c-1.83.48-3.72,1-5.72.39a6.59,6.59,0,0,1-2.33-1.51c-1.16-1-1.92-1.6-3-1.13-2.82,1.23-4.71,3.89-6.72,6.7s-3.86,5.44-6.74,7A7.3,7.3,0,0,1,395.53,345.09Z" transform="translate(-25.19 -29.15)"/><path class="cls-10" d="M510.53,304.29v113H283.15V294.44l71,59.09a17.93,17.93,0,0,0,14.11,3.8,27.79,27.79,0,0,1,4.48-.24l48.41,1.36a27.34,27.34,0,0,1,5,.61,17.8,17.8,0,0,0,14.41-3Z" transform="translate(-25.19 -29.15)"/><polygon class="cls-11" points="337.38 348.3 335.49 350.4 249.91 445.29 233.71 463.25 233.71 266.91 337.38 348.3"/><polygon class="cls-11" points="509.44 266.91 405.76 348.3 509.44 463.24 509.44 266.91"/><path class="cls-12" d="M360.68,379.56l-85.57,94.88L258.9,478V443.13c42.78-30.66,90.76-66.21,101.73-67Z" transform="translate(-25.19 -29.15)"/><path class="cls-12" d="M432.85,379.56l85.57,94.88L534.63,478V443.13c-42.78-30.66-90.76-66.21-101.73-67Z" transform="translate(-25.19 -29.15)"/><path class="cls-11" d="M534.63,492.39H258.9l.05-25.83,95-86.19a27.09,27.09,0,0,1,18.21-7H420.6a27.12,27.12,0,0,1,18,6.84l96.31,85.49Z" transform="translate(-25.19 -29.15)"/><circle class="cls-13" cx="491.11" cy="415.89" r="47.35"/><circle class="cls-14" cx="530.57" cy="445.04" r="47.35" transform="translate(-32.17 852.47) rotate(-79.07)"/><path class="cls-15" d="M529.56,470.7a8,8,0,0,1-5.94-2.64l-16.75-18.5a3.89,3.89,0,1,1,5.77-5.23l16.75,18.5a.21.21,0,0,0,.22.08.22.22,0,0,0,.19-.15l18-41.05a3.89,3.89,0,0,1,7.13,3.13l-18,41.05a8,8,0,0,1-6.07,4.7A8.15,8.15,0,0,1,529.56,470.7Z" transform="translate(-25.19 -29.15)"/><polygon class="cls-16" points="176.73 343.12 178.24 369.28 218.46 369.28 200.3 354.36 199.22 343.12 192.08 336.2 176.73 343.12"/><polygon class="cls-16" points="128.51 331.44 122.03 354.79 155.11 369.28 145.38 347.22 147.76 337.28 139.54 326.47 128.51 331.44"/><path class="cls-17" d="M166.46,244.7s-3.89,16.21-2.59,51.89c0,0-11.46,40-10.17,64L173,366.43c10.08-22.4,18.37-44,22.78-63.66a34.91,34.91,0,0,0-.12-21.4l-9.26-28.24Z" transform="translate(-25.19 -29.15)"/><path class="cls-18" d="M227.46,297.33l-3.05,74.94H201.92a334.48,334.48,0,0,1-8.8-59.2c-.64-11.77-.28-18.64-.28-18.64-14.45-17.06-23-29.39-28-38.51-7.42-13.53-7-20-6.14-24.63,1.12-6.11,5.09-14,7.77-18.89,1.51-2.7,2.61-4.46,2.61-4.46l37.62,12.11-4.49,16.23-.07.27a9.5,9.5,0,0,0,.92,7.26l19.73,34.36A35.68,35.68,0,0,1,227.46,297.33Z" transform="translate(-25.19 -29.15)"/><path class="cls-17" d="M215.76,372.75h0a.5.5,0,0,1-.46-.51c0-.76,4.69-75.26-.82-87.12a89.81,89.81,0,0,0-4.5-7.82c-7.95-12.88-21.25-34.44-18.46-65.51a.47.47,0,0,1,.53-.44.48.48,0,0,1,.44.53c-2.76,30.74,10.43,52.13,18.31,64.91a84.25,84.25,0,0,1,4.56,7.92c5.61,12.08,1.11,84.51.91,87.59A.47.47,0,0,1,215.76,372.75Z" transform="translate(-25.19 -29.15)"/><path class="cls-19" d="M206.67,220.05l-4.49,16.23a113.56,113.56,0,0,1-35.74-23.88c1.51-2.7,2.61-4.46,2.61-4.46Z" transform="translate(-25.19 -29.15)"/><path class="cls-15" d="M213,384.56l-.38-6.5,12.4-.23a.46.46,0,0,1,.49.48.49.49,0,0,1-.48.5l-11.38.2.27,4.53,11.52-.52a.49.49,0,0,1,.5.47.48.48,0,0,1-.46.51Z" transform="translate(-25.19 -29.15)"/><path class="cls-15" d="M170.57,376.86l-.15,0-10.67-3.41,2.66-6.21,9.41,3.4a.49.49,0,1,1-.34.91l-8.54-3.08-1.88,4.38,9.66,3.08a.49.49,0,0,1,.31.61A.48.48,0,0,1,170.57,376.86Z" transform="translate(-25.19 -29.15)"/><polygon class="cls-20" points="194.78 119.11 194.08 121.73 191.28 132.33 189.38 139.44 172.52 133.38 180.65 116.73 184.62 111 194.78 119.11"/><path class="cls-16" d="M219.27,150.88l-2.8,10.6a15.83,15.83,0,0,1-4-12.13Z" transform="translate(-25.19 -29.15)"/><path class="cls-20" d="M232.62,133.34s-1.08,24-13.19,21.95-11.89-22.7-11.89-22.7l15.79-5.08Z" transform="translate(-25.19 -29.15)"/><path class="cls-16" d="M215.81,137s6.95-7.17,16.81-3.63c0,0,4.35,1.84,6.06-1.73,0,0-14-18.48-24.89-9.56,0,0-19.63,4.29-7.95,23.83Z" transform="translate(-25.19 -29.15)"/><ellipse class="cls-20" cx="216.02" cy="137.51" rx="3.73" ry="4.27" transform="translate(-44.15 6.58) rotate(-9.06)"/><circle class="cls-20" cx="230.89" cy="145.45" r="2.16" transform="translate(25.23 320.99) rotate(-80.81)"/><circle class="cls-21" cx="197.32" cy="114.08" r="3.73"/><path class="cls-20" d="M292.52,182.05s2.23,3.07-2.33,6.13c0,0,3.62,2.48-8.86,6.56-1.38.46-3,.92-4.78,1.42l-5-18.19s22.27-7.53,22.83-5.11-4,5.67-4,5.67S298.37,176.57,292.52,182.05Z" transform="translate(-25.19 -29.15)"/><path class="cls-22" d="M271.54,178l-26.38,3.38s-37.94-27-45.73-24.43-34.05,44.76-34.05,44.76-7.14,2.27-6.81,5.19,46.38,26.81,52.54,20.76c3.87-3.81,8.32-34.17,8.32-34.17l16.79,7a25.9,25.9,0,0,0,15.72,1.34l24.61-5.61Z" transform="translate(-25.19 -29.15)"/><g class="cls-23"><path class="cls-15" d="M269.87,194.21c-.9-3.54-1.79-7-2.59-10.32-.23-.92-.43-1.87-.64-2.82-.17-.8-.35-1.61-.54-2.41l-1,.13c.19.83.38,1.66.56,2.49s.42,1.91.64,2.84c.81,3.33,1.69,6.79,2.6,10.33l.83,3.26.95-.22Z" transform="translate(-25.19 -29.15)"/><path class="cls-15" d="M224.72,167.85l-1.2.26c-7.31,1.52-15.13,2.75-22.78,1.46a29.41,29.41,0,0,1-10.48-3.86l-.62.76a30.4,30.4,0,0,0,10.94,4.06c7.8,1.32,15.73.07,23.13-1.47l2.21-.47Z" transform="translate(-25.19 -29.15)"/><path class="cls-15" d="M214.61,214.58a39.08,39.08,0,0,1-6.67.17c-6.48-.61-12.23-4.64-16-7.62-1.33-1-2.63-2.15-3.94-3.25a69.06,69.06,0,0,0-10.62-7.82,27.37,27.37,0,0,0-6.71-2.67c-.19.3-.37.57-.56.85a26.21,26.21,0,0,1,6.8,2.67,68.77,68.77,0,0,1,10.47,7.72c1.31,1.1,2.62,2.2,4,3.27,3.86,3,9.76,7.19,16.5,7.82a39,39,0,0,0,6.84-.17l.67,0c.08-.33.15-.66.23-1Z" transform="translate(-25.19 -29.15)"/></g><path class="cls-24" d="M219.43,193.45l-6.83-3s1.75,10.85,5,12.4Z" transform="translate(-25.19 -29.15)"/><path class="cls-25" d="M281.33,194.74c-1.38.46-3,.92-4.78,1.42l-5-18.19Z" transform="translate(-25.19 -29.15)"/><path class="cls-25" d="M581.49,304.48l15.89,7.14,11.85-39-15.51-4.07A233.56,233.56,0,0,0,581.49,304.48Z" transform="translate(-25.19 -29.15)"/><path class="cls-14" d="M593.72,268.56l15.51,4.07,13.24-36.37S606.47,234.1,593.72,268.56Z" transform="translate(-25.19 -29.15)"/><polygon class="cls-26" points="549.71 261.82 538.25 293.38 581.06 309.82 589.71 276.95 549.71 261.82"/><path class="cls-25" d="M589,333c-.31.9-2.87,2-4.52.51-3.2-.57-5.36-1-7.36-3.19a3.1,3.1,0,0,1-1.78-4.29c1.57-3.15,4-7.59,5.16-7.42,1.46.22.41,4.71.41,4.71s2.42-5.69,4.72-4.94c1,.34-1.44,5.76-1.69,6.33.39-.52,3.46-4.66,4.64-3.79s-1.69,5.78-2,6.29c.33-.41,3-3.67,4.35-2.59C591.49,325.13,590.59,328.43,589,333Z" transform="translate(-25.19 -29.15)"/><path class="cls-16" d="M669.39,441.67s20.75-2.27,29.51-21.4l-23,1.29Z" transform="translate(-25.19 -29.15)"/><polygon class="cls-25" points="667.11 391.33 647.22 403.66 656.17 416.8 675.35 403.73 667.11 391.33"/><polygon class="cls-16" points="687.65 422.25 675.35 403.73 656.17 416.8 659.44 421.6 657.49 447.22 687.65 422.25"/><rect class="cls-15" x="684.62" y="449.86" width="9.75" height="1.3" transform="translate(-47.19 6.46) rotate(-2.91)"/><polygon class="cls-25" points="610.47 426.36 588.63 425.06 588.63 442.74 612.12 441.25 610.47 426.36"/><polygon class="cls-16" points="588.63 442.74 588.63 446.9 572.19 463.33 614.57 463.33 612.12 441.25 588.63 442.74"/><rect class="cls-15" x="617.33" y="473.7" width="1.3" height="10.76" transform="translate(-131.83 743.77) rotate(-59.86)"/><path class="cls-18" d="M634.55,342.62c-.33,8.05-.4,16.53-.26,25.08.13,7.42.41,14.89.79,22.2,1.87,36.28,6.19,68.42,6.19,68.42l-33.73,4.33c-16-111.57-5.61-158.71-5.61-158.71l14.69-3,13.06-2.66,14.63-3c-.18.27-.36.55-.53.85a49.65,49.65,0,0,0-5.36,14.26C636.28,319.37,635.08,330.51,634.55,342.62Z" transform="translate(-25.19 -29.15)"/><path class="cls-17" d="M635.08,389.9c-14.14-30.06-8.83-54-8.83-54l8.3,6.68c-.33,8.05-.4,16.53-.26,25.08C634.42,375.12,634.7,382.59,635.08,389.9Z" transform="translate(-25.19 -29.15)"/><path class="cls-18" d="M698.9,420.27c-16.22,6.16-29.51,21.4-29.51,21.4a528.59,528.59,0,0,1-35.1-74,326.32,326.32,0,0,1-16.56-59.6q-.62-3.6-1.11-7.16c0-.22-.07-.45-.1-.67l13.16-2,14.1-2.13,7.12-1.07c.76,4.54,1.79,9.28,3,14.18C666.19,358.09,698.9,420.27,698.9,420.27Z" transform="translate(-25.19 -29.15)"/><g class="cls-23"><path class="cls-15" d="M670.36,358.07c-.2-.52-.41-1-.61-1.54a40.94,40.94,0,0,1-7.39-5.82,29.89,29.89,0,0,1-8.07-24.25,28.48,28.48,0,0,1,2.2-7.79c-.14-.47-.28-.94-.41-1.41a29.76,29.76,0,0,0-2.76,9.07,30.93,30.93,0,0,0,8.34,25.06A45.13,45.13,0,0,0,670.36,358.07Z" transform="translate(-25.19 -29.15)"/><path class="cls-15" d="M687.33,396.81c-.13-.29-.27-.57-.4-.87-3.58,1.47-7.87,1.72-12.32,2s-9.14.52-13.21,2.11a20.5,20.5,0,0,0-9.68,8c.17.34.34.69.5,1a19.78,19.78,0,0,1,9.53-8.15c3.93-1.53,8.5-1.79,12.91-2S683.54,398.37,687.33,396.81Z" transform="translate(-25.19 -29.15)"/><path class="cls-15" d="M609.62,393.11c10.79,5.48,19.53,14.67,27.26,23.28,0-.53-.09-1.07-.13-1.6-7.57-8.4-16.14-17.19-26.68-22.54a46,46,0,0,0-10.29-3.77l.06,1A44.88,44.88,0,0,1,609.62,393.11Z" transform="translate(-25.19 -29.15)"/><path class="cls-15" d="M639.46,443.16a18.21,18.21,0,0,1-8.09-.09,54.19,54.19,0,0,1-7.43-2.53,52.33,52.33,0,0,0-8-2.65,26.13,26.13,0,0,0-11.67.18l.12,1a25.11,25.11,0,0,1,11.34-.21,50.89,50.89,0,0,1,7.82,2.61,55.58,55.58,0,0,0,7.56,2.57,19.22,19.22,0,0,0,8.42.11C639.54,443.82,639.5,443.49,639.46,443.16Z" transform="translate(-25.19 -29.15)"/><path class="cls-15" d="M606.7,351.83a22.53,22.53,0,0,1-7.8,17.89c0,.41,0,.84.05,1.25a22.82,22.82,0,0,0,0-35.94c0,.4,0,.81-.05,1.22A22.44,22.44,0,0,1,606.7,351.83Z" transform="translate(-25.19 -29.15)"/></g><path class="cls-27" d="M653.92,309.26a80.6,80.6,0,0,1-15.5,1.15,127.14,127.14,0,0,1-36.49-6.47l14.69-3c0-.22-.07-.45-.1-.67l13.16-2,14.63-3c-.18.27-.36.55-.53.85l7.12-1.07C651.66,299.62,652.69,304.36,653.92,309.26Z" transform="translate(-25.19 -29.15)"/><path class="cls-17" d="M634.29,368.35a.67.67,0,0,1-.61-.43l-9.37-26.35-11.26-6.8a.65.65,0,1,1,.67-1.11l11.66,7,9.52,26.79a.65.65,0,0,1-.39.83A.54.54,0,0,1,634.29,368.35Z" transform="translate(-25.19 -29.15)"/><path class="cls-14" d="M656.41,300.11c-21.73,8.26-59,3.62-59,3.62,1.52-15.79,1.63-62.49,26-68.33l10.87,1.14c5.7,2.23,10.15,10.74,13.49,20.85a166.7,166.7,0,0,1,4.9,18.78C655.26,289.08,656.41,300.11,656.41,300.11Z" transform="translate(-25.19 -29.15)"/><path class="cls-28" d="M652.59,276.17c-10.24-5.95-12.39-19.36-12.39-19.36l7.49.58A166.7,166.7,0,0,1,652.59,276.17Z" transform="translate(-25.19 -29.15)"/><path class="cls-14" d="M634.2,236.53l-1.46,20.92,22.32,11.93,4.52-21.68C640,236.11,634.2,236.53,634.2,236.53Z" transform="translate(-25.19 -29.15)"/><path class="cls-25" d="M676.73,265.29a15,15,0,0,1-1.8,2.24,14.73,14.73,0,0,1-4.27,3.09,15,15,0,0,1-7.54,1.49,15.24,15.24,0,0,1-6.23-1.76l-1.83-1,4.53-21.68,3.8,2.29s17.67-25,19-24.48-.82,4.3-1.22,5.06c.76-1.13,6.5-9.53,8-8.95,1.22.46-.32,4.19-.52,4.65.35-.51,3.43-5,5.28-4,.86.51-2.45,5.41-2.78,5.91.41-.39,4.08-3.95,5-2.88s-2.64,5.31-3,5.79c.36-.32,3.5-3.06,4.5-1.73C698.91,231.11,682.85,256,676.73,265.29Z" transform="translate(-25.19 -29.15)"/><path class="cls-21" d="M674.93,267.53a14.73,14.73,0,0,1-4.27,3.09,15,15,0,0,1-7.54,1.49,5.68,5.68,0,0,1-.17-1.44,6.41,6.41,0,0,1,12-3.14Z" transform="translate(-25.19 -29.15)"/><path class="cls-29" d="M620.76,299.34c-9.59,0-18.18-.62-22.39-1l-.51,0a.49.49,0,0,1-.47-.5.48.48,0,0,1,.48-.47l.58,0c9.6.82,42.08,3,56.78-3.89a.49.49,0,0,1,.65.24.48.48,0,0,1-.24.64C647.23,298.31,633.16,299.34,620.76,299.34Z" transform="translate(-25.19 -29.15)"/><path class="cls-29" d="M625.86,250.15a9,9,0,0,1-7.48-3.46.49.49,0,0,1,.82-.53c.17.26,4.24,6.24,14.5.7a.48.48,0,0,1,.65.2.49.49,0,0,1-.19.66A17.59,17.59,0,0,1,625.86,250.15Z" transform="translate(-25.19 -29.15)"/><path class="cls-30" d="M642.93,195.87c2.73-1.53,6.4-1.67,8.82.31,1.26,1,2.07,2.52,3.24,3.65,2.5,2.44,6.4,3,8.8,5.59a9.93,9.93,0,0,1,2.34,7.51,26.26,26.26,0,0,1-2.14,7.78c-1.43,3.57-3.09,7.21-6,9.78a8.66,8.66,0,0,1-3.81,2.14,5.08,5.08,0,0,1-4.2-.78,5.61,5.61,0,0,1-1.95-4.08,16.84,16.84,0,0,1,.55-4.62,2.5,2.5,0,0,0,2.62,0,2.54,2.54,0,0,0,1.12-2.36c-.19-1.55-1.72-2.52-3.08-3.27l-6.8-3.73a12.82,12.82,0,0,1-3.68-2.61c-1.67-1.9-3-6.07-1.9-8.47A15.59,15.59,0,0,1,642.93,195.87Z" transform="translate(-25.19 -29.15)"/><path class="cls-31" d="M616,208.48s-.14-15.37,19-11.32a14.22,14.22,0,0,1,8.14,5c3.1,3.84,5.09,20-3.79,24.48C628.2,232.26,616,208.48,616,208.48Z" transform="translate(-25.19 -29.15)"/><path class="cls-25" d="M635.81,221.45l-.44,15.44a7.55,7.55,0,0,1-7.13,7.31h-.39a7.54,7.54,0,0,1-7.5-8.19l0-.24,1-11.73,1.28-.24Z" transform="translate(-25.19 -29.15)"/><path class="cls-14" d="M629.27,227a17.92,17.92,0,0,1-8.9,8.81l1-11.73,1.28-.24Z" transform="translate(-25.19 -29.15)"/><path class="cls-25" d="M616,208.48s-4.86,20.27,5.36,21.24,14.43-8.27,14.43-8.27l1.3-11.51-6.33-9.08-10,3.08Z" transform="translate(-25.19 -29.15)"/><path class="cls-31" d="M616,208.48s9.4-5.27,12.81,1.78c2.38,4.92,6,7.63,9.57,6s.65-13.29.65-13.29l-13.3-3.41-7.94,4.54Z" transform="translate(-25.19 -29.15)"/><ellipse class="cls-25" cx="635.7" cy="216.72" rx="4.44" ry="3.67" transform="translate(104.97 629.73) rotate(-60)"/><path class="cls-16" d="M634.68,218.48h0a.33.33,0,0,1-.3-.35c.08-1.15.81-3.33,3-3.33a.33.33,0,0,1,.33.33.32.32,0,0,1-.33.32c-2.1,0-2.32,2.62-2.32,2.73A.33.33,0,0,1,634.68,218.48Z" transform="translate(-25.19 -29.15)"/><path class="cls-16" d="M617.58,215.76a.83.83,0,1,1-.83-.83A.83.83,0,0,1,617.58,215.76Z" transform="translate(-25.19 -29.15)"/><circle class="cls-16" cx="597.9" cy="186.55" r="0.92"/><path class="cls-16" d="M619.31,220.81a1.53,1.53,0,0,1-1.45-.67c-.64-1.17.85-3.37,1.15-3.79a.33.33,0,0,1,.46-.08.32.32,0,0,1,.07.45c-.79,1.11-1.42,2.53-1.11,3.11q.21.36,1.05.33h0a.32.32,0,1,1,0,.64Z" transform="translate(-25.19 -29.15)"/><circle class="cls-21" cx="627.69" cy="219.41" r="2.9" transform="translate(-61.37 227.76) rotate(-22.5)"/><path class="cls-16" d="M619.72,223.61a3.7,3.7,0,0,1-1.53-.32.33.33,0,0,1,.3-.58,3.23,3.23,0,0,0,3.63-.77.33.33,0,0,1,.44.48A4.15,4.15,0,0,1,619.72,223.61Z" transform="translate(-25.19 -29.15)"/><path class="cls-16" d="M618.57,213.93a8.66,8.66,0,0,0-1.68-.3,2.67,2.67,0,0,0-.74.08,5.37,5.37,0,0,0-.79.3h0a.19.19,0,0,1-.25-.11.2.2,0,0,1,0-.15,1.75,1.75,0,0,1,.73-.82,2.11,2.11,0,0,1,1.12-.27,2.59,2.59,0,0,1,1.86,1,.2.2,0,0,1,0,.28.2.2,0,0,1-.16,0Z" transform="translate(-25.19 -29.15)"/><path class="cls-16" d="M621,213.65a2.93,2.93,0,0,1,2.25-1.42,2.38,2.38,0,0,1,1.39.31,2.55,2.55,0,0,1,1,.94.2.2,0,0,1-.06.27.23.23,0,0,1-.18,0h0a8.69,8.69,0,0,0-1-.44,2.23,2.23,0,0,0-1-.12,4.7,4.7,0,0,0-2,.72h0a.2.2,0,0,1-.26-.08A.21.21,0,0,1,621,213.65Z" transform="translate(-25.19 -29.15)"/><rect class="cls-14" x="30.57" y="462.68" width="720.01" height="1.3"/><path class="cls-32" d="M560.42,56.31a1.12,1.12,0,1,0-2.23,0v2.62h-2.63a1.12,1.12,0,0,0,0,2.24h2.63V63.8a1.12,1.12,0,0,0,2.23,0V61.17h2.63a1.12,1.12,0,1,0,0-2.24h-2.63Z" transform="translate(-25.19 -29.15)"/><path class="cls-32" d="M31.17,236.84a1.12,1.12,0,0,0-2.23,0v2.63H26.31a1.12,1.12,0,1,0,0,2.24h2.63v2.62a1.12,1.12,0,1,0,2.23,0v-2.62H33.8a1.12,1.12,0,0,0,0-2.24H31.17Z" transform="translate(-25.19 -29.15)"/><path class="cls-32" d="M55.33,103.6a1.12,1.12,0,0,0-.71-2.12l-2.49.84-.84-2.49a1.12,1.12,0,1,0-2.12.71L50,103l-2.5.83a1.12,1.12,0,0,0,.71,2.12l2.5-.83.83,2.49a1.12,1.12,0,0,0,2.12-.71l-.83-2.49Z" transform="translate(-25.19 -29.15)"/><path class="cls-32" d="M118.49,196.35a1.12,1.12,0,1,0-.71-2.12l-2.49.84-.83-2.5a1.12,1.12,0,0,0-2.12.71l.83,2.5-2.49.83a1.12,1.12,0,0,0,.71,2.12l2.49-.84.84,2.5a1.11,1.11,0,0,0,2.11-.71l-.83-2.5Z" transform="translate(-25.19 -29.15)"/><path class="cls-32" d="M175.45,30.09a1.11,1.11,0,0,0-2.2.36l.41,2.59-2.6.41a1.12,1.12,0,0,0,.36,2.21l2.59-.41.41,2.59a1.12,1.12,0,0,0,2.21-.35l-.41-2.59,2.59-.42a1.12,1.12,0,0,0-.35-2.21l-2.59.42Z" transform="translate(-25.19 -29.15)"/><path class="cls-32" d="M97.22,127.16H132a3.26,3.26,0,0,1,2.08.76,1,1,0,0,1,.41.31.94.94,0,0,1,.14.26,3.27,3.27,0,0,1,.65,2v20.41a3.27,3.27,0,0,1-1,2.31h0a3.29,3.29,0,0,1-2.32,1H97.22a3.28,3.28,0,0,1-3.28-3.28V130.45a3.28,3.28,0,0,1,.65-2,1.57,1.57,0,0,1,.14-.25,1,1,0,0,1,.41-.31,3.26,3.26,0,0,1,2.08-.76Zm35.18,24.9-13.76-10.51-3.44,2.62h0l-.08.06H115l-.11,0h0l-.11,0h-.27l-.11,0h0l-.12,0h-.15l-.09-.06h0l-3.44-2.62L96.77,152.06a1.13,1.13,0,0,0,.45.09H132a1.13,1.13,0,0,0,.45-.09Zm-12.53-11.45,13.37,10.22V130.4l-13.37,10.21ZM95.93,150.83l13.38-10.22L95.93,130.4v20.43Zm18.66-8.69,17-13h-34Z" transform="translate(-25.19 -29.15)"/><path class="cls-32" d="M736.77,268.63a15.24,15.24,0,0,1,10.85-4.5,15.11,15.11,0,0,1,5.87,1.17,15.36,15.36,0,0,1,8.32,20.05,15.33,15.33,0,0,1-8.32,8.32,15.34,15.34,0,0,1-16.72-3.33,15.54,15.54,0,0,1-3.33-5,15.34,15.34,0,0,1,3.33-16.72Zm5.52-2a13.93,13.93,0,1,0,5.33-1.06,14,14,0,0,0-5.33,1.06Zm-1.69-11.3a25.74,25.74,0,0,0-2.83,1,23.79,23.79,0,0,0-2.72,1.36,25.73,25.73,0,0,0-2.56,1.69,26.26,26.26,0,0,0-2.34,2,1.59,1.59,0,0,1-.92.44,1.61,1.61,0,0,1-1-.21c-2.25-1.3-4.62-2.59-6.83-4a1.39,1.39,0,0,0-.33-.1,1.2,1.2,0,0,0-.38,0,1.09,1.09,0,0,0-.34.17.84.84,0,0,0-.25.28c-1.65,2.49-3.29,5.7-4.82,8.34a1.12,1.12,0,0,0-.12.35,1.29,1.29,0,0,0,0,.39,1.14,1.14,0,0,0,.17.35,1.35,1.35,0,0,0,.28.25c2,1.34,4.64,2.68,6.79,3.92a1.56,1.56,0,0,1,.68.76,1.39,1.39,0,0,1,.1.33l.14,0-.15.63q-.19.75-.33,1.5c-.09.48-.16,1-.23,1.51s-.11,1-.14,1.53,0,1,0,1.54,0,1,0,1.54.08,1,.14,1.53.14,1,.23,1.52.2,1,.33,1.49a1.62,1.62,0,0,1-.83,1.81l-6,3.47h0l-.72.41a1,1,0,0,0-.28.25,1.09,1.09,0,0,0-.17.34,1.29,1.29,0,0,0,0,.39,1.12,1.12,0,0,0,.12.35l4.46,7.72h0l.36.62a.84.84,0,0,0,.25.28.91.91,0,0,0,.34.17.86.86,0,0,0,.39,0,1.12,1.12,0,0,0,.35-.12c2.15-1.35,4.58-2.64,6.81-3.93a1.59,1.59,0,0,1,1-.2,1.61,1.61,0,0,1,.92.43h0a27.91,27.91,0,0,0,2.34,2,24.17,24.17,0,0,0,2.56,1.7,25.86,25.86,0,0,0,2.74,1.36,22.28,22.28,0,0,0,2.88,1,1.66,1.66,0,0,1,.84.58,1.63,1.63,0,0,1,.32,1v7.85a.94.94,0,0,0,.07.37,1.06,1.06,0,0,0,.21.31,1,1,0,0,0,.32.22,1.11,1.11,0,0,0,.37.07h9.63a1.16,1.16,0,0,0,.37-.07,1.14,1.14,0,0,0,.53-.53,1.16,1.16,0,0,0,.07-.37v-7.85a1.62,1.62,0,0,1,1.24-1.57,22.74,22.74,0,0,0,2.83-1,24.43,24.43,0,0,0,2.71-1.35,24.17,24.17,0,0,0,2.56-1.7,25,25,0,0,0,2.34-2,1.59,1.59,0,0,1,2-.19l6.72,3.88a.91.91,0,0,0,.35.12.86.86,0,0,0,.39,0,.88.88,0,0,0,.35-.17,1,1,0,0,0,.25-.28c1.59-2.78,3.21-5.55,4.81-8.34a.77.77,0,0,0,.12-.35.86.86,0,0,0,0-.39,1.06,1.06,0,0,0-.16-.34,1,1,0,0,0-.28-.25l-6.8-3.93a1.66,1.66,0,0,1-.68-.76,2.41,2.41,0,0,1-.08-.25l-.18,0,.18-.72c.12-.5.23-1,.32-1.49s.17-1,.23-1.52.11-1,.14-1.53,0-1,0-1.54,0-1.05,0-1.54-.08-1-.14-1.53-.14-1-.23-1.52-.2-1-.32-1.49a1.6,1.6,0,0,1,.1-1.06,1.63,1.63,0,0,1,.72-.75l6.74-3.88a1.12,1.12,0,0,0,.28-.25,1,1,0,0,0,.16-.35.83.83,0,0,0,0-.38.77.77,0,0,0-.12-.36c-1.64-2.44-3.29-5.71-4.81-8.34a1,1,0,0,0-.25-.28,1,1,0,0,0-.35-.17,1.22,1.22,0,0,0-.38,0,1.27,1.27,0,0,0-.36.12L767,261.6a1.55,1.55,0,0,1-1,.2,1.6,1.6,0,0,1-.92-.45,24.48,24.48,0,0,0-2.33-2,25,25,0,0,0-2.55-1.68,24,24,0,0,0-2.73-1.37,27.25,27.25,0,0,0-2.88-1,1.63,1.63,0,0,1-1.17-1.55V245.9a1.06,1.06,0,0,0-.07-.37,1,1,0,0,0-.22-.32,1.06,1.06,0,0,0-.31-.21,1,1,0,0,0-.37-.08h-9.63a.91.91,0,0,0-.37.08,1,1,0,0,0-.32.21,1,1,0,0,0-.28.69v7.84a1.58,1.58,0,0,1-.35,1,1.64,1.64,0,0,1-.89.57Zm-3.39-.3a28.48,28.48,0,0,0-2.87,1.44,25.92,25.92,0,0,0-5.17,3.9l-.11,0-.12,0c-2.28-1.32-4.57-2.63-6.85-4a2.77,2.77,0,0,0-.86-.27,2.46,2.46,0,0,0-.9.07,2.35,2.35,0,0,0-.84.41,2.32,2.32,0,0,0-.62.7c-1.66,2.69-3.23,5.59-4.81,8.34a2.42,2.42,0,0,0-.3.88,2.47,2.47,0,0,0,.06.94,2.52,2.52,0,0,0,.41.84,2.43,2.43,0,0,0,.7.61c2.19,1.35,4.56,2.63,6.8,3.93a.24.24,0,0,1,.08.09.21.21,0,0,1,0,.11l-.16.64h0c-.07.31-.13.62-.19.94-.1.55-.18,1.08-.25,1.6s-.11,1.06-.14,1.61-.05,1.1-.05,1.63,0,1.07.05,1.63.08,1.09.14,1.61.15,1.06.25,1.6.21,1.07.34,1.58a.25.25,0,0,1,0,.12.16.16,0,0,1-.09.09c-2.5,1.34-5,2.91-7.5,4.33l.09.11-.08.09a2.57,2.57,0,0,0-.41.85,2.4,2.4,0,0,0-.06.93,2.36,2.36,0,0,0,.3.88l5.17,9,.1-.06.16.13a2.35,2.35,0,0,0,.84.41,2.4,2.4,0,0,0,.93.07,2.5,2.5,0,0,0,.86-.29c2.26-1.2,4.59-2.65,6.83-3.94a.14.14,0,0,1,.11,0,.16.16,0,0,1,.11.05,26.13,26.13,0,0,0,5.17,3.89,27.85,27.85,0,0,0,2.89,1.45,26.91,26.91,0,0,0,3,1.08.18.18,0,0,1,.13.18v7.85a2.32,2.32,0,0,0,.19.91,2.42,2.42,0,0,0,.52.78,2.38,2.38,0,0,0,.77.52,2.6,2.6,0,0,0,.92.18h9.63a2.5,2.5,0,0,0,.91-.18,2.39,2.39,0,0,0,1.3-1.3,2.31,2.31,0,0,0,.18-.91v-7.85a.21.21,0,0,1,0-.12A.17.17,0,0,1,755,305l0,0a27,27,0,0,0,3-1.07,25.42,25.42,0,0,0,5.58-3.23,28.85,28.85,0,0,0,2.47-2.1.24.24,0,0,1,.11-.06.19.19,0,0,1,.12,0l6.8,3.92a2.3,2.3,0,0,0,.88.3,2.48,2.48,0,0,0,1.77-.48,2.32,2.32,0,0,0,.6-.68c1.79-2.87,3.48-6,5.18-9l-.09-.06c0-.07,0-.15,0-.22a2.22,2.22,0,0,0-.07-.93,2.57,2.57,0,0,0-.41-.85,2.3,2.3,0,0,0-.7-.61l-6.79-3.92a.18.18,0,0,1-.08-.09.17.17,0,0,1,0-.12l.17-.72h0c.07-.29.12-.57.18-.86.1-.54.18-1.08.24-1.6s.11-1.06.15-1.61.05-1.1.05-1.63,0-1.07-.05-1.62-.08-1.1-.15-1.62-.14-1.05-.24-1.6-.22-1.07-.34-1.57a.19.19,0,0,1,0-.13.2.2,0,0,1,.09-.09l6.79-3.92a2.26,2.26,0,0,0,.69-.61,2.19,2.19,0,0,0,.41-.84,2.25,2.25,0,0,0,.07-.93,2.55,2.55,0,0,0-.29-.87c-1.62-3-3.47-6-5.18-9l-.1.06-.16-.14a2.41,2.41,0,0,0-1.77-.47,2.29,2.29,0,0,0-.88.29l-.51.29h0l-6.3,3.63a.18.18,0,0,1-.12,0,.24.24,0,0,1-.11-.06h0a26.08,26.08,0,0,0-2.47-2.1,27.66,27.66,0,0,0-2.68-1.78A25.24,25.24,0,0,0,758,255a22.85,22.85,0,0,0-3-1.08.26.26,0,0,1-.1-.07.19.19,0,0,1,0-.12V245.9a2.39,2.39,0,0,0-.18-.92,2.17,2.17,0,0,0-.53-.77,2.28,2.28,0,0,0-.77-.52,2.32,2.32,0,0,0-.91-.19h-9.63a2.41,2.41,0,0,0-1.69.71,2.36,2.36,0,0,0-.71,1.69v7.84a.16.16,0,0,1,0,.12.18.18,0,0,1-.1.07h0A26.43,26.43,0,0,0,737.21,255Z" transform="translate(-25.19 -29.15)"/><path class="cls-32" d="M86.68,52.22a4.11,4.11,0,0,1,1.37-.91,4,4,0,0,1,1.6-.32,4.13,4.13,0,0,1,1.61.32,4.06,4.06,0,0,1,1.36.91,4.36,4.36,0,0,1,.92,1.36,4.34,4.34,0,0,1,0,3.22,4.36,4.36,0,0,1-.92,1.36,4.06,4.06,0,0,1-1.36.91,4.13,4.13,0,0,1-1.61.32,4,4,0,0,1-1.6-.32,4.11,4.11,0,0,1-1.37-.91,4.2,4.2,0,0,1,0-5.94Zm1.51-.55a3.8,3.8,0,0,0-2.06,2.06,3.82,3.82,0,0,0,0,2.92,3.8,3.8,0,0,0,2.06,2.06,3.84,3.84,0,0,0,4.16-.82,4.15,4.15,0,0,0,.83-1.24,3.95,3.95,0,0,0,0-2.92,4.15,4.15,0,0,0-.83-1.24,3.83,3.83,0,0,0-4.16-.82Zm-.46-3.1a8.11,8.11,0,0,0-.78.28,7.29,7.29,0,0,0-.74.37,6.58,6.58,0,0,0-.7.47,8.3,8.3,0,0,0-.64.54.42.42,0,0,1-.25.12.5.5,0,0,1-.27-.05c-.62-.36-1.27-.71-1.88-1.08a.14.14,0,0,0-.09,0,.17.17,0,0,0-.1,0,.15.15,0,0,0-.09,0,.27.27,0,0,0-.07.08c-.45.68-.9,1.56-1.32,2.28a.17.17,0,0,0,0,.1.17.17,0,0,0,0,.1.18.18,0,0,0,0,.1.27.27,0,0,0,.08.07c.55.36,1.27.73,1.86,1.07a.41.41,0,0,1,.18.21.32.32,0,0,1,0,.09h0l0,.18a2.88,2.88,0,0,0-.09.4,3,3,0,0,0-.06.42c0,.14,0,.28,0,.42s0,.27,0,.42,0,.29,0,.42,0,.28,0,.42a5.89,5.89,0,0,0,.15.82.47.47,0,0,1,0,.29.45.45,0,0,1-.2.21l-1.65.95h0l-.19.11a.27.27,0,0,0-.08.07.18.18,0,0,0,0,.1.17.17,0,0,0,0,.1.17.17,0,0,0,0,.1L82,60.89h0l.1.17a.27.27,0,0,0,.07.08.15.15,0,0,0,.09,0,.21.21,0,0,0,.11,0,.16.16,0,0,0,.09,0c.59-.37,1.26-.72,1.87-1.08a.42.42,0,0,1,.27,0,.42.42,0,0,1,.25.12h0a8.3,8.3,0,0,0,.64.54,6.32,6.32,0,0,0,1.45.84,6.7,6.7,0,0,0,.79.28A.53.53,0,0,1,88,62a.41.41,0,0,1,.09.26v2.15a.3.3,0,0,0,0,.1.15.15,0,0,0,.06.09.16.16,0,0,0,.08.06l.1,0H91l.1,0a.24.24,0,0,0,.09-.06.35.35,0,0,0,.06-.09.3.3,0,0,0,0-.1V62.23a.44.44,0,0,1,.09-.27.46.46,0,0,1,.25-.15,7.08,7.08,0,0,0,.77-.28,6.38,6.38,0,0,0,.74-.37,5.7,5.7,0,0,0,.7-.47,6.76,6.76,0,0,0,.64-.54A.47.47,0,0,1,94.7,60a.4.4,0,0,1,.28.07l1.84,1.06a.17.17,0,0,0,.1,0,.17.17,0,0,0,.1,0,.18.18,0,0,0,.1,0l.07-.08c.43-.76.88-1.52,1.31-2.28a.3.3,0,0,0,0-.1.34.34,0,0,0,0-.1.31.31,0,0,0,0-.1l-.07-.07-1.86-1.07a.43.43,0,0,1-.19-.21.19.19,0,0,1,0-.07h0l0-.2.09-.4.06-.42c0-.14,0-.28,0-.42s0-.27,0-.42,0-.29,0-.42,0-.28,0-.42l-.06-.42-.09-.4a.4.4,0,0,1,0-.29.48.48,0,0,1,.19-.21L98.41,52a.23.23,0,0,0,.07-.07.31.31,0,0,0,0-.1.34.34,0,0,0,0-.1.3.3,0,0,0,0-.1c-.45-.67-.9-1.56-1.31-2.28l-.07-.08a.18.18,0,0,0-.1,0,.17.17,0,0,0-.1,0,.19.19,0,0,0-.1,0L95,50.3a.47.47,0,0,1-.28.05.42.42,0,0,1-.25-.12,6.64,6.64,0,0,0-.64-.55,7.05,7.05,0,0,0-.7-.46,7.33,7.33,0,0,0-1.53-.65.44.44,0,0,1-.23-.16.42.42,0,0,1-.09-.27V46a.3.3,0,0,0,0-.1.35.35,0,0,0-.06-.09.24.24,0,0,0-.09-.06l-.1,0H88.33l-.1,0a.16.16,0,0,0-.08.06.26.26,0,0,0-.08.19v2.14a.45.45,0,0,1-.1.28.43.43,0,0,1-.24.15Zm-.93-.08a7.16,7.16,0,0,0-.78.4,5.27,5.27,0,0,0-.74.49,6.22,6.22,0,0,0-.68.57l0,0h0l-1.88-1.08a.63.63,0,0,0-.23-.08.69.69,0,0,0-.25,0,.7.7,0,0,0-.23.11.77.77,0,0,0-.17.19c-.45.74-.88,1.53-1.32,2.29a.68.68,0,0,0-.08.24.69.69,0,0,0,0,.25.65.65,0,0,0,.3.4c.6.37,1.25.72,1.86,1.08l0,0v0l0,.18h0a2,2,0,0,0,0,.26c0,.14,0,.29-.07.43s0,.29,0,.44,0,.31,0,.45,0,.29,0,.44,0,.3,0,.45,0,.29.07.43a3.12,3.12,0,0,0,.09.44v0l0,0c-.68.36-1.38.79-2,1.18l0,0,0,0a.55.55,0,0,0-.11.23.69.69,0,0,0,0,.25.68.68,0,0,0,.08.24l1.42,2.46,0,0,0,0a.7.7,0,0,0,.23.11.74.74,0,0,0,.26,0,.63.63,0,0,0,.23-.08c.62-.33,1.26-.73,1.87-1.08h0l0,0a7.33,7.33,0,0,0,.68.57,5.27,5.27,0,0,0,.74.49,7.31,7.31,0,0,0,.79.4c.27.11.55.21.83.3h0a0,0,0,0,1,0,0v2.15a.66.66,0,0,0,0,.25.64.64,0,0,0,.14.22.77.77,0,0,0,.21.14.74.74,0,0,0,.25.05H91a.7.7,0,0,0,.25-.05.77.77,0,0,0,.21-.14.86.86,0,0,0,.15-.22.66.66,0,0,0,0-.25V62.23a0,0,0,0,1,0,0s0,0,0,0h0a6.75,6.75,0,0,0,.83-.29,7.31,7.31,0,0,0,.79-.4A5.92,5.92,0,0,0,94,61a7.21,7.21,0,0,0,.67-.57l0,0h0l1.86,1.08a.68.68,0,0,0,.24.08.69.69,0,0,0,.25,0,.65.65,0,0,0,.4-.3c.49-.79,1-1.65,1.42-2.45l0,0a.13.13,0,0,0,0-.06.52.52,0,0,0,0-.25.55.55,0,0,0-.11-.23.52.52,0,0,0-.19-.17L96.74,57a0,0,0,0,1,0,0,0,0,0,0,1,0,0l0-.2h0c0-.08,0-.16,0-.23s0-.3.07-.44,0-.29,0-.45,0-.3,0-.44,0-.29,0-.44,0-.3,0-.45,0-.29-.07-.44l-.09-.43a0,0,0,0,1,0,0l0,0L98.6,52.3a.52.52,0,0,0,.19-.17.49.49,0,0,0,.11-.23.52.52,0,0,0,0-.25.57.57,0,0,0-.08-.24c-.44-.82-1-1.64-1.42-2.46l0,0-.05,0a.61.61,0,0,0-.23-.11.69.69,0,0,0-.25,0,.68.68,0,0,0-.24.08l-.14.08h0l-1.73,1h0l0,0h0a6.3,6.3,0,0,0-.68-.58,7.06,7.06,0,0,0-.73-.48,8.36,8.36,0,0,0-.79-.4q-.41-.16-.84-.3h0s0,0,0,0V46a.66.66,0,0,0,0-.25.86.86,0,0,0-.15-.22.77.77,0,0,0-.21-.14.7.7,0,0,0-.25,0H88.33a.74.74,0,0,0-.25,0,.77.77,0,0,0-.21.14.67.67,0,0,0-.19.47v2.14s0,0,0,0l0,0h0A7.39,7.39,0,0,0,86.8,48.49Z" transform="translate(-25.19 -29.15)"/><path class="cls-32" d="M309,79.18Zm3.39-12.9a6.51,6.51,0,1,1-1.91,4.61,6.46,6.46,0,0,1,1.91-4.61Zm1.4-6.46A11.54,11.54,0,0,0,309,62.6a.43.43,0,0,1-.48.06l-3-1.75h0a.76.76,0,0,0-.55-.07.81.81,0,0,0-.46.35v0l-2.13,3.69a.73.73,0,0,0-.08.57.73.73,0,0,0,.35.46h0l3,1.74a.4.4,0,0,1,.18.44h0a11.85,11.85,0,0,0-.25,1.37,12.38,12.38,0,0,0,0,2.81,12.44,12.44,0,0,0,.25,1.38.39.39,0,0,1-.21.45l-3,1.73h0a.76.76,0,0,0-.35.46.72.72,0,0,0,.08.57l2.14,3.71h0a.76.76,0,0,0,1,.28l0,0,3-1.73a.41.41,0,0,1,.48.06,11.21,11.21,0,0,0,2.24,1.68,11.07,11.07,0,0,0,2.57,1.1.41.41,0,0,1,.29.38v3.49a.72.72,0,0,0,.22.53.73.73,0,0,0,.53.22h4.29a.71.71,0,0,0,.52-.22.72.72,0,0,0,.23-.53V82.34a.4.4,0,0,1,.3-.39,11.4,11.4,0,0,0,2.56-1.09A11.81,11.81,0,0,0,325,79.18a.38.38,0,0,1,.49-.05l3,1.74a.76.76,0,0,0,1-.28v0l2.13-3.69h0a.76.76,0,0,0-.28-1l-3-1.74a.4.4,0,0,1-.19-.44h0a10.48,10.48,0,0,0,.25-1.38,11,11,0,0,0,0-2.81,10,10,0,0,0-.25-1.37.42.42,0,0,1,.21-.46l3-1.73a.73.73,0,0,0,.35-.46.77.77,0,0,0-.07-.57v0l-2.13-3.69h0a.84.84,0,0,0-.46-.35.72.72,0,0,0-.57.08h0l-3,1.75a.39.39,0,0,1-.48-.07,11.44,11.44,0,0,0-2.23-1.68,11.68,11.68,0,0,0-2.57-1.09.4.4,0,0,1-.29-.39V55.94a.74.74,0,0,0-.23-.53.75.75,0,0,0-.52-.22h-4.29a.77.77,0,0,0-.53.22.73.73,0,0,0-.22.53v3.49A.4.4,0,0,1,313.8,59.82Z" transform="translate(-25.19 -29.15)"/><path class="cls-33" d="M490.76,103.73H436a7.25,7.25,0,0,0-7.23,7.23v51a.8.8,0,0,0,.5.75.79.79,0,0,0,.87-.18l12.32-12.32h48.28A7.25,7.25,0,0,0,498,143V111A7.25,7.25,0,0,0,490.76,103.73Z" transform="translate(-25.19 -29.15)"/><path class="cls-34" d="M479.52,131a4,4,0,1,0-4-4A4,4,0,0,0,479.52,131Z" transform="translate(-25.19 -29.15)"/><path class="cls-34" d="M463.39,131a4,4,0,1,0-4-4A4,4,0,0,0,463.39,131Z" transform="translate(-25.19 -29.15)"/><path class="cls-34" d="M447.26,131a4,4,0,1,0-4-4A4,4,0,0,0,447.26,131Z" transform="translate(-25.19 -29.15)"/><path class="cls-35" d="M664.68,117.43a20.54,20.54,0,0,1,3.14-6.8,11.59,11.59,0,0,1,2.17-2.3,1.43,1.43,0,0,1,.76-.29h0a1.38,1.38,0,0,1,.79.18,13.71,13.71,0,0,1,3,2.42,10.46,10.46,0,0,1,2,3,9,9,0,0,1,.75,3.56,6.93,6.93,0,0,1-.77,3.32h0l-12,20.76a6.78,6.78,0,0,1-2.49,2.36,9.21,9.21,0,0,1-3.48,1.14,10.62,10.62,0,0,1-3.59-.2,13.64,13.64,0,0,1-3.57-1.4,1.34,1.34,0,0,1-.58-.55h0a1.38,1.38,0,0,1-.17-.78h0a12.52,12.52,0,0,1,1.72-4.7,21.91,21.91,0,0,1,3.5-4.52,1.35,1.35,0,0,1,1.67-.24c.07,0,3.31,1.89,4.12.52l6.14-10.64c.34-.59-.13-1.32-.71-1.93a10.3,10.3,0,0,0-1.77-1.38,1.35,1.35,0,0,1-.59-.64,1.38,1.38,0,0,1-.07-.9Zm4.4-5.88a18.63,18.63,0,0,0-2.86,6.15,11.28,11.28,0,0,1,2,1.58c1,1,1.75,2.39.95,3.79L663,133.72c-1.45,2.45-5.36.5-6.1.1a20.47,20.47,0,0,0-3.17,4.12,11.46,11.46,0,0,0-1.5,3.94,11.67,11.67,0,0,0,3.09,1.2,9.08,9.08,0,0,0,3.07.18,7.58,7.58,0,0,0,2.88-.95,5.21,5.21,0,0,0,1.93-1.79l12-20.74h0a5.39,5.39,0,0,0,.57-2.56,7.54,7.54,0,0,0-.63-3,8.83,8.83,0,0,0-1.69-2.57,11.63,11.63,0,0,0-2.58-2.07A9.71,9.71,0,0,0,669.08,111.55Z" transform="translate(-25.19 -29.15)"/><path class="cls-32" d="M569.85,104.46,600.38,87.9a3.2,3.2,0,0,1,2.19-.33.92.92,0,0,1,.51.08,1.32,1.32,0,0,1,.25.16,3.29,3.29,0,0,1,1.5,1.41l9.73,17.94a3.25,3.25,0,0,1,.26,2.49h0a3.27,3.27,0,0,1-1.58,2l-30.52,16.56a3.33,3.33,0,0,1-2.5.26,3.27,3.27,0,0,1-2-1.58l-9.74-17.94a3.34,3.34,0,0,1-.36-2,1.1,1.1,0,0,1,.21-.76,3.27,3.27,0,0,1,1.47-1.65Zm42.8,5.11-17.11-2.68-1.77,3.94h0l0,.09h-.09v0h0l-.09.09h0l-.09.08h0l0,0h-.06l0,0h0l-.11,0h0l-.12,0h-.18l-.1,0h0l-4.26-.67-7.09,15.81a1.41,1.41,0,0,0,.44-.14l30.52-16.56a1.48,1.48,0,0,0,.36-.29Zm-16.48-4.09,16.63,2.6-9.72-17.91,0,0-6.88,15.35ZM580,125.87l6.89-15.35-16.63-2.61,0,0L580,125.87Zm12.26-16.53L601,89.83,571.13,106Z" transform="translate(-25.19 -29.15)"/></svg>