<?xml version="1.0" encoding="utf-8"?>
<!-- Generator: Adobe Illustrator 25.0.0, SVG Export Plug-In . SVG Version: 6.00 Build 0)  -->
<svg version="1.1" id="Layer_1" xmlns="http://www.w3.org/2000/svg" xmlns:xlink="http://www.w3.org/1999/xlink" x="0px" y="0px"
	 viewBox="0 0 110 110" style="enable-background:new 0 0 110 110;" xml:space="preserve">
<style type="text/css">
	.st0{display:none;}
	.st1{display:inline;fill:#FFFFFF;}
	.st2{fill:#FFFFFF;}
	.st3{display:none;fill:#FFFFFF;}
</style>
<g class="st0">
	<path class="st1" d="M5.8,60.3c0.3-0.9,0.6-1.8,1-2.6c0.9-1.8,2.3-3.2,4.2-3.9c0.7-0.3,0.8-0.7,0.8-1.3c0-10.5,0-21,0-31.5
		C11.8,12.2,18,6,26.6,6c2.4,0,4.8-0.1,7.2,0.2c5.9,0.7,10.6,4.9,12,10.6c0.2,0.7,0.4,1,1.1,1.2c6.3,1.6,10.8,7.3,10.9,13.8
		c0,1,0,1.9,0,2.9c-9.6,0-19.1,0-28.6,0c-1-7.3,2.7-14.6,11-16.9c-0.8-2.5-2.4-4.2-4.7-5.3c-0.7-0.3-1.5-0.6-2.3-0.6
		c-2.8-0.1-5.6-0.3-8.4,0.1c-4.3,0.5-7.2,4.2-7.2,8.5c0,8.3,0,16.6,0,24.9c0,2.5,0,5,0,7.6c0.4,0,0.7,0,1.1,0c12.9,0,25.8,0,38.7,0
		c0.7,0,1-0.2,1.3-0.8c1.6-3.2,4.2-4.9,7.7-4.9c3.8-0.1,7.7-0.1,11.5,0c3.6,0.1,6.3,1.8,7.9,5c0.3,0.5,0.5,0.7,1.1,0.7
		c2.7,0,5.5,0,8.2,0c4.3,0,7.8,2.7,8.7,6.7c0.9,4.1-1.1,8.1-5.1,9.9c-0.5,0.2-0.6,0.5-0.6,1c0,2.5,0,5,0,7.5c0,7.9-3.2,14-9.9,18.2
		c-0.1,0.1-0.1,0.1-0.3,0.3c1.2,1.1,2.5,2.3,3.8,3.5c-1.5,1.5-2.8,2.9-4.1,4.2c-0.1,0-0.1,0-0.2,0c-1.6-1.6-3.2-3.2-4.8-4.9
		c-0.5-0.5-0.9-0.7-1.7-0.6C79.8,99,78.6,99,77.4,99c-15,0-30,0-45,0c-1.3,0-2.6-0.2-3.9-0.3c-0.3,0-0.7,0-0.8,0.2
		c-1.7,1.7-3.5,3.5-5.2,5.2c-0.1,0-0.1,0-0.2,0c-1.3-1.4-2.6-2.7-4-4.2c1.3-1.2,2.5-2.3,3.7-3.5c-0.2-0.1-0.3-0.2-0.5-0.3
		C15,92,11.8,86,11.8,78.3c0-2.5,0-5,0-7.6c0-0.6-0.2-0.9-0.8-1.2c-2-0.8-3.4-2.2-4.3-4.1c-0.4-0.8-0.6-1.6-0.9-2.4
		C5.8,62.1,5.8,61.2,5.8,60.3z M17.5,70.3c0,3.2-0.1,6.4,0,9.5c0.3,7.3,6.6,13.4,13.8,13.4c15.7,0.1,31.4,0.1,47.1,0
		c6.8,0,12.9-5.5,13.6-12.2c0.3-3.1,0.2-6.3,0.2-9.4c0-0.4,0-0.9,0-1.3c-2,0-3.9,0-5.8,0c0,1.9,0,3.8,0,5.6c-9.6,0-19.1,0-28.8,0
		c0-1.9,0-3.8,0-5.6C44.3,70.3,30.9,70.3,17.5,70.3z M63.5,70.2c5.8,0,11.5,0,17.2,0c0-4.9,0-9.7,0-14.5c0-1.5-1.3-2.6-2.8-2.7
		c-3.9,0-7.8,0-11.7,0c-1.5,0-2.7,1.2-2.8,2.7C63.5,60.5,63.5,65.3,63.5,70.2z M57.7,58.7c-0.5,0-0.9,0-1.3,0c-10.3,0-20.6,0-31,0
		c-3.6,0-7.3,0-10.9,0c-1.3,0-2.3,0.6-2.8,1.8c-0.9,2,0.6,4,2.9,4c14.1,0,28.2,0,42.3,0c0.2,0,0.5,0,0.7-0.1
		C57.7,62.5,57.7,60.7,57.7,58.7z M35.4,29c5.4,0,10.7,0,16,0c-0.9-3.2-4.4-5.7-8.1-5.7C39.7,23.3,36.2,25.8,35.4,29z M86.6,64.5
		c3,0,6,0,9,0c1.5,0,2.7-1.4,2.7-2.8c0-1.5-1.2-2.8-2.8-2.9c-1.1,0-2.1,0-3.2,0c-1.9,0-3.8,0-5.7,0C86.6,60.7,86.6,62.5,86.6,64.5z"
		/>
	<path class="st2" d="M5.8,63c0.3,0.8,0.5,1.6,0.9,2.4c0.9,1.9,2.4,3.3,4.3,4.1c0.6,0.3,0.8,0.6,0.8,1.2c0,2.5,0,5,0,7.6
		c0,7.7,3.3,13.7,9.8,17.9c0.1,0.1,0.3,0.2,0.5,0.3c-1.2,1.2-2.5,2.3-3.7,3.5c1.4,1.5,2.7,2.9,4,4.2c-5.5,0-11,0-16.5,0
		C5.8,90.4,5.8,76.7,5.8,63z"/>
	<path class="st2" d="M22.5,104.2c1.7-1.7,3.4-3.5,5.2-5.2c0.2-0.2,0.6-0.2,0.8-0.2c1.3,0.1,2.6,0.3,3.9,0.3c15,0,30,0,45,0
		c1.2,0,2.4,0,3.5-0.2c0.7-0.1,1.2,0.1,1.7,0.6c1.6,1.6,3.2,3.2,4.8,4.9C65.7,104.2,44.1,104.2,22.5,104.2z"/>
	<path class="st2" d="M17.5,70.3c13.4,0,26.8,0,40.2,0c0,1.9,0,3.7,0,5.6c9.6,0,19.2,0,28.8,0c0-1.9,0-3.7,0-5.6c1.9,0,3.8,0,5.8,0
		c0,0.4,0,0.9,0,1.3c-0.1,3.1,0.1,6.3-0.2,9.4c-0.7,6.7-6.8,12.2-13.6,12.2c-15.7,0.1-31.4,0.1-47.1,0c-7.3,0-13.5-6.2-13.8-13.4
		C17.4,76.7,17.5,73.5,17.5,70.3z"/>
	<path class="st2" d="M63.5,70.2c0-4.9,0-9.7,0-14.5c0-1.5,1.3-2.6,2.8-2.7c3.9,0,7.8,0,11.7,0c1.5,0,2.7,1.2,2.8,2.7
		c0,4.8,0,9.6,0,14.5C75,70.2,69.3,70.2,63.5,70.2z"/>
	<path class="st2" d="M57.7,58.7c0,1.9,0,3.8,0,5.7c-0.3,0-0.5,0.1-0.7,0.1c-14.1,0-28.2,0-42.3,0c-2.3,0-3.8-2-2.9-4
		c0.5-1.2,1.5-1.8,2.8-1.8c3.6,0,7.3,0,10.9,0c10.3,0,20.6,0,31,0C56.9,58.7,57.3,58.7,57.7,58.7z"/>
	<path class="st2" d="M35.4,29c0.8-3.2,4.4-5.7,8-5.7c3.7,0,7.2,2.4,8.1,5.7C46.1,29,40.8,29,35.4,29z"/>
	<path class="st2" d="M86.6,64.5c0-2,0-3.8,0-5.7c1.9,0,3.8,0,5.7,0c1.1,0,2.1,0,3.2,0c1.6,0.1,2.8,1.4,2.8,2.9
		c0,1.5-1.2,2.8-2.7,2.8C92.6,64.5,89.6,64.5,86.6,64.5z"/>
</g>
<g>
	<path class="st3" d="M108.6,34c0,24.9,0,49.7,0,74.6c-35.7,0-71.5,0-107.2,0c0-35.7,0-71.5,0-107.2c35.7,0,71.5,0,107.2,0
		c0,8.8,0,17.6,0,26.3c-0.1-0.2-0.2-0.5-0.2-0.7c-1-5.1-5.3-8.7-10.4-8.7c-5,0-9.5,3.6-10.5,8.7c-0.4,2-0.3,4-0.3,6
		c0.1,3.5,1.7,6.3,4.5,8.3c0.6,0.4,0.8,0.8,0.8,1.5c0,10.1,0,20.1,0,30.2c0,0.8,0,1.7,0,2.5c0.1,2.8,2.2,4.9,4.9,5.2
		c2.5,0.3,4.9-1.5,5.6-4c0.2-0.7,0.2-1.4,0.2-2.2c0-10.6,0-21.1,0-31.7c0-0.7,0.3-1.1,0.8-1.6c1.1-1,2.3-2.1,3.1-3.4
		C107.8,36.8,108.1,35.3,108.6,34z M21.2,57.6c0,18.7,15.2,33.9,33.9,33.9C73.8,91.5,89,76.3,89,57.6c0-18.7-15.2-33.9-33.9-33.9
		C36.4,23.7,21.2,38.8,21.2,57.6z M7,59.5c0,2.5,0,5,0,7.5c0,2.9-0.1,5.9,0,8.8c0.1,3.2,3.1,5.4,6.2,4.9c2.7-0.5,4.4-2.7,4.4-5.6
		c0-10.6,0-21.1,0-31.7c0-0.6,0.2-1.1,0.7-1.5c3-2.7,4.6-6.1,4.6-10.1c0-3.8,0-7.5,0-11.3c0-1.5-0.6-2.1-2.1-2.1
		c-5.7,0-11.4,0-17.1,0c-1.5,0-2.1,0.7-2.2,2.2c0,3.7,0,7.5,0,11.2c0.1,4,1.6,7.4,4.6,10.1C6.8,42.3,7,42.8,7,43.6
		C6.9,48.9,7,54.2,7,59.5z"/>
	<path class="st2" d="M108.6,34c-0.5,1.3-0.8,2.8-1.5,4c-0.8,1.3-1.9,2.3-3.1,3.4c-0.5,0.5-0.8,0.9-0.8,1.6c0,10.6,0,21.1,0,31.7
		c0,0.7,0,1.5-0.2,2.2c-0.6,2.5-3.1,4.2-5.6,4c-2.8-0.3-4.8-2.4-4.9-5.2c0-0.8,0-1.7,0-2.5c0-10.1,0-20.1,0-30.2
		c0-0.7-0.2-1.1-0.8-1.5c-2.8-2-4.4-4.8-4.5-8.3c-0.1-2-0.1-4.1,0.3-6c0.9-5,5.5-8.7,10.5-8.7c5.1,0,9.4,3.6,10.4,8.7
		c0,0.2,0.1,0.5,0.2,0.7C108.6,29.8,108.6,31.9,108.6,34z M96.1,58c0,5.5,0,11.1,0,16.6c0,1.8,0.6,2.6,1.8,2.6
		c1.2,0,1.7-0.9,1.7-2.6c0-11,0-22.1,0-33.1c0-1.2,0.4-2,1.5-2.6c2.1-1,3.4-2.7,3.7-5c0.2-1.6,0.2-3.2,0.2-4.8c0-4-3.1-7.2-7-7.2
		c-3.8,0-7.1,3.2-7.2,7.1c0,1.3,0,2.5,0,3.8c0.1,2.8,1.4,4.9,3.8,6.1c1.1,0.6,1.5,1.3,1.5,2.6C96.1,47,96.1,52.5,96.1,58z"/>
	<path class="st2" d="M21.2,57.6c0-18.7,15.1-33.9,33.9-33.9C73.8,23.7,89,38.9,89,57.6c0,18.7-15.2,33.9-33.9,33.9
		C36.4,91.5,21.2,76.3,21.2,57.6z M24.8,57.6c0,16.7,13.6,30.3,30.3,30.3c16.7,0,30.3-13.6,30.3-30.3c0-16.8-13.6-30.4-30.4-30.3
		C38.3,27.3,24.8,40.8,24.8,57.6z"/>
	<path class="st2" d="M7,59.5c0-5.3,0-10.6,0-15.9c0-0.8-0.2-1.3-0.8-1.9c-3-2.7-4.5-6.1-4.6-10.1c-0.1-3.7,0-7.5,0-11.2
		c0-1.5,0.6-2.2,2.2-2.2c5.7,0,11.4,0,17.1,0c1.5,0,2.1,0.6,2.1,2.1c0,3.8,0,7.5,0,11.3c0,4-1.6,7.4-4.6,10.1
		c-0.5,0.4-0.7,0.9-0.7,1.5c0,10.6,0,21.1,0,31.7c0,3-1.7,5.1-4.4,5.6C10.1,81.2,7.1,79,7,75.8c-0.1-2.9,0-5.8,0-8.8
		C7,64.5,7,62,7,59.5z M19.4,22c-0.7,0-1.2,0-1.7,0c0,0.3,0,0.4,0,0.6c0,3.2,0,6.5,0,9.7c0,1.3-0.8,2.1-1.8,2.1
		c-1,0-1.7-0.8-1.7-2.1c0-1.8,0-3.6,0-5.3c0-1.7,0-3.3,0-5c-1.2,0-2.4,0-3.6,0c0,0.5,0,0.8,0,1.2c0,2.9,0,5.7,0,8.6
		c0,0.3,0,0.6,0,0.9c-0.1,1-0.9,1.7-1.8,1.7c-1,0-1.7-0.7-1.7-1.8c0-3.1,0-6.3,0-9.4c0-0.4,0-0.8,0-1.2c-0.7,0-1.2,0-1.7,0
		c0,0.2-0.1,0.3-0.1,0.4c0,3.2-0.1,6.4,0,9.6c0.1,3.1,1.5,5.7,4,7.6c1,0.8,1.4,1.6,1.4,2.8c0,10.7,0,21.4,0,32.1c0,0.4,0,0.8,0,1.1
		c0.1,0.9,0.7,1.5,1.6,1.5c0.9,0.1,1.6-0.3,1.8-1.2c0.1-0.4,0.1-0.9,0.1-1.3c0-10.7,0-21.5,0-32.2c0-1.2,0.3-2.1,1.4-2.8
		c2-1.5,3.4-3.5,3.7-6c0.3-2.2,0.2-4.4,0.3-6.7C19.4,25.3,19.4,23.7,19.4,22z"/>
	<path class="st3" d="M96.1,58c0-5.5,0-11,0-16.5c0-1.2-0.4-2-1.5-2.6c-2.4-1.3-3.7-3.4-3.8-6.1c0-1.3,0-2.5,0-3.8
		c0.1-3.9,3.4-7.1,7.2-7.1c3.9,0,7,3.2,7,7.2c0,1.6,0,3.2-0.2,4.8c-0.3,2.3-1.6,4-3.7,5c-1.1,0.6-1.5,1.4-1.5,2.6
		c0,11,0,22.1,0,33.1c0,1.7-0.6,2.6-1.7,2.6c-1.2,0-1.8-0.9-1.8-2.6C96.1,69,96.1,63.5,96.1,58z M98.8,37.7c2.8-1.5,4.4-3.6,4.4-6.8
		c0-3.2-1.5-5.5-4.4-7c-0.6,1-1.2,2-1.8,2.9c3.6,3.1,3.6,4.7,0,7.9C97.6,35.7,98.2,36.6,98.8,37.7z"/>
	<path class="st3" d="M24.8,57.6c0-16.8,13.5-30.3,30.3-30.3c16.8,0,30.4,13.6,30.4,30.3c0,16.7-13.6,30.3-30.3,30.3
		C38.4,87.9,24.8,74.3,24.8,57.6z M81.9,57.6c0-14.9-11.9-26.8-26.8-26.8c-14.8,0-26.7,12-26.7,26.8c0,14.7,12,26.7,26.8,26.7
		C69.9,84.3,81.9,72.3,81.9,57.6z"/>
	<path class="st3" d="M19.4,22c0,1.7,0,3.3,0,5c0,2.2,0,4.5-0.3,6.7c-0.3,2.5-1.7,4.5-3.7,6c-1,0.7-1.4,1.6-1.4,2.8
		c0,10.7,0,21.5,0,32.2c0,0.4,0,0.9-0.1,1.3c-0.3,0.9-0.9,1.3-1.8,1.2c-0.9-0.1-1.5-0.6-1.6-1.5c0-0.4,0-0.8,0-1.1
		c0-10.7,0-21.4,0-32.1c0-1.2-0.4-2.1-1.4-2.8c-2.5-1.9-3.9-4.5-4-7.6c-0.1-3.2,0-6.4,0-9.6c0-0.1,0-0.3,0.1-0.4c0.5,0,1.1,0,1.7,0
		c0,0.4,0,0.8,0,1.2c0,3.1,0,6.3,0,9.4c0,1.1,0.8,1.8,1.7,1.8c0.9,0,1.7-0.7,1.8-1.7c0-0.3,0-0.6,0-0.9c0-2.9,0-5.7,0-8.6
		c0-0.4,0-0.8,0-1.2c1.2,0,2.3,0,3.6,0c0,1.7,0,3.4,0,5c0,1.8,0,3.6,0,5.3c0,1.3,0.7,2,1.7,2.1c1.1,0,1.8-0.8,1.8-2.1
		c0-3.2,0-6.5,0-9.7c0-0.2,0-0.3,0-0.6C18.2,22,18.7,22,19.4,22z"/>
	<path class="st2" d="M98.8,37.7c-0.6-1-1.2-2-1.8-2.9c3.6-3.1,3.6-4.8,0-7.9c0.6-1,1.2-1.9,1.8-2.9c2.9,1.5,4.5,3.7,4.4,7
		C103.2,34.1,101.7,36.2,98.8,37.7z"/>
	<path class="st2" d="M81.9,57.6c0,14.7-12,26.7-26.7,26.7c-14.8,0-26.8-12-26.8-26.7c0-14.8,11.9-26.8,26.7-26.8
		C70,30.8,81.9,42.7,81.9,57.6z M56.9,80.7c6.6-0.7,11.9-3.4,16-8.3c3.1-3.7,4.9-8.1,5.3-13.1c-1.3,0-2.3,0-3.4,0c0-1.2,0-2.3,0-3.5
		c1.1,0,2.2,0,3.4,0c-0.6-6.5-3.4-11.8-8.3-16c-3.7-3.1-8.1-4.9-13.1-5.3c0,1.2,0,2.3,0,3.4c-1.2,0-2.3,0-3.6,0c0-1.2,0-2.3,0-3.4
		c-12.5,0.8-21,11.7-21.1,21.3c1.1,0,2.2,0,3.3,0c0,1.2,0,2.3,0,3.6c-1.1,0-2.2,0-3.3,0c0.5,12.1,11.7,21.2,21.2,21.1
		c0-1.1,0-2.1,0-3.2c1.2,0,2.3,0,3.5,0C56.9,78.4,56.9,79.5,56.9,80.7z"/>
	<path class="st3" d="M56.9,80.7c0-1.3,0-2.3,0-3.4c-1.2,0-2.3,0-3.5,0c0,1.1,0,2.1,0,3.2c-9.6,0.1-20.8-9-21.2-21.1
		c1.1,0,2.2,0,3.3,0c0-1.2,0-2.3,0-3.6c-1.1,0-2.2,0-3.3,0c0.2-9.6,8.6-20.4,21.1-21.3c0,1.1,0,2.2,0,3.4c1.3,0,2.4,0,3.6,0
		c0-1.1,0-2.2,0-3.4c5,0.4,9.3,2.1,13.1,5.3c4.9,4.1,7.6,9.4,8.3,16c-1.2,0-2.3,0-3.4,0c0,1.2,0,2.3,0,3.5c1.1,0,2.1,0,3.4,0
		c-0.4,5-2.1,9.4-5.3,13.1C68.8,77.3,63.5,80,56.9,80.7z M56.9,50.5c0-1.3,0-2.6,0-4c0-1.1,0-2.3-0.1-3.4c-0.1-1-0.9-1.6-1.8-1.5
		c-1,0.1-1.5,0.6-1.7,1.5c-0.1,0.3,0,0.7,0,1c0,3.8,0,7.5,0,11.3c0,1-0.2,1.8-1,2.5c-1.9,1.7-3.6,3.6-5.4,5.4c-1,1-1,2-0.3,2.8
		c0.8,0.8,1.8,0.7,2.8-0.2c2.2-2.2,4.4-4.4,6.6-6.6c0.6-0.6,0.9-1.3,0.9-2.1C56.9,54.9,56.9,52.7,56.9,50.5z"/>
	<path class="st2" d="M56.9,50.5c0,2.2,0,4.4,0,6.6c0,0.9-0.3,1.5-0.9,2.1c-2.2,2.2-4.4,4.4-6.6,6.6c-0.9,0.9-2,1-2.8,0.2
		c-0.8-0.8-0.7-1.8,0.3-2.8c1.8-1.8,3.6-3.6,5.4-5.4c0.8-0.7,1-1.5,1-2.5c0-3.8,0-7.5,0-11.3c0-0.3,0-0.7,0-1c0.1-1,0.7-1.5,1.7-1.5
		c0.9-0.1,1.7,0.6,1.8,1.5c0.1,1.1,0.1,2.3,0.1,3.4C56.9,47.8,56.9,49.2,56.9,50.5z"/>
</g>
<g class="st0">
	<path class="st2" d="M2.3,25.3c0-7.7,0-15.3,0-23c35.1,0,70.3,0,105.4,0c0,35.1,0,70.3,0,105.4c-35.1,0-70.3,0-105.4,0
		c0-7.6,0-15.2,0-22.8c0.1,0.3,0.2,0.7,0.2,1c1.6,10.3,11.2,17.4,21.6,15.7c11.2-1.8,18.2-13,15-23.8c-0.4-1.4-1.1-2.8-1.6-4.2
		c4.3-3,8.6-6,12.9-9c0.5,0.3,0.9,0.6,1.3,0.9c11.4,8,22.7,15.9,34.1,23.9c5.5,3.8,11.3,4,17.1,0.7c1.9-1.1,3.5-2.5,4.7-4.4
		c-14.6-10.2-29-20.3-43.6-30.6C78.5,44.9,93,34.7,107.7,24.4c-1.3-1.2-2.4-2.5-3.7-3.4c-5.6-4.1-12.5-4.1-18.3-0.1
		C76.8,27.1,68,33.3,59.1,39.5c-2.9,2-5.8,4.1-8.8,6.1c-4.3-3-8.6-6.1-13-9.1c0.1-0.3,0.2-0.5,0.4-0.7c2-3.8,2.6-7.8,1.8-12.1
		c-1.4-8.1-8.3-14.6-16.4-15.3c-8.7-0.8-16.6,4-19.6,11.9C3,22,2.7,23.7,2.3,25.3z"/>
	<path class="st1" d="M2.3,25.3C2.7,23.7,3,22,3.6,20.4C6.5,12.5,14.5,7.7,23.2,8.5c8,0.7,14.9,7.2,16.4,15.3
		c0.8,4.2,0.1,8.2-1.8,12.1c-0.1,0.2-0.2,0.4-0.4,0.7c4.3,3,8.6,6,13,9.1c3-2.1,5.9-4.1,8.8-6.1c8.9-6.2,17.7-12.4,26.6-18.6
		c5.8-4,12.7-4,18.3,0.1c1.3,1,2.4,2.2,3.7,3.4C93,34.7,78.5,44.9,63.9,55.1c14.6,10.2,29.1,20.4,43.6,30.6
		c-1.2,1.9-2.8,3.3-4.7,4.4c-5.8,3.3-11.6,3.1-17.1-0.7C74.3,81.4,63,73.5,51.6,65.5c-0.4-0.3-0.8-0.6-1.3-0.9c-4.3,3-8.6,6-12.9,9
		c0.6,1.4,1.2,2.8,1.6,4.2c3.2,10.8-3.9,22-15,23.8c-10.3,1.7-20-5.4-21.6-15.7c-0.1-0.3-0.1-0.7-0.2-1c0-1.2,0-2.5,0-3.7
		c0.3-1.1,0.4-2.3,0.8-3.4c3.3-11,14.9-16.4,25.4-12c0.7,0.3,1.1,0.3,1.8-0.2c4.7-3.3,9.5-6.7,14.2-10c0.3-0.2,0.5-0.4,0.8-0.6
		C45.1,55,45,54.9,45,54.9c-5-3.5-10-7-15-10.5c-0.3-0.2-0.8-0.2-1.2-0.1c-1.7,0.4-3.4,1.1-5.2,1.4C15.5,46.9,7.2,42.4,4,34.9
		C3.2,33,2.8,31,2.3,29C2.3,27.8,2.3,26.5,2.3,25.3z M21.6,36.9c5.5-0.2,9.6-5,9.2-10.2c-0.4-5.7-5-9.7-10.5-9.2
		c-5.3,0.5-9,4.9-8.9,9.9C11.6,33.5,16.6,37.2,21.6,36.9z M20.7,73.4c-5.6,0.2-9.5,5-9.3,9.9c0.3,5.8,4.9,9.9,10.5,9.4
		c5.2-0.4,9.3-5.1,8.9-10.1C30.4,77.1,25.9,73,20.7,73.4z"/>
	<path class="st2" d="M2.3,29c0.6,2,0.9,4,1.7,5.9c3.2,7.5,11.5,12.1,19.6,10.8c1.8-0.3,3.5-1,5.2-1.4c0.4-0.1,0.9-0.1,1.2,0.1
		c5,3.5,10,7,15,10.5c0.1,0.1,0.1,0.1,0.3,0.3c-0.3,0.2-0.5,0.4-0.8,0.6c-4.7,3.3-9.5,6.6-14.2,10c-0.6,0.4-1.1,0.4-1.8,0.2
		c-10.6-4.4-22.1,1-25.4,12c-0.3,1.1-0.5,2.2-0.8,3.4C2.3,63.8,2.3,46.4,2.3,29z"/>
	<path class="st2" d="M21.6,36.9c-4.9,0.3-10-3.4-10.2-9.4c-0.2-5,3.6-9.5,8.9-9.9c5.5-0.5,10.1,3.5,10.5,9.2
		C31.1,31.9,27.1,36.6,21.6,36.9z"/>
	<path class="st2" d="M20.7,73.4c5.2-0.4,9.8,3.8,10.2,9.3c0.4,5-3.7,9.7-8.9,10.1c-5.6,0.4-10.2-3.6-10.5-9.4
		C11.2,78.3,15.1,73.6,20.7,73.4z"/>
</g>
</svg>
