<svg xmlns="http://www.w3.org/2000/svg" xmlns:xlink="http://www.w3.org/1999/xlink" viewBox="0 0 110 110">
    <defs>
        <path id="a" d="M.026.962H87.84v87.816H.026z"/>
    </defs>
    <g fill="none" fill-rule="evenodd">
        <path fill="#67A859" d="M57.156 98.976c23.26 0 42.119-18.859 42.119-42.12 0-23.264-18.858-42.121-42.12-42.121-23.261 0-42.12 18.857-42.12 42.121 0 23.261 18.859 42.12 42.12 42.12"/>
        <g transform="translate(13.222 11.985)">
            <mask id="b" fill="#fff">
                <use xlink:href="#a"/>
            </mask>
            <path fill="#292829" d="M43.934 4.537C21.694 4.537 3.6 22.631 3.6 44.872c0 22.239 18.093 40.332 40.333 40.332 22.239 0 40.332-18.093 40.332-40.332 0-22.24-18.093-40.335-40.332-40.335m0 84.241C19.724 88.778.026 69.081.026 44.872.026 20.66 19.723.962 43.934.962c24.21 0 43.906 19.698 43.906 43.91 0 24.209-19.696 43.906-43.906 43.906" mask="url(#b)"/>
        </g>
        <path fill="#FFF" d="M9.787 45.33c0 19.079 16.8 34.544 37.523 34.544 7.616 0 14.7-2.092 20.619-5.68l19.43 5.32a2.535 2.535 0 0 0 2.661-.874c.63-.8.718-1.896.225-2.786L81.37 59.841c2.22-4.413 3.464-9.327 3.464-14.51 0-19.078-16.799-34.544-37.524-34.544-20.724 0-37.523 15.466-37.523 34.543"/>
        <path fill="#FFCB05" d="M47.754 68.077c-2.56 0-4.64-2.1-4.64-4.681 0-2.582 2.08-4.681 4.64-4.681 2.559 0 4.64 2.1 4.64 4.68 0 2.582-2.081 4.682-4.64 4.682m4.86-23.936c-.61.421-1.03.731-1.26.926v4.892c0 2.003-1.615 3.633-3.6 3.633-1.986 0-3.602-1.63-3.602-3.633v-5.271c0-3.514 2.543-5.266 4.399-6.547 2.003-1.38 3.326-2.293 3.326-5.142 0-2.294-1.849-4.16-4.122-4.16-2.275 0-4.123 1.866-4.123 4.16 0 2.003-1.617 3.633-3.602 3.633-1.986 0-3.602-1.63-3.602-3.633 0-6.302 5.08-11.43 11.326-11.43 6.244 0 11.325 5.128 11.325 11.43.002 6.686-4.047 9.476-6.466 11.142"/>
        <path fill="#292829" d="M47.754 27.051c3.26 0 5.911 2.668 5.911 5.947 0 3.788-1.99 5.159-4.096 6.612-1.704 1.174-3.629 2.501-3.629 5.078v5.27c0 1.018.813 1.847 1.814 1.847 1 0 1.814-.829 1.814-1.847v-5.712l.623-.535c.278-.238.724-.569 1.407-1.04 2.269-1.562 5.694-3.92 5.694-9.673 0-5.316-4.28-9.64-9.538-9.64-5.26 0-9.538 4.324-9.538 9.64 0 1.019.813 1.847 1.814 1.847 1 0 1.813-.828 1.813-1.847 0-3.28 2.652-5.947 5.91-5.947m0 28.329c-2.97 0-5.388-2.433-5.388-5.422v-5.27c0-4.454 3.237-6.686 5.171-8.018 1.912-1.318 2.554-1.761 2.554-3.672 0-1.308-1.049-2.372-2.336-2.372-1.288 0-2.336 1.064-2.336 2.372 0 2.99-2.417 5.422-5.388 5.422s-5.39-2.432-5.39-5.422c0-7.287 5.884-13.215 13.114-13.215s13.112 5.928 13.112 13.215c0 7.63-4.709 10.873-7.238 12.615-.192.132-.351.245-.485.34v4.005c0 2.99-2.418 5.422-5.39 5.422m0 5.12c-1.572 0-2.852 1.3-2.852 2.896 0 1.597 1.28 2.895 2.853 2.895 1.573 0 2.852-1.298 2.852-2.895 0-1.596-1.28-2.895-2.852-2.895m0 9.364c-3.544 0-6.428-2.902-6.428-6.47 0-3.567 2.884-6.468 6.428-6.468 3.543 0 6.427 2.901 6.427 6.469 0 3.567-2.884 6.47-6.427 6.47m-.443-57.29c-19.706 0-35.736 14.693-35.736 32.754 0 18.062 16.03 32.757 35.736 32.757 7.033 0 13.842-1.875 19.69-5.422l.659-.398 20.17 5.524a.743.743 0 0 0 .852-1.071L79.348 59.88l.425-.844c2.172-4.315 3.273-8.927 3.273-13.707 0-18.061-16.03-32.755-35.735-32.755m0 69.086C25.634 81.661 8 65.363 8 45.331 8 25.297 25.634 9 47.31 9c21.676 0 39.31 16.297 39.31 36.33 0 5.026-1.088 9.885-3.237 14.455l8.426 15.202a4.308 4.308 0 0 1-.384 4.759 4.356 4.356 0 0 1-4.54 1.491l-18.698-5.12c-6.255 3.629-13.455 5.543-20.876 5.543"/>
    </g>
</svg>
