<svg xmlns="http://www.w3.org/2000/svg" xmlns:xlink="http://www.w3.org/1999/xlink" viewBox="0 0 110 110">
    <defs>
        <path id="a" d="M0 .965h87.988v87.988H0z"/>
        <path id="c" d="M.772.964h61.14v64.3H.773z"/>
    </defs>
    <g fill="none" fill-rule="evenodd">
        <path fill="#67A859" d="M54.994 97.246c23.307 0 42.203-18.896 42.203-42.203 0-23.31-18.896-42.205-42.203-42.205-23.308 0-42.203 18.895-42.203 42.205 0 23.307 18.895 42.203 42.203 42.203"/>
        <g transform="translate(11 10.083)">
            <mask id="b" fill="#fff">
                <use xlink:href="#a"/>
            </mask>
            <path fill="#292829" d="M43.994 4.546c-22.283 0-40.412 18.13-40.412 40.414 0 22.283 18.129 40.412 40.412 40.412 22.284 0 40.412-18.129 40.412-40.412 0-22.285-18.128-40.414-40.412-40.414m0 84.407C19.736 88.953 0 69.218 0 44.96 0 20.702 19.736.965 43.994.965c24.259 0 43.994 19.737 43.994 43.995S68.253 88.953 43.994 88.953" mask="url(#b)"/>
        </g>
        <path fill="#FFF" d="M52.456 87.44c17.426 0 31.553-14.126 31.553-31.55 0-17.428-14.127-31.554-31.553-31.554-17.425 0-31.552 14.126-31.552 31.554 0 17.424 14.127 31.55 31.552 31.55"/>
        <path fill="#292829" d="M52.456 26.127c-16.411 0-29.761 13.351-29.761 29.762 0 16.41 13.35 29.761 29.761 29.761 16.41 0 29.762-13.351 29.762-29.761 0-16.41-13.351-29.762-29.762-29.762m0 63.105c-18.385 0-33.344-14.957-33.344-33.343 0-18.385 14.96-33.343 33.344-33.343 18.385 0 33.343 14.958 33.343 33.343 0 18.386-14.958 33.343-33.343 33.343"/>
        <path fill="#FFCB05" d="M60.092 73.6a6.016 6.016 0 0 1-4.801-2.402L39.854 50.703c-2.008-2.667-1.485-6.464 1.166-8.481a6 6 0 0 1 8.437 1.172l10.154 13.48L85.148 15.65a6.011 6.011 0 0 1 8.297-1.94c2.824 1.767 3.687 5.5 1.927 8.34L65.206 70.745a6.017 6.017 0 0 1-4.839 2.85c-.092.002-.183.004-.275.004"/>
        <g transform="translate(36.116 10.083)">
            <mask id="d" fill="#fff">
                <use xlink:href="#c"/>
            </mask>
            <path fill="#292829" d="M8.563 32.702a4.17 4.17 0 0 0-2.537.862 4.28 4.28 0 0 0-.818 5.965l15.414 20.47a4.241 4.241 0 0 0 3.365 1.684l.16-.003a4.224 4.224 0 0 0 3.422-1.998l30.123-48.628c1.237-1.995.63-4.626-1.351-5.867a4.178 4.178 0 0 0-3.183-.53 4.195 4.195 0 0 0-2.63 1.891L23.65 49.94 11.937 34.386a4.2 4.2 0 0 0-3.374-1.684zm15.424 32.563a7.84 7.84 0 0 1-6.224-3.11L2.348 41.685c-2.592-3.438-1.915-8.36 1.508-10.97a7.73 7.73 0 0 1 5.777-1.52 7.755 7.755 0 0 1 5.164 3.037l8.566 11.37 24.119-38.94a7.762 7.762 0 0 1 4.864-3.494 7.751 7.751 0 0 1 5.894.983c3.65 2.283 4.769 7.123 2.496 10.79L30.614 61.567a7.79 7.79 0 0 1-6.27 3.69l-.357.008z" mask="url(#d)"/>
        </g>
    </g>
</svg>
