<svg xmlns="http://www.w3.org/2000/svg" xmlns:xlink="http://www.w3.org/1999/xlink" viewBox="0 0 110 110">
    <defs>
        <path id="a" d="M0 .977h89.023V90H0z"/>
    </defs>
    <g fill="none" fill-rule="evenodd">
        <path fill="#67A859" d="M54.512 97.33c23.581 0 42.7-19.118 42.7-42.7 0-23.583-19.119-42.7-42.7-42.7-23.582 0-42.7 19.117-42.7 42.7 0 23.582 19.118 42.7 42.7 42.7"/>
        <g transform="translate(10 9.14)">
            <mask id="b" fill="#fff">
                <use xlink:href="#a"/>
            </mask>
            <path fill="#292829" d="M44.512 4.6C21.966 4.6 3.624 22.943 3.624 45.49c0 22.545 18.342 40.887 40.888 40.887S85.4 68.034 85.4 45.49C85.4 22.943 67.058 4.6 44.512 4.6m0 85.4C19.968 90 0 70.032 0 45.489 0 20.945 19.968.977 44.512.977s44.51 19.968 44.51 44.512c0 24.543-19.966 44.51-44.51 44.51" mask="url(#b)"/>
        </g>
        <path fill="#D5CEC1" d="M77.716 75.153l14.076-9.176v-9.838c0-5.052-2.967-9.399-7.223-11.336l-10.083.056c-4.193 1.965-7.102 6.277-7.102 11.28v10.012"/>
        <path fill="#BCA993" d="M79.754 43.163c7.267 0 13.158-5.89 13.158-13.157 0-7.268-5.891-13.158-13.158-13.158-7.266 0-13.157 5.89-13.157 13.158 0 7.266 5.891 13.157 13.157 13.157"/>
        <path fill="#BCA993" d="M79.754 49.77c3.05 0 5.523-2.32 5.523-5.183s-2.472-5.185-5.523-5.185c-3.05 0-5.523 2.322-5.523 5.185 0 2.863 2.474 5.184 5.523 5.184"/>
        <path fill="#927A5D" d="M68.844 24.718l4.993-.118 5.744-1.82 5.172-2.382 3.3 3.615s2.642 1.527 4.858.352c0-5.968-5.89-10.807-13.157-10.807-7.266 0-13.156 4.839-13.156 10.807l2.246.353z"/>
        <path fill="#323031" d="M68.224 22.771c2.04.454 6.458.834 12.214-2.119 2.814-1.443 4.198-1.82 5.284-1.431.965.346 1.32 1.163 1.58 1.76.306.706.549 1.264 1.739 1.667.802.271 1.594.296 2.207.247-1.326-5.458-5.329-8.333-11.65-8.333-6.326 0-10.147 2.76-11.374 8.209zm3 2.991c-2.487 0-4.227-.508-4.991-.788a1.336 1.336 0 0 1-.864-1.452c1.128-7.5 6.181-11.63 14.228-11.63 8.171 0 13.335 4.212 14.542 11.86a1.334 1.334 0 0 1-.894 1.472c-.101.034-2.502.82-5.06-.047-2.312-.783-2.95-2.254-3.332-3.132-.04-.091-.088-.2-.13-.288-.314.043-1.116.27-3.065 1.271-4.163 2.137-7.738 2.734-10.434 2.734zM79.587 51.582c-3.514 0-6.372-3.573-6.372-7.966 0-.128 0-.252.006-.377a1.345 1.345 0 0 1 1.385-1.283 1.335 1.335 0 0 1 1.283 1.385l-.004.275c0 2.871 1.695 5.297 3.702 5.297 2.007 0 3.702-2.426 3.702-5.297l-.004-.236a1.338 1.338 0 0 1 1.29-1.38c.713.006 1.354.554 1.38 1.29.004.109.005.218.005.326 0 4.393-2.86 7.966-6.373 7.966"/>
        <path fill="#323031" d="M67.383 67.484a1.335 1.335 0 0 1-1.335-1.335V56.14c0-5.347 3.09-10.25 7.871-12.492a1.333 1.333 0 0 1 1.776.643 1.333 1.333 0 0 1-.643 1.774c-3.847 1.806-6.334 5.76-6.334 10.075v10.01c0 .737-.598 1.334-1.335 1.334M77.717 76.488a1.336 1.336 0 0 1-.73-2.454l13.47-8.78v-9.115c0-4.369-2.529-8.341-6.442-10.121a1.334 1.334 0 1 1 1.107-2.43c4.863 2.212 8.005 7.138 8.005 12.551v9.838c0 .45-.227.871-.606 1.119l-14.076 9.176a1.319 1.319 0 0 1-.728.216"/>
        <path fill="#323031" d="M72.66 71.272a1.336 1.336 0 0 1-.729-2.453l11.936-7.783a1.335 1.335 0 1 1 1.458 2.238l-11.937 7.782a1.319 1.319 0 0 1-.727.216"/>
        <path fill="#323031" d="M79.317 66.73c-.25 0-.504-.07-.728-.216l-4.97-3.24a1.335 1.335 0 1 1 1.458-2.238l4.97 3.24a1.336 1.336 0 0 1-.73 2.454M79.588 44.645c-7.831 0-14.202-6.37-14.202-14.202 0-2.047.425-4.023 1.267-5.872a1.335 1.335 0 1 1 2.43 1.107 11.444 11.444 0 0 0-1.028 4.765c0 6.36 5.173 11.533 11.533 11.533 6.358 0 11.531-5.173 11.531-11.533 0-1.608-.325-3.161-.965-4.621A1.335 1.335 0 0 1 92.6 24.75a14.09 14.09 0 0 1 1.188 5.693c0 7.831-6.37 14.202-14.201 14.202"/>
        <path fill="#927A5D" d="M21.005 44.54l-3.867-.262-1.275-17.464c0-10.046 6.684-16.48 14.93-16.48 8.243 0 14.927 6.434 14.927 16.48l-1.274 17.464-3.953.263"/>
        <path fill="#FFCB05" d="M28.994 77.496l13.95-9V51.972c0-4.956-2.94-9.218-7.159-11.12l-10.434.061c-3.962 1.92-6.71 6.13-6.71 11.014v16.622l10.353 8.948z"/>
        <path fill="#F69E91" d="M35.235 39.705v1.892l-4.399 6.195-4.203-6.195v-1.892l4.302.536z"/>
        <path fill="#F69E91" d="M18.176 28.162c.268 6.716 5.814 12.078 12.616 12.078 6.842 0 12.414-5.427 12.62-12.2 0 0-8.921-3.073-8.921-10.613 0 7.54-16.315 10.735-16.315 10.735"/>
        <path fill="#323031" d="M21.007 45.876l-.092-.003-3.868-.263a1.335 1.335 0 0 1-1.242-1.235L14.53 26.911c-.003-10.42 6.837-17.91 16.262-17.91 9.424 0 16.264 7.49 16.264 17.813l-1.278 17.561a1.335 1.335 0 0 1-1.244 1.235l-3.953.263a1.334 1.334 0 1 1-.177-2.664l2.795-.186 1.19-16.307c-.003-8.677-5.72-15.047-13.597-15.047s-13.595 6.37-13.595 15.145l1.187 16.211 2.712.184a1.335 1.335 0 0 1-.089 2.667"/>
        <path fill="#323031" d="M19.608 29.212c.76 5.516 5.474 9.693 11.184 9.693 5.832 0 10.595-4.319 11.22-9.99-1.876-.828-5.962-3.015-7.856-7.004-1.47 1.84-3.908 3.491-7.298 4.94-2.87 1.225-5.71 1.991-7.25 2.36m11.184 12.365c-7.523 0-13.651-5.868-13.95-13.36a1.337 1.337 0 0 1 1.077-1.364c4.239-.834 15.236-4.149 15.236-9.425a1.336 1.336 0 0 1 2.671 0c0 6.481 7.941 9.323 8.022 9.35.55.192.916.72.898 1.303-.23 7.567-6.359 13.496-13.954 13.496"/>
        <path fill="#323031" d="M18.64 69.881a1.335 1.335 0 0 1-1.335-1.335v-16.62c0-5.224 2.93-10.019 7.464-12.215a1.336 1.336 0 0 1 1.165 2.403c-3.62 1.754-5.958 5.604-5.958 9.812v16.62c0 .738-.598 1.335-1.335 1.335M28.995 78.83a1.335 1.335 0 0 1-.726-2.456l13.34-8.605V51.97c0-4.27-2.501-8.157-6.372-9.903a1.334 1.334 0 1 1 1.096-2.434c4.828 2.176 7.947 7.018 7.947 12.337v16.527c0 .454-.23.875-.612 1.122l-13.95 8.999a1.327 1.327 0 0 1-.723.213"/>
        <path fill="#323031" d="M23.151 74.14a1.335 1.335 0 0 1-.725-2.457l11.83-7.631a1.333 1.333 0 0 1 1.845.398c.4.62.223 1.446-.398 1.846l-11.829 7.63a1.327 1.327 0 0 1-.723.213M27.398 44.967l-.013 2.609 1.376-.443-1.363-2.166zm-1.356 5.78a1.333 1.333 0 0 1-1.335-1.342l.042-9.042a1.339 1.339 0 0 1 .969-1.278 1.34 1.34 0 0 1 1.497.574l4.721 7.507c.22.348.266.78.124 1.167a1.33 1.33 0 0 1-.845.814l-4.763 1.535a1.33 1.33 0 0 1-.41.065z"/>
        <path fill="#323031" d="M32.83 47.133l1.375.443-.011-2.61-1.363 2.167zm2.72 3.614a1.33 1.33 0 0 1-.41-.064l-4.763-1.536a1.333 1.333 0 0 1-.722-1.981l4.722-7.507a1.338 1.338 0 0 1 1.497-.574c.57.164.966.685.969 1.278l.042 9.042a1.334 1.334 0 0 1-1.335 1.342z"/>
        <path fill="#323031" d="M30.836 68.895A1.335 1.335 0 0 1 29.5 67.56V48.495a1.335 1.335 0 0 1 2.67 0V67.56c0 .738-.598 1.335-1.335 1.335M38.739 55.396h-3.477a1.335 1.335 0 1 1 0-2.67h3.477a1.335 1.335 0 1 1 0 2.67"/>
        <path fill="#FFF" d="M42.892 40.575c0-.444.165-.889.497-1.228.331-.339.763-.509 1.197-.509H68.78c.435 0 .869.17 1.199.51.33.338.496.783.496 1.227v34.549c0 .445-.166.89-.496 1.228a1.67 1.67 0 0 1-1.199.51H44.586c-.434 0-.866-.171-1.197-.51a1.751 1.751 0 0 1-.497-1.228V40.575z"/>
        <path fill="#323031" d="M44.627 40.22a.325.325 0 0 0-.236.103.417.417 0 0 0-.117.295v34.465c0 .064.015.188.115.29a.324.324 0 0 0 .238.106H68.74c.09 0 .17-.035.237-.103a.422.422 0 0 0 .118-.293V40.618a.422.422 0 0 0-.118-.295.33.33 0 0 0-.237-.103H44.627zM68.74 78.148H44.627a2.973 2.973 0 0 1-2.152-.912 3.068 3.068 0 0 1-.872-2.153V40.618c0-.812.31-1.577.874-2.156a2.974 2.974 0 0 1 2.15-.912H68.74c.814 0 1.576.322 2.15.91.564.581.874 1.346.874 2.158v34.465a3.07 3.07 0 0 1-.875 2.156 2.978 2.978 0 0 1-2.15.909z"/>
        <path fill="#323031" d="M65.022 46.575h-9.317a1.335 1.335 0 1 1 0-2.67h9.317a1.335 1.335 0 1 1 0 2.67M65.022 54.96h-9.317a1.335 1.335 0 1 1 0-2.669h9.317a1.335 1.335 0 1 1 0 2.67M65.022 63.495h-9.317a1.335 1.335 0 1 1 0-2.669h9.317a1.335 1.335 0 1 1 0 2.67M65.022 71.88h-9.317a1.335 1.335 0 1 1 0-2.67h9.317a1.335 1.335 0 1 1 0 2.67M49.232 48.598c-.4 0-.782-.18-1.036-.493l-1.42-1.748a1.336 1.336 0 0 1 2.074-1.684l.23.285 1.5-2.44a1.333 1.333 0 0 1 1.836-.439c.63.386.825 1.207.44 1.836l-2.485 4.047a1.337 1.337 0 0 1-1.139.636M49.232 56.984c-.401 0-.782-.18-1.036-.494l-1.42-1.75a1.336 1.336 0 0 1 2.074-1.681l.23.285 1.5-2.44a1.333 1.333 0 0 1 1.836-.44c.63.386.825 1.208.44 1.837l-2.485 4.047c-.228.37-.619.605-1.05.634l-.089.002M49.765 61.446a.716.716 0 0 0-.716.715.716.716 0 0 0 1.432 0 .716.716 0 0 0-.716-.715m0 2.67a1.957 1.957 0 0 1-1.955-1.955c0-1.08.877-1.956 1.955-1.956s1.956.877 1.956 1.956a1.958 1.958 0 0 1-1.956 1.954M49.765 69.83a.716.716 0 1 0 0 1.433.716.716 0 0 0 0-1.432m0 2.669a1.956 1.956 0 0 1-1.955-1.954c0-1.078.877-1.955 1.955-1.955s1.956.877 1.956 1.955a1.957 1.957 0 0 1-1.956 1.954"/>
    </g>
</svg>
