<?xml version="1.0" encoding="utf-8"?>
<!-- Generator: Adobe Illustrator 25.0.0, SVG Export Plug-In . SVG Version: 6.00 Build 0)  -->
<svg version="1.1" id="Layer_1" xmlns="http://www.w3.org/2000/svg" xmlns:xlink="http://www.w3.org/1999/xlink" x="0px" y="0px"
	 viewBox="0 0 110 110" style="enable-background:new 0 0 110 110;" xml:space="preserve">
<style type="text/css">
	.st0{display:none;fill:#FFFFFF;}
	.st1{fill:#FFFFFF;}
</style>
<g>
	<path class="st0" d="M29.9,11.9c23,0,46.1,0,69.1,0c0,29,0,58.1,0,87.1c-29,0-58.1,0-87.1,0c0-29,0-58.1,0-87.1
		c5.4,0,10.8,0,16.1,0c-2.6,0.3-4.5,1.9-6.2,3.7c-2,2.1-4,4.1-6.1,6.1c-2.5,2.3-3.6,5.2-3.7,8.5c-0.2,3.8,0.6,7.4,1.8,11
		c2.8,8.2,7.3,15.3,12.5,22.1c7.1,9.2,15.4,17.2,24.9,23.9C57,91.2,63,94.7,69.7,97c3.4,1.1,6.9,2,10.5,1.8c3.4-0.1,6.3-1.2,8.7-3.8
		c2.2-2.4,4.6-4.6,6.9-6.9c0.5-0.5,1-1.1,1.5-1.7c2.2-3,2.1-7.4-0.4-10.2c-1.9-2.2-4.1-4.2-6.2-6.3c-2.3-2.3-4.5-4.6-6.9-6.8
		c-2.6-2.4-6.4-2.6-9.5-0.8c-1.9,1.1-2.8,2.8-3.6,4.7c-1.2,2.9-3.6,4.4-6.6,4.9c-2.3,0.3-4.4-0.5-6.4-1.5c-4.8-2.4-8.8-5.8-12.3-9.8
		c-2.9-3.4-5.3-7-6.5-11.4c-0.4-1.7-0.4-3.3,0.3-4.9c1-2.4,2.9-3.8,5.3-4.7c1.7-0.6,2.9-1.7,3.9-3.2c2-3.3,1.5-7.3-1.4-10.3
		c-3.9-3.9-7.8-7.8-11.7-11.7c-0.2-0.2-0.4-0.3-0.6-0.5C33.3,12.8,31.6,12.3,29.9,11.9z"/>
	<path class="st1" d="M29.9,11.9c1.7,0.4,3.4,0.9,4.8,2.1c0.2,0.2,0.4,0.3,0.6,0.5c3.9,3.9,7.8,7.8,11.7,11.7
		c2.9,2.9,3.4,6.9,1.4,10.3c-0.9,1.5-2.2,2.6-3.9,3.2c-2.4,0.9-4.2,2.3-5.3,4.7c-0.7,1.6-0.8,3.2-0.3,4.9c1.2,4.4,3.6,8,6.5,11.4
		c3.5,4,7.5,7.4,12.3,9.8c2,1,4.1,1.8,6.4,1.5c3.1-0.4,5.4-1.9,6.6-4.9c0.8-1.9,1.8-3.7,3.6-4.7c3-1.8,6.9-1.5,9.5,0.8
		c2.4,2.2,4.6,4.5,6.9,6.8c2.1,2.1,4.2,4.1,6.2,6.3c2.4,2.8,2.5,7.1,0.4,10.2c-0.4,0.6-0.9,1.2-1.5,1.7c-2.3,2.3-4.6,4.6-6.9,6.9
		c-2.4,2.5-5.3,3.6-8.7,3.8c-3.6,0.2-7.1-0.7-10.5-1.8C63,94.7,57,91.2,51.3,87.2c-9.5-6.8-17.7-14.8-24.9-23.9
		c-5.3-6.7-9.8-13.9-12.5-22.1c-1.2-3.5-2-7.2-1.8-11c0.2-3.3,1.3-6.2,3.7-8.5c2.1-2,4.1-4,6.1-6.1c1.7-1.8,3.6-3.3,6.2-3.7
		C28.7,11.9,29.3,11.9,29.9,11.9z"/>
</g>
</svg>
