<svg width="16" height="18" viewBox="0 0 16 18" fill="none" xmlns="http://www.w3.org/2000/svg">
<path d="M8.39804 16.804L8.74336 17.4697L8.74336 17.4697L8.39804 16.804ZM7.60196 16.804L7.25664 17.4697L7.25664 17.4697L7.60196 16.804ZM14.25 8C14.25 10.2364 13.111 12.0661 11.7225 13.4666C10.3347 14.8664 8.76052 15.7711 8.05271 16.1382L8.74336 17.4697C9.51848 17.0677 11.2453 16.0785 12.7877 14.5227C14.3295 12.9676 15.75 10.78 15.75 8H14.25ZM8 1.75C11.4518 1.75 14.25 4.54822 14.25 8H15.75C15.75 3.71979 12.2802 0.25 8 0.25V1.75ZM1.75 8C1.75 4.54822 4.54822 1.75 8 1.75V0.25C3.71979 0.25 0.25 3.71979 0.25 8H1.75ZM7.94729 16.1382C7.23948 15.7711 5.66527 14.8664 4.27749 13.4666C2.88902 12.0661 1.75 10.2364 1.75 8H0.25C0.25 10.78 1.67049 12.9676 3.21227 14.5227C4.75474 16.0785 6.48152 17.0677 7.25664 17.4697L7.94729 16.1382ZM8.05271 16.1382C8.01637 16.157 7.98363 16.157 7.94729 16.1382L7.25664 17.4697C7.72602 17.7132 8.27398 17.7132 8.74336 17.4697L8.05271 16.1382ZM10.25 8C10.25 9.24264 9.24264 10.25 8 10.25V11.75C10.0711 11.75 11.75 10.0711 11.75 8H10.25ZM8 5.75C9.24264 5.75 10.25 6.75736 10.25 8H11.75C11.75 5.92893 10.0711 4.25 8 4.25V5.75ZM5.75 8C5.75 6.75736 6.75736 5.75 8 5.75V4.25C5.92893 4.25 4.25 5.92893 4.25 8H5.75ZM8 10.25C6.75736 10.25 5.75 9.24264 5.75 8H4.25C4.25 10.0711 5.92893 11.75 8 11.75V10.25Z" fill="#111213"/>
</svg>
