<svg width="16" height="16" viewBox="0 0 16 16" fill="none" xmlns="http://www.w3.org/2000/svg">
<path d="M1.33325 6.00001C1.33325 5.38003 1.33325 5.07004 1.4014 4.8157C1.58633 4.12552 2.12543 3.58643 2.81561 3.40149C3.06995 3.33334 3.37994 3.33334 3.99992 3.33334H11.9999C12.6199 3.33334 12.9299 3.33334 13.1842 3.40149C13.8744 3.58643 14.4135 4.12552 14.5984 4.8157C14.6666 5.07004 14.6666 5.38003 14.6666 6.00001C14.6666 6.15501 14.6666 6.2325 14.6495 6.29609C14.6033 6.46863 14.4685 6.60341 14.296 6.64964C14.2324 6.66668 14.1549 6.66668 13.9999 6.66668H1.99992C1.84492 6.66668 1.76743 6.66668 1.70384 6.64964C1.5313 6.60341 1.39652 6.46863 1.35029 6.29609C1.33325 6.2325 1.33325 6.15501 1.33325 6.00001Z" fill="#2764CC"/>
<path fill-rule="evenodd" clip-rule="evenodd" d="M1.33325 10.6667C1.33325 12.5523 1.33325 13.4951 1.91904 14.0809C2.50482 14.6667 3.44763 14.6667 5.33325 14.6667H10.6666C12.5522 14.6667 13.495 14.6667 14.0808 14.0809C14.6666 13.4951 14.6666 12.5523 14.6666 10.6667V9C14.6666 8.52859 14.6666 8.29289 14.5201 8.14645C14.3737 8 14.138 8 13.6666 8H2.33325C1.86185 8 1.62615 8 1.4797 8.14645C1.33325 8.29289 1.33325 8.5286 1.33325 9V10.6667ZM4.66659 10C4.66659 9.845 4.66659 9.76751 4.68362 9.70392C4.72986 9.53138 4.86463 9.3966 5.03718 9.35037C5.10076 9.33333 5.17826 9.33333 5.33325 9.33333H6.66658C6.82158 9.33333 6.89908 9.33333 6.96266 9.35037C7.13521 9.3966 7.26998 9.53138 7.31622 9.70392C7.33325 9.76751 7.33325 9.845 7.33325 10C7.33325 10.155 7.33325 10.2325 7.31622 10.2961C7.26998 10.4686 7.13521 10.6034 6.96266 10.6496C6.89908 10.6667 6.82158 10.6667 6.66659 10.6667H5.33325C5.17826 10.6667 5.10076 10.6667 5.03718 10.6496C4.86463 10.6034 4.72986 10.4686 4.68362 10.2961C4.66659 10.2325 4.66659 10.155 4.66659 10ZM4.68362 12.3706C4.66659 12.4342 4.66659 12.5117 4.66659 12.6667C4.66659 12.8217 4.66659 12.8992 4.68362 12.9627C4.72986 13.1353 4.86463 13.2701 5.03718 13.3163C5.10076 13.3333 5.17826 13.3333 5.33325 13.3333H6.66659C6.82158 13.3333 6.89908 13.3333 6.96266 13.3163C7.13521 13.2701 7.26998 13.1353 7.31622 12.9627C7.33325 12.8992 7.33325 12.8217 7.33325 12.6667C7.33325 12.5117 7.33325 12.4342 7.31622 12.3706C7.26998 12.198 7.13521 12.0633 6.96266 12.017C6.89908 12 6.82158 12 6.66658 12H5.33325C5.17826 12 5.10076 12 5.03718 12.017C4.86463 12.0633 4.72986 12.198 4.68362 12.3706ZM8.66658 10C8.66658 9.845 8.66658 9.76751 8.68362 9.70392C8.72986 9.53138 8.86463 9.3966 9.03718 9.35037C9.10076 9.33333 9.17826 9.33333 9.33325 9.33333H10.6666C10.8216 9.33333 10.8991 9.33333 10.9627 9.35037C11.1352 9.3966 11.27 9.53138 11.3162 9.70392C11.3333 9.76751 11.3333 9.845 11.3333 10C11.3333 10.155 11.3333 10.2325 11.3162 10.2961C11.27 10.4686 11.1352 10.6034 10.9627 10.6496C10.8991 10.6667 10.8216 10.6667 10.6666 10.6667H9.33325C9.17826 10.6667 9.10076 10.6667 9.03718 10.6496C8.86463 10.6034 8.72986 10.4686 8.68362 10.2961C8.66658 10.2325 8.66658 10.155 8.66658 10ZM8.68362 12.3706C8.66658 12.4342 8.66658 12.5117 8.66658 12.6667C8.66658 12.8217 8.66658 12.8992 8.68362 12.9627C8.72986 13.1353 8.86463 13.2701 9.03718 13.3163C9.10076 13.3333 9.17826 13.3333 9.33325 13.3333H10.6666C10.8216 13.3333 10.8991 13.3333 10.9627 13.3163C11.1352 13.2701 11.27 13.1353 11.3162 12.9627C11.3333 12.8992 11.3333 12.8217 11.3333 12.6667C11.3333 12.5117 11.3333 12.4342 11.3162 12.3706C11.27 12.198 11.1352 12.0633 10.9627 12.017C10.8991 12 10.8216 12 10.6666 12H9.33325C9.17826 12 9.10076 12 9.03718 12.017C8.86463 12.0633 8.72986 12.198 8.68362 12.3706Z" fill="#2764CC"/>
<path d="M4.66675 2L4.66675 4" stroke="#2764CC" stroke-width="2" stroke-linecap="round"/>
<path d="M11.3333 2L11.3333 4" stroke="#2764CC" stroke-width="2" stroke-linecap="round"/>
</svg>
