<svg width="12" height="14" viewBox="0 0 12 14" fill="none" xmlns="http://www.w3.org/2000/svg">
<path fill-rule="evenodd" clip-rule="evenodd" d="M5.3 0V2.9L5.29999 2.95441C5.29991 3.37848 5.29983 3.79061 5.34553 4.13052C5.39705 4.51372 5.52257 4.951 5.88579 5.31421C6.249 5.67743 6.68628 5.80295 7.06948 5.85447C7.40939 5.90017 7.82151 5.90009 8.24558 5.90001H8.24559L8.3 5.9H11.2V9.8C11.2 11.7799 11.2 12.7698 10.5849 13.3849C9.96985 14 8.9799 14 7 14H4.2C2.2201 14 1.23015 14 0.615076 13.3849C0 12.7698 0 11.7799 0 9.8V4.2C0 2.2201 0 1.23015 0.615076 0.615076C1.23015 0 2.2201 0 4.2 0H5.3ZM7.3 0.0210841V2.9C7.3 3.39968 7.30212 3.67383 7.32769 3.86402L7.32869 3.87131L7.33598 3.87231C7.52617 3.89788 7.80033 3.9 8.3 3.9H11.1789C11.1638 3.76389 11.1379 3.65151 11.0934 3.54414C10.9869 3.28686 10.7845 3.08454 10.3799 2.6799L8.5201 0.820101C8.11546 0.415459 7.91314 0.213137 7.65586 0.106569C7.54849 0.0620971 7.43611 0.0361838 7.3 0.0210841Z" fill="#2764CC"/>
</svg>
