<svg width="22" height="22" viewBox="0 0 22 22" fill="none" xmlns="http://www.w3.org/2000/svg">
<path d="M11.0001 12.8333L10.293 13.5404L11.0001 14.2475L11.7072 13.5404L11.0001 12.8333ZM12.0001 4.58333C12.0001 4.03104 11.5524 3.58333 11.0001 3.58333C10.4478 3.58333 10.0001 4.03104 10.0001 4.58333L12.0001 4.58333ZM5.70964 8.9571L10.293 13.5404L11.7072 12.1262L7.12386 7.54289L5.70964 8.9571ZM11.7072 13.5404L16.2905 8.9571L14.8763 7.54289L10.293 12.1262L11.7072 13.5404ZM12.0001 12.8333L12.0001 4.58333L10.0001 4.58333L10.0001 12.8333L12.0001 12.8333Z" fill="#2764CC"/>
<path d="M4.58325 14.6667L4.58325 15.5833C4.58325 16.5959 5.40406 17.4167 6.41659 17.4167L15.5833 17.4167C16.5958 17.4167 17.4166 16.5959 17.4166 15.5833V14.6667" stroke="#2764CC" stroke-width="2"/>
</svg>
