<svg width="18" height="18" viewBox="0 0 18 18" fill="none" xmlns="http://www.w3.org/2000/svg">
<path fill-rule="evenodd" clip-rule="evenodd" d="M9 0C4.02944 0 0 4.02944 0 9C0 13.9706 4.02944 18 9 18H13.5C14.8978 18 15.5967 18 16.1481 17.7716C16.8831 17.4672 17.4672 16.8831 17.7716 16.1481C18 15.5967 18 14.8978 18 13.5V9C18 4.02944 13.9706 0 9 0ZM5 8C5 7.44772 5.44772 7 6 7H12C12.5523 7 13 7.44772 13 8C13 8.55228 12.5523 9 12 9H6C5.44772 9 5 8.55229 5 8ZM8 12C8 11.4477 8.44772 11 9 11H12C12.5523 11 13 11.4477 13 12C13 12.5523 12.5523 13 12 13H9C8.44772 13 8 12.5523 8 12Z" fill="white"/>
</svg>
