<svg width="24" height="24" viewBox="0 0 24 24" fill="none" xmlns="http://www.w3.org/2000/svg">
<path d="M7.67962 4.79406L7.76658 4.70711C8.1571 4.31658 8.79027 4.31658 9.18079 4.70711L11.3455 6.87184C11.736 7.26236 11.736 7.89553 11.3455 8.28605L9.81622 9.81536C9.5488 10.0828 9.4825 10.4913 9.65163 10.8296C10.6294 12.785 12.215 14.3706 14.1704 15.3484C14.5087 15.5175 14.9172 15.4512 15.1846 15.1838L16.7139 13.6545C17.1045 13.264 17.7376 13.264 18.1282 13.6545L20.2929 15.8192C20.6834 16.2097 20.6834 16.8429 20.2929 17.2334L20.2059 17.3204C18.0946 19.4317 14.752 19.6693 12.3633 17.8777L11.997 17.603C10.2535 16.2954 8.70464 14.7465 7.39699 13.003L7.12226 12.6367C5.33072 10.248 5.56827 6.90541 7.67962 4.79406Z" fill="#111213"/>
</svg>
