<svg width="16" height="16" viewBox="0 0 16 16" fill="none" xmlns="http://www.w3.org/2000/svg">
<path d="M2.67962 0.794063L2.76658 0.707107C3.1571 0.316583 3.79027 0.316582 4.18079 0.707106L6.34552 2.87184C6.73605 3.26236 6.73605 3.89553 6.34552 4.28605L4.81622 5.81536C4.5488 6.08278 4.4825 6.49132 4.65163 6.82958C5.62936 8.78504 7.21496 10.3706 9.17041 11.3484C9.50868 11.5175 9.91722 11.4512 10.1846 11.1838L11.7139 9.65448C12.1045 9.26395 12.7376 9.26395 13.1282 9.65447L15.2929 11.8192C15.6834 12.2097 15.6834 12.8429 15.2929 13.2334L15.2059 13.3204C13.0946 15.4317 9.75202 15.6693 7.3633 13.8777L6.99699 13.603C5.25346 12.2954 3.70464 10.7465 2.39699 9.00301L2.12226 8.6367C0.330722 6.24798 0.568269 2.90541 2.67962 0.794063Z" fill="#111213"/>
</svg>
