<svg width="16" height="15" viewBox="0 0 16 15" fill="none" xmlns="http://www.w3.org/2000/svg">
<path d="M14.2143 3.34579V2.19969L13.3742 2.97928L7.67138 8.27128L1.86118 2.9594L1.02381 2.19384V3.32842V12.6316V13.1316H1.52381H7.88095V13.7105H0.761905C0.698292 13.7105 0.633533 13.6845 0.582936 13.6321C0.531755 13.579 0.5 13.5034 0.5 13.4211V0.789474C0.5 0.707079 0.531755 0.63148 0.582936 0.578447C0.633534 0.526018 0.698294 0.5 0.761905 0.5H14.4762C14.5398 0.5 14.6046 0.526018 14.6552 0.578448C14.7063 0.63148 14.7381 0.707078 14.7381 0.789474V6.60526H14.2143V3.34579ZM1.91314 1.07895H0.625302L1.57575 1.94796L7.32813 7.20743L7.66799 7.51816L8.00558 7.20498L13.6749 1.9455L14.609 1.07895H13.3349H13.3341H1.91314ZM13.2143 11.8421V12.3421H13.7143H14.8226L12.9524 14.28L11.0822 12.3421H12.1905H12.6905V11.8421V9.18421H13.2143V11.8421Z" stroke="#111213"/>
</svg>
