<svg width="12" height="14" viewBox="0 0 12 14" fill="none" xmlns="http://www.w3.org/2000/svg">
<path fill-rule="evenodd" clip-rule="evenodd" d="M0.235253 4.43572C0 4.94721 0 5.5291 0 6.69289V10.3275C0 11.9438 0 12.7519 0.502103 13.254C0.941179 13.6931 1.61427 13.7482 2.85714 13.7551V9.47042C2.85714 8.44475 3.68861 7.61328 4.71429 7.61328H7.28571C8.31139 7.61328 9.14286 8.44475 9.14286 9.47042V13.7551C10.3857 13.7482 11.0588 13.6931 11.4979 13.254C12 12.7519 12 11.9438 12 10.3275V6.69289C12 5.5291 12 4.94721 11.7647 4.43572C11.5295 3.92422 11.0877 3.54553 10.2041 2.78815L9.34693 2.05345C7.7498 0.684484 6.95123 0 6 0C5.04877 0 4.2502 0.684484 2.65307 2.05345L1.79593 2.78815C0.912314 3.54553 0.470505 3.92422 0.235253 4.43572ZM7.14286 13.7561V9.61328H4.85714V13.7561H7.14286Z" fill="#2764CC"/>
</svg>
