<svg width="17" height="11" viewBox="0 0 17 11" fill="none" xmlns="http://www.w3.org/2000/svg">
<path fill-rule="evenodd" clip-rule="evenodd" d="M16.2171 5.5C16.2171 5.13766 16.0217 4.90344 15.6309 4.435C14.297 2.83593 11.47 0 8.19827 0C4.9265 0 2.09955 2.83593 0.765604 4.435C0.37483 4.90344 0.179443 5.13766 0.179443 5.5C0.179443 5.86234 0.37483 6.09656 0.765604 6.565C2.09955 8.16407 4.9265 11 8.19827 11C11.47 11 14.297 8.16407 15.6309 6.565C16.0217 6.09656 16.2171 5.86234 16.2171 5.5ZM8.19824 8.25C9.71703 8.25 10.9482 7.01878 10.9482 5.5C10.9482 3.98122 9.71703 2.75 8.19824 2.75C6.67946 2.75 5.44824 3.98122 5.44824 5.5C5.44824 7.01878 6.67946 8.25 8.19824 8.25Z" fill="#2764CC"/>
</svg>
