<?xml version="1.0" encoding="utf-8"?>
<!-- Generator: Adobe Illustrator 25.0.0, SVG Export Plug-In . SVG Version: 6.00 Build 0)  -->
<svg version="1.1" xmlns="http://www.w3.org/2000/svg" xmlns:xlink="http://www.w3.org/1999/xlink" x="0px" y="0px"
	 viewBox="0 0 110 110" style="enable-background:new 0 0 110 110;" xml:space="preserve">
<style type="text/css">
	.st0{display:none;}
	.st1{display:inline;}
	.st2{fill:#1A2E35;}
	.st3{fill:#1A716B;}
	.st4{opacity:0.4;fill:#1A2E35;}
	.st5{opacity:0.1;fill:#FFFFFF;}
	.st6{fill:#FFFFFF;}
	.st7{opacity:0.4;fill:#EF781A;}
	.st8{fill:#EF781A;}
	.st9{opacity:0.3;}
	.st10{opacity:0.8;fill:#1A2E35;}
	.st11{fill:#FFC3BD;}
	.st12{fill:#FF847F;}
	.st13{fill:#E83832;}
	.st14{opacity:0.2;fill:#E83832;}
	.st15{opacity:0.2;}
	.st16{display:inline;fill:#EF781A;stroke:#000000;stroke-width:0.25;stroke-miterlimit:10;}
	.st17{opacity:0.6;}
	.st18{fill:#007CFF;}
	.st19{opacity:0.7;fill:#FFFFFF;}
	.st20{opacity:0.1;fill:#007CFF;}
	.st21{opacity:0.4;fill:#FFFFFF;}
	.st22{fill:#CE5B51;}
	.st23{fill:#CD5B51;}
	.st24{opacity:0.5;fill:#1A716B;}
	.st25{fill:#FAFAFA;}
	.st26{opacity:0.6;fill:#007CFF;}
	.st27{fill:#BA221F;}
	.st28{opacity:0.3;fill:#FAFAFA;}
	.st29{opacity:0.5;}
</style>
<g id="plan_management" class="st0">
	<g class="st1">
		<g>
			<path class="st2" d="M95.9,57.8H32.1c-0.7,0-1.2-0.6-1.2-1.2l2.1-39.1c0-0.7,0.6-1.2,1.3-1.2h63.8c0.7,0,1.2,0.6,1.2,1.2
				l-2.1,39.1C97.1,57.3,96.5,57.8,95.9,57.8z"/>
			<path class="st2" d="M69,22.9h-6.2c-2.1,0-3.6-1.7-3.5-3.7l0.1-1.1c0.1-2,1.8-3.6,3.8-3.6h6.2c2.1,0,3.6,1.7,3.5,3.7l-0.1,1.1
				C72.7,21.3,71,22.9,69,22.9z"/>
			<polygon class="st2" points="74.6,98.4 72.7,98.4 67.2,15.3 69.2,15.3 			"/>
			<polygon class="st2" points="59.8,98.4 61.8,98.4 67.2,15.3 65.3,15.3 			"/>
			<path class="st3" d="M95.5,57.8H31.8c-0.7,0-1.2-0.6-1.2-1.2l2.1-39.1c0-0.7,0.6-1.2,1.3-1.2h63.8c0.7,0,1.2,0.6,1.2,1.2
				l-2.1,39.1C96.8,57.3,96.2,57.8,95.5,57.8z"/>
			<path class="st4" d="M32.8,56.6c-0.6,0-1-0.4-0.9-1l2-37.2c0-0.6,0.5-1,1.1-1h61.9c0.6,0,1,0.4,0.9,1l-2,37.2c0,0.6-0.5,1-1.1,1
				H32.8z"/>
			<path class="st5" d="M95,36.9H76.4c-0.5,0-0.8-0.4-0.8-0.8l0.9-16.9c0-0.1,0-0.1-0.1-0.1c-0.1,0-0.1,0.1-0.1,0.1l-0.9,16.9
				c0,0.5-0.4,0.8-0.9,0.8H55.1c-0.5,0-0.8-0.4-0.8-0.8l0.9-16.9c0-0.1,0-0.1-0.1-0.1c-0.1,0-0.1,0.1-0.1,0.1l-0.9,16.9
				c0,0.5-0.4,0.8-0.9,0.8H34.6c-0.1,0-0.1,0.1-0.1,0.1c0,0.1,0,0.1,0.1,0.1h18.6c0.5,0,0.8,0.4,0.8,0.8L53,54.9
				c0,0.1,0,0.1,0.1,0.1c0.1,0,0.1-0.1,0.1-0.1L54.2,38c0-0.5,0.4-0.8,0.9-0.8h19.4c0.5,0,0.8,0.4,0.8,0.8l-0.9,16.9
				c0,0.1,0,0.1,0.1,0.1s0.1-0.1,0.1-0.1L75.5,38c0-0.5,0.4-0.8,0.9-0.8H95c0.1,0,0.1-0.1,0.1-0.1C95.1,37,95.1,36.9,95,36.9z"/>
		</g>
		<g>
			<polygon class="st4" points="64.7,22.1 57.2,22.1 56.8,29.7 64.2,29.9 			"/>
			<path class="st6" d="M63.8,29.6c-2.5-0.1-5-0.2-7.5-0.4c0.4-2.6,0.7-5.2,0.8-7.8c2.5,0.1,5,0.2,7.6,0.4
				C64.6,24.4,64.3,27,63.8,29.6z"/>
		</g>
		<g>
			<polygon class="st7" points="73.7,27.2 66.2,27.7 66.3,35.3 73.8,35 			"/>
			<path class="st8" d="M73.4,34.7c-2.5,0.1-5,0.1-7.5,0.2c0.2-2.6,0.3-5.2,0.2-7.8c2.5-0.1,5.1-0.1,7.6-0.2
				C73.7,29.5,73.7,32.1,73.4,34.7z"/>
		</g>
		<g>
			<polygon class="st4" points="51.8,41 38,40.5 36.8,52.8 50.5,53.6 			"/>
			<path class="st6" d="M49.8,53.1c-4.6-0.4-9.2-0.7-13.8-1.1c0.9-4.2,1.6-8.3,1.9-12.5c4.6,0.4,9.3,0.7,13.9,1.1
				C51.5,44.7,50.8,48.9,49.8,53.1z"/>
		</g>
		<g class="st9">
			<path class="st2" d="M37.6,23.8L37.6,23.8c-0.4,0-0.8-0.4-0.7-0.8l0,0c0-0.4,0.4-0.8,0.8-0.8l0,0c0.4,0,0.8,0.4,0.7,0.8l0,0
				C38.4,23.5,38,23.8,37.6,23.8z"/>
			<path class="st10" d="M49.8,23.8h-9.6c-0.4,0-0.8-0.4-0.7-0.8l0,0c0-0.4,0.4-0.8,0.8-0.8h9.6c0.4,0,0.8,0.4,0.7,0.8l0,0
				C50.6,23.5,50.2,23.8,49.8,23.8z"/>
			<path class="st2" d="M37.4,27.2L37.4,27.2c-0.4,0-0.8-0.4-0.7-0.8l0,0c0-0.4,0.4-0.8,0.8-0.8l0,0c0.4,0,0.8,0.4,0.7,0.8l0,0
				C38.2,26.9,37.8,27.2,37.4,27.2z"/>
			<path class="st10" d="M51.3,27.2H40c-0.4,0-0.8-0.4-0.7-0.8l0,0c0-0.4,0.4-0.8,0.8-0.8h11.3c0.4,0,0.8,0.4,0.7,0.8l0,0
				C52.1,26.9,51.7,27.2,51.3,27.2z"/>
			<path class="st2" d="M37.2,30.6L37.2,30.6c-0.4,0-0.8-0.4-0.7-0.8l0,0c0-0.4,0.4-0.8,0.8-0.8l0,0c0.4,0,0.8,0.4,0.7,0.8l0,0
				C38,30.2,37.6,30.6,37.2,30.6z"/>
			<path class="st10" d="M45.3,30.6h-5.5c-0.4,0-0.8-0.4-0.7-0.8l0,0c0-0.4,0.4-0.8,0.8-0.8h5.5c0.4,0,0.8,0.4,0.7,0.8l0,0
				C46.1,30.2,45.8,30.6,45.3,30.6z"/>
			<path class="st10" d="M50.4,34h-5.5c-0.4,0-0.8-0.4-0.7-0.8l0,0c0-0.4,0.4-0.8,0.8-0.8h5.5c0.4,0,0.8,0.4,0.7,0.8l0,0
				C51.2,33.6,50.8,34,50.4,34z"/>
			<path class="st2" d="M37,34L37,34c-0.4,0-0.8-0.4-0.7-0.8l0,0c0-0.4,0.4-0.8,0.8-0.8l0,0c0.4,0,0.8,0.4,0.7,0.8l0,0
				C37.8,33.6,37.5,34,37,34z"/>
			<path class="st10" d="M42.2,34h-2.5c-0.4,0-0.8-0.4-0.7-0.8l0,0c0-0.4,0.4-0.8,0.8-0.8h2.5c0.4,0,0.8,0.4,0.7,0.8l0,0
				C43,33.6,42.6,34,42.2,34z"/>
		</g>
		<g>
			<polygon class="st8" points="60.8,44.1 57.1,44.1 56.6,53.4 60.3,53.4 			"/>
			<polygon class="st8" points="66.5,46 62.8,46 62.4,53.4 66.1,53.4 			"/>
			<polygon class="st8" points="72.5,41.1 68.8,41.1 68.1,53.4 71.8,53.4 			"/>
			<g>
				<path class="st6" d="M58,49.3c-0.4,0-0.7,0-1.1,0c-0.6,0-1.5-0.1-2.2-0.5c-0.1-0.1-0.2-0.2-0.1-0.3c0.1-0.1,0.2-0.2,0.3-0.1
					c0.7,0.3,1.5,0.4,2.1,0.4c4.5,0.2,8.4-0.9,12.3-3.7c0.9-0.6,2.3-1.8,3.2-3.1c0.1-0.1,0.2-0.1,0.3-0.1c0.1,0.1,0.1,0.2,0.1,0.3
					c-0.9,1.3-2.3,2.5-3.3,3.2C65.7,48.1,62.1,49.3,58,49.3z"/>
				<path class="st6" d="M73.3,43.9C73.3,43.9,73.2,43.9,73.3,43.9c-0.2-0.1-0.3-0.2-0.2-0.3c0.3-0.8,0.4-1.7,0.2-2.6
					c-0.9,0.6-1.9,1.2-3,1.6c-0.1,0-0.3,0-0.3-0.1c0-0.1,0-0.3,0.1-0.3c1.1-0.4,2.2-1,3.1-1.7c0.1,0,0.1-0.1,0.2,0
					c0.1,0,0.1,0.1,0.2,0.2c0.3,1,0.3,2.2-0.1,3.2C73.5,43.9,73.4,43.9,73.3,43.9z"/>
			</g>
		</g>
		<g>
			<path class="st8" d="M92.9,34.8H79c-0.2,0-0.5-0.1-0.6-0.3c-0.2-0.2-0.2-0.4-0.2-0.6l0.6-11.7c0-0.5,0.4-0.9,0.9-0.9h13.8
				c0.2,0,0.5,0.1,0.6,0.3c0.2,0.2,0.2,0.4,0.2,0.6l-0.6,11.7C93.8,34.4,93.3,34.8,92.9,34.8z M79.8,21.6c-0.4,0-0.7,0.3-0.7,0.6
				l-0.6,11.7c0,0.2,0,0.3,0.2,0.4c0.1,0.1,0.3,0.2,0.4,0.2h13.8c0.4,0,0.7-0.3,0.7-0.6l0.6-11.7c0-0.2,0-0.3-0.2-0.4
				c-0.1-0.1-0.3-0.2-0.4-0.2H79.8z"/>
			<path class="st8" d="M94.2,24.7H78.8c-0.1,0-0.1-0.1-0.1-0.1c0-0.1,0.1-0.1,0.1-0.1h15.3c0.1,0,0.1,0.1,0.1,0.1
				C94.3,24.6,94.2,24.7,94.2,24.7z"/>
			<path class="st8" d="M81.9,34.8C81.9,34.8,81.9,34.8,81.9,34.8c-0.1,0-0.1-0.1-0.1-0.1l0.6-10.1c0-0.1,0.1-0.1,0.1-0.1
				c0.1,0,0.1,0.1,0.1,0.1L82,34.6C82,34.7,82,34.8,81.9,34.8z"/>
			<g>
				<path class="st8" d="M92.4,25.9h-8.3c-0.1,0-0.1-0.1-0.1-0.1c0-0.1,0.1-0.1,0.1-0.1h8.3c0.1,0,0.1,0.1,0.1,0.1
					C92.5,25.8,92.5,25.9,92.4,25.9z"/>
				<path class="st8" d="M91.2,27.3H84c-0.1,0-0.1-0.1-0.1-0.1c0-0.1,0.1-0.1,0.1-0.1h7.1c0.1,0,0.1,0.1,0.1,0.1
					C91.3,27.3,91.2,27.3,91.2,27.3z"/>
				<path class="st8" d="M88.1,28.9h-4.2c-0.1,0-0.1-0.1-0.1-0.1c0-0.1,0.1-0.1,0.1-0.1h4.2c0.1,0,0.1,0.1,0.1,0.1
					C88.2,28.8,88.2,28.9,88.1,28.9z"/>
				<path class="st8" d="M88.8,31.8h-5.1c-0.1,0-0.1-0.1-0.1-0.1c0-0.1,0.1-0.1,0.1-0.1h5.1c0.1,0,0.1,0.1,0.1,0.1
					C89,31.8,88.9,31.8,88.8,31.8z"/>
				<path class="st8" d="M87.8,33.3h-4.2c-0.1,0-0.1-0.1-0.1-0.1c0-0.1,0.1-0.1,0.1-0.1h4.2c0.1,0,0.1,0.1,0.1,0.1
					C88,33.3,87.9,33.3,87.8,33.3z"/>
				<path class="st8" d="M90.3,33.3H89c-0.1,0-0.1-0.1-0.1-0.1c0-0.1,0.1-0.1,0.1-0.1h1.3c0.1,0,0.1,0.1,0.1,0.1
					C90.4,33.3,90.4,33.3,90.3,33.3z"/>
				<path class="st8" d="M91.6,30.3h-7.8c-0.1,0-0.1-0.1-0.1-0.1c0-0.1,0.1-0.1,0.1-0.1h7.8c0.1,0,0.1,0.1,0.1,0.1
					C91.8,30.3,91.7,30.3,91.6,30.3z"/>
			</g>
		</g>
		<path class="st6" d="M84.4,51.8c-1.8,0-3.3-0.5-4.2-1.5c-1-1.1-1.4-2.7-1.1-4.6c0.2-1.1,0.5-2.1,1.1-2.8c0.6-0.7,1.4-1.4,2.4-1.8
			c2.3-1,5-1,7.1,0.1c1,0.5,1.6,1.1,1.8,1.8c0,0.1,0,0.3-0.2,0.3c-0.1,0-0.3,0-0.3-0.2c-0.2-0.6-0.7-1.1-1.6-1.5
			c-2-1-4.6-1.1-6.7-0.1c-1,0.4-1.7,1-2.2,1.7c-0.5,0.7-0.9,1.5-1,2.6c-0.3,1.7,0.1,3.2,1,4.2c1.2,1.3,3.3,1.4,4.4,1.4
			c2-0.1,3.8-0.8,5-2c1.3-1.4,1.7-3.5,0.9-4.8c-0.2-0.3-0.5-0.7-1-0.8c-0.1,0-0.2-0.1-0.2-0.3c0-0.1,0.1-0.2,0.3-0.2
			c0.5,0.1,1,0.4,1.4,1c1,1.5,0.6,3.9-0.9,5.4c-1.2,1.3-3.1,2-5.3,2.2C84.7,51.7,84.6,51.8,84.4,51.8z"/>
	</g>
	<g class="st1">
		<path class="st11" d="M23.1,26.8l-0.9,1.5l-0.8,1.5c-0.5,1-1.1,2-1.6,3.1c-0.2,0.5-0.5,1-0.7,1.5l0,0.1c0,0,0,0,0,0c0,0,0,0,0,0
			c0,0,0,0.1,0,0.1c0,0.1,0,0.2,0,0.3c0.1,0.3,0.4,0.7,0.7,1.1c0.3,0.4,0.8,0.8,1.2,1.1l-0.7,1.5c-0.4-0.1-0.6-0.2-1-0.3
			c-0.3-0.1-0.6-0.3-0.9-0.5c-0.6-0.4-1.2-0.8-1.7-1.5c-0.2-0.4-0.4-0.8-0.5-1.3c0-0.3,0-0.5,0-0.8c0-0.1,0-0.3,0.1-0.4l0-0.2l0-0.1
			c0.2-0.6,0.4-1.2,0.6-1.8c0.4-1.2,1-2.3,1.5-3.4c0.3-0.5,0.6-1.1,0.9-1.6c0.3-0.5,0.6-1.1,0.9-1.6L23.1,26.8z"/>
		<path class="st11" d="M20.3,36.9l1.6-0.4l0.1,2.5c0,0-1.2,0.2-2-0.6L20.3,36.9z"/>
		<polygon class="st11" points="24,36.1 23.7,38.3 21.9,39 21.8,36.5 		"/>
		<path class="st2" d="M30.4,15c0,0.2,0.2,0.3,0.3,0.3c0.1,0,0.2-0.2,0.1-0.4c0-0.2-0.2-0.3-0.3-0.3C30.5,14.7,30.4,14.8,30.4,15z"
			/>
		<path class="st12" d="M30.6,15.3c0,0,0.6,0.9,1.1,1.3c-0.2,0.3-0.8,0.3-0.8,0.3L30.6,15.3z"/>
		<path class="st2" d="M29.6,14.2C29.6,14.2,29.6,14.1,29.6,14.2c-0.1-0.1-0.1-0.1-0.1-0.2c0.4-0.4,0.9-0.3,0.9-0.3
			c0.1,0,0.1,0.1,0.1,0.1c0,0.1-0.1,0.1-0.1,0.1l0,0C30.4,13.8,30,13.8,29.6,14.2C29.7,14.1,29.6,14.2,29.6,14.2z"/>
		<path class="st11" d="M25.5,17.4c0.3,1.6,0.6,4.5-0.5,5.5c0,0,0.4,1.6,3.4,1.6c3.2,0,1.5-1.6,1.5-1.6c-1.8-0.4-1.7-1.7-1.4-3
			L25.5,17.4z"/>
		<path class="st2" d="M24.4,23.2c-0.2-0.4-0.5-0.9,0-1.1c0.6-0.2,4.4-0.5,5.5-0.2c-0.3,0.6,0.2,1.4,0.2,1.4L24.4,23.2z"/>
		<path class="st13" d="M14.8,97.2c0.2,0,0.4,0.1,0.5,0c0,0,0.1-0.1,0-0.2c0-0.1-0.1-0.1-0.1-0.2c-0.3-0.1-1,0.1-1,0.1c0,0,0,0,0,0
			c0,0,0,0,0,0C14.4,97,14.6,97.1,14.8,97.2z M15.2,96.8C15.2,96.8,15.2,96.8,15.2,96.8c0.1,0,0.1,0.1,0.1,0.1c0,0.1,0,0.1,0,0.1
			c-0.1,0.1-0.5,0-0.9-0.1C14.6,96.9,15,96.8,15.2,96.8z"/>
		<path class="st13" d="M14.3,97C14.3,97,14.3,97,14.3,97c0.3-0.1,0.8-0.4,0.8-0.7c0,0,0-0.1-0.1-0.2c-0.1,0-0.2,0-0.2,0
			C14.4,96.3,14.3,96.9,14.3,97C14.2,96.9,14.3,97,14.3,97C14.3,97,14.3,97,14.3,97z M14.9,96.2C14.9,96.2,14.9,96.2,14.9,96.2
			C15,96.2,15,96.3,14.9,96.2c0.1,0.2-0.3,0.5-0.5,0.6c0.1-0.2,0.2-0.5,0.4-0.6C14.8,96.2,14.9,96.2,14.9,96.2z"/>
		<path class="st13" d="M30.8,97.5c0.3,0,0.5,0,0.6-0.2c0,0,0.1-0.1,0-0.2c0-0.1-0.1-0.1-0.2-0.1c-0.4-0.1-1.1,0.3-1.2,0.4
			c0,0,0,0,0,0.1c0,0,0,0,0,0C30.3,97.5,30.6,97.5,30.8,97.5z M31.2,97.1C31.2,97.1,31.2,97.1,31.2,97.1c0.1,0,0.2,0,0.2,0.1
			c0,0.1,0,0.1,0,0.1c-0.1,0.1-0.6,0.1-1.1,0.1C30.5,97.3,30.9,97.1,31.2,97.1z"/>
		<path class="st13" d="M30.2,97.5C30.2,97.5,30.2,97.5,30.2,97.5c0.3-0.1,0.8-0.6,0.8-0.8c0-0.1-0.1-0.1-0.2-0.1
			c-0.1,0-0.2,0-0.3,0.1C30.2,96.8,30.1,97.4,30.2,97.5C30.1,97.4,30.1,97.4,30.2,97.5C30.1,97.5,30.2,97.5,30.2,97.5z M30.7,96.6
			C30.7,96.6,30.7,96.6,30.7,96.6c0.1,0,0.1,0,0.1,0.1c0,0.1-0.3,0.5-0.6,0.7c0-0.2,0.1-0.5,0.3-0.7C30.6,96.6,30.6,96.6,30.7,96.6z
			"/>
		<polygon class="st11" points="27.8,97.4 29.9,97.4 30.2,92.4 28,92.4 		"/>
		<polygon class="st11" points="11.9,96.4 14,96.9 16.1,92.2 14,91.7 		"/>
		<path class="st2" d="M14.2,96.7l-2.4-0.5c-0.1,0-0.2,0-0.2,0.1L10.8,98c-0.1,0.2,0,0.4,0.2,0.4c0.8,0.2,1.2,0.2,2.3,0.4
			c0.6,0.1,2.1,0.5,3,0.7c0.9,0.2,1.2-0.7,0.8-0.8c-1.6-0.7-2.2-1.3-2.6-1.9C14.4,96.8,14.3,96.7,14.2,96.7z"/>
		<path class="st2" d="M29.9,97.2h-2.4c-0.1,0-0.2,0.1-0.2,0.1L27,99.2c0,0.2,0.1,0.4,0.3,0.4c0.9,0,2.1-0.1,3.2-0.1
			c1.3,0,2.3,0.1,3.8,0.1c0.9,0,1.1-0.9,0.8-1c-1.7-0.4-3.1-0.4-4.5-1.3C30.3,97.2,30.1,97.2,29.9,97.2z"/>
		<g>
			<path class="st13" d="M21.2,23.4c-2,0.5-3.7,5.7-3.7,5.7l4.1,3.1c0,0,1.5-1.4,2.2-4C24.4,25.5,23.3,23,21.2,23.4z"/>
			<path class="st14" d="M21.2,23.4c-2,0.5-3.7,5.7-3.7,5.7l4.1,3.1c0,0,1.5-1.4,2.2-4C24.4,25.5,23.3,23,21.2,23.4z"/>
		</g>
		<path class="st15" d="M22.9,27.2c-1.1,1.1-1.5,3.1-1.5,4.8l0.2,0.1c0,0,1.5-1.4,2.2-4c0-0.2,0.1-0.3,0.1-0.5L22.9,27.2z"/>
		<g>
			<path class="st13" d="M33.3,23.5c0,0,2.3,2.6,0.1,18.7c-3.5,0-9.9,0-11.6,0c-0.1-1.8,1-10.5-0.7-18.8c0,0,2-0.4,3.9-0.5
				c1.5-0.1,3.6-0.1,4.9,0C31.7,23.1,33.3,23.5,33.3,23.5z"/>
			<path class="st14" d="M33.3,23.5c0,0,2.3,2.6,0.1,18.7c-3.5,0-9.9,0-11.6,0c-0.1-1.8,1-10.5-0.7-18.8c0,0,2-0.4,3.9-0.5
				c1.5-0.1,3.6-0.1,4.9,0C31.7,23.1,33.3,23.5,33.3,23.5z"/>
		</g>
		<path class="st15" d="M34.3,28.5L34.3,28.5l-2.7,0.6c-0.2,1.8,1.7,3.9,2.6,4.9C34.4,31.7,34.4,29.9,34.3,28.5z"/>
		<g>
			<polygon class="st15" points="30.2,92.4 30.1,95 27.9,95 28,92.4 			"/>
			<polygon class="st15" points="14,91.7 16.1,92.2 15,94.6 12.9,94.1 			"/>
		</g>
		<path class="st11" d="M24.6,15.8c0.6,2.1,0.8,3.3,2.1,4.2c1.9,1.3,4.3-0.2,4.4-2.4c0.1-2-0.9-5-3.1-5.5
			C25.8,11.7,24.1,13.7,24.6,15.8z"/>
		<path class="st2" d="M25.6,19.2c0.9,0.5,4.1-1.2,3.4-3.7c0,0,1.2-1.5,1.1-3.1c-0.1-1.6-1.3-2.2-2.4-1.9c-1,0.3-1,0.9-1,0.9
			s-5,0.6-3.9,2.6C20.7,16.1,24.5,18.5,25.6,19.2z"/>
		<path class="st2" d="M22.9,14.1c0,0-0.6-1-1.5-0.4C21.9,13.6,22.5,13.7,22.9,14.1z"/>
		<path class="st2" d="M30,13.4c0,0,1.1-2.4-0.6-3.2C29.9,11,30.2,12.2,30,13.4z"/>
		<path class="st11" d="M28.2,15.9c0.1,0.5,0.5,1,0.9,1.3c0.6,0.4,1,0,0.9-0.6c0-0.6-0.4-1.5-1-1.7C28.4,14.7,28,15.2,28.2,15.9z"/>
		<path class="st2" d="M29.3,42.3c0,0-2.5,16.6-3.8,22.8c-1.5,6.8-9.4,29.3-9.4,29.3l-3.9-0.8c0,0,5.5-18.3,6.8-27.8
			c1-7.3,2.8-23.4,2.8-23.4H29.3z"/>
		<path class="st13" d="M17,93c0,0-0.7,1.4-0.7,1.4L12,93.5l0.4-1.3L17,93z"/>
		<path class="st9" d="M27.8,48.2c-2.8,0.6-2.5,11.2-2.2,16.6c0.8-3.9,2-11.3,2.8-16.5C28.2,48.2,28,48.1,27.8,48.2z"/>
		<path class="st2" d="M33.4,42.3c0,0,0.3,16.2,0.1,22.8c-0.2,6.9-2.6,29.4-2.6,29.4h-3.7c0,0-0.1-22.1-0.3-28.9
			c-0.2-7.4-1.1-23.3-1.1-23.3H33.4z"/>
		<polygon class="st4" points="53.8,30.9 46.3,30.9 45.9,38.5 53.4,38.7 		"/>
		<path class="st8" d="M49.9,35.7c-2.5-0.3-5-0.6-7.5-0.9c0.6-2.5,1.1-5.1,1.4-7.7c2.5,0.3,5,0.6,7.5,0.9
			C51,30.7,50.5,33.2,49.9,35.7z"/>
		<path class="st13" d="M31.6,93c0,0-0.2,1.5-0.2,1.5h-4.5l-0.1-1.4L31.6,93z"/>
		<path class="st11" d="M34.4,25.5c0.3,0.5,0.7,1.1,1.1,1.6c0.4,0.5,0.8,1.1,1.2,1.6c0.8,1,1.7,2,2.6,2.9c0.2,0.2,0.5,0.4,0.7,0.6
			l0.2,0.1c0,0-0.1,0-0.1,0c-0.1,0-0.1,0-0.1,0c0,0,0.3,0,0.5-0.1c0.2-0.1,0.5-0.2,0.7-0.4c1-0.6,2.1-1.5,3.1-2.4l1.3,1
			c-0.8,1.3-1.6,2.4-2.8,3.5c-0.3,0.3-0.6,0.5-1,0.7c-0.4,0.2-0.8,0.5-1.5,0.6c-0.3,0-0.7,0-1.1-0.1c-0.2-0.1-0.4-0.2-0.6-0.3
			l-0.3-0.2c-0.3-0.2-0.7-0.4-1-0.7c-1.2-1-2.2-2.1-3.2-3.2c-0.5-0.6-0.9-1.2-1.3-1.8c-0.4-0.6-0.8-1.2-1.2-1.9L34.4,25.5z"/>
		<g>
			<path class="st13" d="M30.1,26.8c-0.7,2.9,4.6,5.8,4.6,5.8l3.4-4c0,0-1.6-2.4-3.5-4.2C32.2,22.1,30.7,24.6,30.1,26.8z"/>
			<path class="st14" d="M30.1,26.8c-0.7,2.9,4.6,5.8,4.6,5.8l3.4-4c0,0-1.6-2.4-3.5-4.2C32.2,22.1,30.7,24.6,30.1,26.8z"/>
		</g>
		<path class="st11" d="M43.9,30l0.8-2.6l2.1,1.1c0,0-0.3,1.9-1.9,2.2L43.9,30z"/>
		<polygon class="st11" points="45.6,26.7 47.5,27.3 46.8,28.5 44.7,27.4 		"/>
	</g>
</g>
<g id="Layer_4" class="st0">
	<line class="st16" x1="99.3" y1="-1.3" x2="99.3" y2="111.3"/>
	<line class="st16" x1="10.7" y1="-1.3" x2="10.7" y2="111.3"/>
	<line class="st16" x1="-3.2" y1="99.6" x2="113.2" y2="99.6"/>
	<line class="st16" x1="-3.2" y1="10.2" x2="113.2" y2="10.2"/>
</g>
<g id="support">
	<g>
		<g>
			<rect x="14.4" y="73.2" class="st13" width="83.2" height="9.4"/>
			<rect x="79.8" y="73.2" class="st9" width="17.9" height="9.4"/>
		</g>
		<g>
			<rect x="14.4" y="82.6" class="st13" width="9.2" height="16.8"/>
			<polygon class="st9" points="14.4,82.6 14.4,83.5 20.9,85.5 20.9,99.4 23.6,99.4 23.6,82.6 			"/>
		</g>
		<g>
			<g>
				<rect x="88.5" y="82.6" class="st13" width="9.2" height="16.8"/>
				<rect x="88.5" y="82.6" class="st14" width="9.2" height="16.8"/>
			</g>
			<polygon class="st9" points="88.5,82.6 88.5,83.5 95,85.5 95,99.4 97.7,99.4 97.7,82.6 			"/>
		</g>
		<g>
			<rect x="70.6" y="82.6" class="st13" width="9.2" height="16.8"/>
			<polygon class="st9" points="70.6,82.6 70.6,83.5 77.1,85.5 77.1,99.4 79.8,99.4 79.8,82.6 			"/>
		</g>
		<g>
			<g>
				<rect x="32.3" y="82.6" class="st13" width="9.2" height="16.8"/>
				<rect x="32.3" y="82.6" class="st14" width="9.2" height="16.8"/>
			</g>
			<polygon class="st9" points="32.3,82.6 32.3,83.5 38.8,85.5 38.8,99.4 41.5,99.4 41.5,82.6 			"/>
		</g>
	</g>
	<g>
		<g>
			<g>
				<g>
					<path class="st2" d="M86.2,71.3H35.3c-0.7,0-1.2-0.6-1.2-1.2l2.1-33.3c0-0.7,0.6-1.2,1.3-1.2h50.9c0.7,0,1.2,0.6,1.2,1.2
						l-2.1,33.3C87.5,70.8,86.9,71.3,86.2,71.3z"/>
					<path class="st17" d="M86.2,71.3H35.3c-0.7,0-1.2-0.6-1.2-1.2l2.1-33.3c0-0.7,0.6-1.2,1.3-1.2h50.9c0.7,0,1.2,0.6,1.2,1.2
						l-2.1,33.3C87.5,70.8,86.9,71.3,86.2,71.3z"/>
				</g>
				<g>
					<path class="st2" d="M85.8,71.3H34.9c-0.7,0-1.2-0.6-1.2-1.2l2.1-33.3c0-0.7,0.6-1.2,1.3-1.2h50.9c0.7,0,1.2,0.6,1.2,1.2
						l-2.1,33.3C87.1,70.8,86.5,71.3,85.8,71.3z"/>
				</g>
				<g>
					<g>
						<path class="st2" d="M85.7,71.7H25.2c-0.6,0-1.1,0.3-1.3,0.8c-0.1,0.3,0.1,0.6,0.4,0.6h62.4c0.3,0,0.5-0.3,0.4-0.6
							C86.8,72.1,86.3,71.7,85.7,71.7z"/>
					</g>
					<path class="st17" d="M85.7,71.7h-8.6c-0.6,0-1.1,0.3-1.3,0.8c-0.1,0.3,0.1,0.6,0.4,0.6h10.5c0.3,0,0.5-0.3,0.4-0.6
						C86.8,72.1,86.3,71.7,85.7,71.7z"/>
					<path class="st18" d="M80.4,72.8h-2.2c-0.1,0-0.2-0.1-0.2-0.2l0,0c0-0.1,0.1-0.2,0.2-0.2h2.2c0.1,0,0.2,0.1,0.2,0.2l0,0
						C80.6,72.7,80.5,72.8,80.4,72.8z"/>
					<path class="st19" d="M51.8,72.8h-2.2c-0.1,0-0.2-0.1-0.2-0.2l0,0c0-0.1,0.1-0.2,0.2-0.2h2.2c0.1,0,0.2,0.1,0.2,0.2l0,0
						C52,72.7,51.9,72.8,51.8,72.8z"/>
					<path class="st18" d="M82.7,72.8h-1.4c-0.1,0-0.2-0.1-0.2-0.2l0,0c0-0.1,0.1-0.2,0.2-0.2h1.4c0.1,0,0.2,0.1,0.2,0.2v0
						C82.9,72.7,82.8,72.8,82.7,72.8z"/>
				</g>
				<path class="st6" d="M34.9,68.9L36.9,38c0-0.3,0.2-0.5,0.5-0.5h50.3c0.3,0,0.5,0.2,0.4,0.5l-1.9,30.9c0,0.3-0.2,0.5-0.5,0.5
					H35.4C35.1,69.4,34.9,69.2,34.9,68.9z"/>
				<path class="st20" d="M63.5,36.6L46.8,68.4H34.4c-0.3,0-0.5-0.2-0.5-0.5l1.9-30.9c0-0.3,0.2-0.5,0.5-0.5H63.5z"/>
				<polygon class="st20" points="78.2,36.6 61.4,68.4 57.5,68.4 74.3,36.6 				"/>
				<path class="st20" d="M87.1,37.1l-1.9,30.9c0,0.3-0.2,0.5-0.5,0.5h-19l16.7-31.8h4.3C86.9,36.6,87.1,36.8,87.1,37.1z"/>
				<path class="st21" d="M62.9,36.6c0,0.2-0.2,0.4-0.4,0.4c-0.2,0-0.4-0.2-0.3-0.4c0-0.2,0.2-0.4,0.4-0.4
					C62.8,36.3,62.9,36.4,62.9,36.6z"/>
			</g>
		</g>
		<g>
			<g>
				<path class="st2" d="M54.6,29.2c-1.5,1.7-2.3,6.8-1.2,9.4c1.1,2.5-11.5,5.1-1.1,9.2C62.7,51.9,71,47.1,68,42.8
					c-3-4.3,0.3-11.4-3.2-13.1C61.7,28.1,57.5,25.9,54.6,29.2z"/>
				<path class="st22" d="M51.5,49.9c-0.6,1.9-1.1,3.8-1.7,5.6c-0.6,1.9-1.2,3.7-1.9,5.6l-0.3,0.7l-0.1,0.4l0,0.1l-0.1,0.2
					c0,0.1-0.1,0.2-0.2,0.3c-0.2,0.4-0.6,0.9-1.1,1.1c-0.5,0.3-1,0.4-1.4,0.4c-0.8,0-1.4-0.2-2-0.4c-0.6-0.2-1-0.5-1.5-0.7
					c-1.8-1.1-3.4-2.4-4.8-3.9l1.2-1.4c0.4,0.2,0.8,0.5,1.2,0.8c0.4,0.3,0.8,0.5,1.2,0.7c0.8,0.5,1.7,0.9,2.5,1.3
					c0.4,0.2,0.8,0.3,1.2,0.4c0.4,0.1,0.7,0.1,0.9,0.1c0.1,0,0.1,0,0,0c-0.1,0-0.1,0.1-0.1,0.1c0,0,0,0,0,0c0,0,0,0,0,0l0-0.1
					l0.1-0.3l0.2-0.7l1.6-5.6c0.6-1.9,1.1-3.8,1.7-5.6L51.5,49.9z"/>
				<path class="st23" d="M37.4,57.9l-3.1-1.2l1.2,3.3c0,0,2.2,0.3,3-0.8l-0.7-0.9C37.8,58.1,37.6,58,37.4,57.9z"/>
				<polygon class="st23" points="31.6,57.7 32.8,60.4 35.6,60 34.3,56.7 				"/>
				<g>
					<path class="st3" d="M49.2,45.1c-1.4,0.4-2.4,6.2-2.4,6.2l3.9,2.7c0,0,3.8-5.9,2.7-7.5C52.3,44.9,51.3,44.6,49.2,45.1z"/>
					<path class="st24" d="M49.2,45.1c-1.4,0.4-2.4,6.2-2.4,6.2l3.9,2.7c0,0,3.8-5.9,2.7-7.5C52.3,44.9,51.3,44.6,49.2,45.1z"/>
				</g>
				<path class="st15" d="M49.1,47.2l3,0.7l0.3,3c-0.8,1.6-1.7,3.1-1.7,3.1l-2.4-1.6C48.5,51,48.7,48.1,49.1,47.2z"/>
				<g>
					<path class="st3" d="M49.2,45.1c0,0-1.6,0.6,1.7,20.9c5.6,0,11.3,0,14,0c-0.2-5.7-0.2-9.2,2.5-21c0,0-2.9-0.6-6-0.8
						c-2.4-0.1-4.3-0.2-6.4,0C52.3,44.5,49.2,45.1,49.2,45.1z"/>
					<path class="st24" d="M49.2,45.1c0,0-1.6,0.6,1.7,20.9c5.6,0,11.3,0,14,0c-0.2-5.7-0.2-9.2,2.5-21c0,0-2.9-0.6-6-0.8
						c-2.4-0.1-4.3-0.2-6.4,0C52.3,44.5,49.2,45.1,49.2,45.1z"/>
				</g>
				<path class="st15" d="M64.1,50.4l1.8,1.5c-0.4,2.1-0.6,3.8-0.8,5.3C64.8,55.7,63.9,51.6,64.1,50.4z"/>
				<path class="st23" d="M60.8,37c-0.4,2.1-0.8,5.8,0.6,7.2c0,0-1.3,3.1-4.9,3.1c-3.6,0-1.5-3.1-1.5-3.1c2.3-0.5,2.2-2.2,1.8-3.8
					L60.8,37z"/>
				<path class="st25" d="M61,43.4c-0.3,0.7-1.4,2.2-4.5,2.8c-0.1,0-0.2,0-0.2,0c-0.6-0.4-0.9-1.2-0.7-2.2c0.1-0.3-0.2-0.5-0.4-0.4
					c-0.3,0.1-0.6,0.3-0.7,0.4c0,0-0.1,0.1-0.1,0.1c-0.2,0.4-1.1,2.5,1.6,3.7c0,0,0.1,0,0.1,0c1.6,0,4.4-0.3,6.2-3.5
					c0.1-0.1,0.1-0.3,0-0.4c-0.2-0.2-0.6-0.5-0.8-0.7C61.3,43.2,61.1,43.3,61,43.4z"/>
				<path class="st25" d="M61.7,51.9l-3.6-0.1c-0.2,0-0.3-0.1-0.3-0.3l0-0.4c0-0.2,0.2-0.3,0.3-0.3l3.6,0.1c0.2,0,0.3,0.1,0.3,0.3
					l0,0.4C62,51.8,61.9,51.9,61.7,51.9z"/>
				<path class="st15" d="M59.2,38.4l-2.3,2c0.1,0.4,0.2,0.8,0.2,1.1c0.9-0.1,2.1-1.1,2.2-2C59.3,39,59.3,38.6,59.2,38.4z"/>
				<path class="st23" d="M63.5,33.2c-0.6,3.4-0.8,4.8-2.8,6.3c-2.9,2.3-6.9,0.8-7.3-2.7c-0.3-3.1,0.8-8.1,4.3-9
					C61.2,26.8,64.2,29.8,63.5,33.2z"/>
				<path class="st2" d="M61.6,30.7c-0.4,2.1-0.5,4.9,1.4,4.9c1.9,0,3.4-3.3,1.8-5.9C63.1,27.1,61.8,29.4,61.6,30.7z"/>
				<path class="st2" d="M64.9,30.9c0,2.3-2.9,1.2-4.2,0.2c-1.3-1-1.4-0.9-3.7-0.9c-2.4,0-2.8-0.2-3.5-1.3c-0.7-1.1-0.6-1.9,0.9-1.6
					c1.6,0.2,0.3-1.4,1.4-2.3c1.2-0.9,2.6-0.7,4.2,1.4S64.9,26.9,64.9,30.9z"/>
				<g>
					<ellipse transform="matrix(0.2813 -0.9596 0.9596 0.2813 10.8372 86.0495)" class="st6" cx="62.9" cy="35.8" rx="2" ry="1.3"/>
					<path class="st6" d="M58.7,38.7c-0.6,0-1.2-0.1-1.8-0.4c-0.1,0-0.1-0.1-0.1-0.1c0-0.1,0.1-0.1,0.1-0.1c1.1,0.5,2.3,0.5,3.4,0
						c1.1-0.4,1.9-1.3,2.3-2.3c0.8-2.3,1.6-5.2,0.7-7c-0.4-0.7-1-1.2-1.8-1.4c-0.1,0-0.1-0.1-0.1-0.1c0-0.1,0.1-0.1,0.1-0.1
						c0.9,0.2,1.6,0.7,2,1.5c1,1.9,0.2,4.8-0.7,7.1c-0.5,1.1-1.3,2-2.5,2.5C59.9,38.6,59.3,38.7,58.7,38.7z"/>
					<path class="st26" d="M64,36.2c-0.2,0.8-0.8,1.4-1.2,1.2c-0.4-0.1-0.6-0.9-0.4-1.7c0.2-0.8,0.8-1.4,1.2-1.2
						C64.1,34.6,64.2,35.3,64,36.2z"/>
					<path class="st6" d="M57,38.6l-1-0.2c-0.2,0-0.3-0.2-0.3-0.4l0,0c0-0.2,0.2-0.3,0.4-0.3l1,0.2c0.2,0,0.3,0.2,0.3,0.4l0,0
						C57.4,38.6,57.2,38.7,57,38.6z"/>
				</g>
				<path class="st27" d="M55.8,33.4c0,0-0.6,1.1-1.2,1.6c0.3,0.4,1,0.3,1,0.3L55.8,33.4z"/>
				<path class="st2" d="M56.4,36.8C56.4,36.8,56.4,36.8,56.4,36.8c1,0.1,1.7-0.5,1.7-0.5c0,0,0-0.1,0-0.1c0,0-0.1,0-0.1,0
					C58,36.2,57.3,36.8,56.4,36.8C56.4,36.7,56.4,36.7,56.4,36.8C56.4,36.8,56.4,36.8,56.4,36.8z"/>
				<path class="st2" d="M59.5,32.1C59.5,32.1,59.5,32.1,59.5,32.1c0.1,0,0.2-0.1,0.1-0.2c-0.5-0.7-1.2-0.8-1.2-0.8
					c-0.1,0-0.1,0-0.1,0.1c0,0.1,0,0.1,0.1,0.1C58.4,31.4,59,31.4,59.5,32.1C59.4,32.1,59.5,32.1,59.5,32.1z"/>
				<path class="st2" d="M57.9,33.5c0,0.3-0.2,0.5-0.4,0.4c-0.2,0-0.3-0.3-0.2-0.6s0.2-0.5,0.4-0.4S58,33.2,57.9,33.5z"/>
				<path class="st2" d="M54.8,32.9c0,0.3-0.2,0.5-0.4,0.4c-0.2,0-0.3-0.3-0.2-0.6c0-0.3,0.2-0.5,0.4-0.4S54.9,32.7,54.8,32.9z"/>
				<path class="st2" d="M54.7,32.4L54,32.1C54,32.1,54.3,32.7,54.7,32.4z"/>
				<path class="st2" d="M57.8,32.9l-0.6-0.3C57.1,32.6,57.4,33.2,57.8,32.9z"/>
				<path class="st2" d="M53.8,31.1c0,0,0.1,0,0.1,0c0.6-0.5,1.2-0.3,1.2-0.3c0.1,0,0.1,0,0.1-0.1c0-0.1,0-0.1-0.1-0.1
					c0,0-0.7-0.2-1.4,0.3C53.7,30.9,53.7,31,53.8,31.1C53.7,31.1,53.7,31.1,53.8,31.1z"/>
				<g>
					<path class="st3" d="M50.3,69.4c0,0,0-1.9,0.5-3.4c1.2,0,14,0,14,0s1.3,2,1.6,3.4C64.9,69.4,50.3,69.4,50.3,69.4z"/>
					<path class="st8" d="M65.1,65.1l0.1,1.3c0,0.1-0.1,0.2-0.2,0.2H50.8c-0.1,0-0.2-0.1-0.2-0.1l-0.1-1.3c0-0.1,0.1-0.2,0.2-0.2
						h14.2C65,65,65.1,65.1,65.1,65.1z"/>
					<path class="st28" d="M65.1,65.1l0.1,1.3c0,0.1-0.1,0.2-0.2,0.2H50.8c-0.1,0-0.2-0.1-0.2-0.1l-0.1-1.3c0-0.1,0.1-0.2,0.2-0.2
						h14.2C65,65,65.1,65.1,65.1,65.1z"/>
				</g>
				<path class="st13" d="M63.2,66.7h0.4c0.1,0,0.1,0,0.1-0.1L63.5,65c0,0-0.1-0.1-0.1-0.1H63c-0.1,0-0.1,0-0.1,0.1l0.2,1.6
					C63.1,66.7,63.1,66.7,63.2,66.7z"/>
				<path class="st13" d="M51.9,66.7h0.4c0.1,0,0.1,0,0.1-0.1L52.2,65c0,0-0.1-0.1-0.1-0.1h-0.4c-0.1,0-0.1,0-0.1,0.1l0.2,1.6
					C51.7,66.7,51.8,66.7,51.9,66.7z"/>
				<path class="st13" d="M57.5,66.7h0.4c0.1,0,0.1,0,0.1-0.1L57.9,65c0,0-0.1-0.1-0.1-0.1h-0.4c-0.1,0-0.1,0-0.1,0.1l0.2,1.6
					C57.4,66.7,57.5,66.7,57.5,66.7z"/>
			</g>
			<g>
				<path class="st22" d="M68.6,49c0.6,2,1.2,4,1.8,6l0.9,3l0.4,1.5l0.1,0.4l0.1,0.2l0,0l0,0c0,0,0,0,0,0l0-0.1c0,0-0.1-0.1-0.2-0.3
					c-0.1-0.1-0.4-0.2-0.7-0.3c-0.3,0-0.5,0.1-0.6,0.1c-0.2,0.1-0.2,0.1-0.2,0.1c0,0,0.1-0.1,0.1-0.1c0.1-0.1,0.2-0.3,0.3-0.5
					c0.2-0.4,0.5-0.8,0.7-1.3c0.5-0.9,0.9-1.8,1.3-2.8c0.4-0.9,0.8-1.9,1.2-2.9c0.4-1,0.8-1.9,1.2-2.9l1.7,0.5
					c-0.4,2.1-1,4.1-1.6,6.2c-0.3,1-0.7,2-1.1,3.1c-0.2,0.5-0.4,1-0.7,1.6c-0.1,0.3-0.3,0.5-0.5,0.8c-0.1,0.1-0.2,0.3-0.4,0.5
					c-0.2,0.2-0.3,0.4-0.8,0.6c-0.2,0.1-0.5,0.2-0.9,0.2c-0.4,0-0.8-0.2-1.1-0.4c-0.3-0.2-0.4-0.4-0.5-0.5c-0.1-0.2-0.2-0.3-0.2-0.4
					c0-0.1-0.1-0.1-0.1-0.2l0-0.1l-0.1-0.2l-0.1-0.4c-0.2-0.5-0.4-1-0.5-1.5c-0.3-1-0.7-2-1-3c-0.7-2-1.3-4-1.8-6.1L68.6,49z"/>
				<g>
					<path class="st3" d="M67.4,45c1.4,0.4,3.6,5.9,3.6,5.9l-5.5,3.9c0,0-2.5-4.7-1.9-6.5C64.3,46.4,65.8,44.5,67.4,45z"/>
					<path class="st24" d="M67.4,45c1.4,0.4,3.6,5.9,3.6,5.9l-5.5,3.9c0,0-2.5-4.7-1.9-6.5C64.3,46.4,65.8,44.5,67.4,45z"/>
				</g>
				<path class="st23" d="M75,50.1l-0.7-3.3l3.1,1.6c0,0,0,2.2-1.2,2.9L75,50.1z"/>
				<polygon class="st23" points="75.5,44.1 77.5,45.5 77.4,48.4 74.2,46.8 				"/>
			</g>
		</g>
	</g>
	<g>
		<g>
			<path class="st8" d="M19.9,27.5h21.7c1.8,0,3.1,1.4,3,3.2L44,40.6c-0.1,1.8-1.6,3.2-3.4,3.2h-2.5l1,3.4l-4.9-3.4H18.9
				c-1.8,0-3.1-1.4-3-3.2l0.6-9.8C16.6,29,18.1,27.5,19.9,27.5z"/>
			<g>
				<path class="st6" d="M39.6,32.7H21.2c-0.3,0-0.6-0.3-0.6-0.6l0,0c0-0.3,0.3-0.6,0.6-0.6h18.4c0.3,0,0.6,0.3,0.6,0.6l0,0
					C40.2,32.4,39.9,32.7,39.6,32.7z"/>
				<path class="st6" d="M28.7,36.3H21c-0.3,0-0.6-0.3-0.6-0.6l0,0c0-0.3,0.3-0.6,0.6-0.6h7.7c0.3,0,0.6,0.3,0.6,0.6l0,0
					C29.3,36,29,36.3,28.7,36.3z"/>
				<path class="st6" d="M35.3,39.9H20.8c-0.3,0-0.6-0.3-0.6-0.6l0,0c0-0.3,0.3-0.6,0.6-0.6h14.5c0.3,0,0.6,0.3,0.6,0.6l0,0
					C35.9,39.6,35.6,39.9,35.3,39.9z"/>
				<path class="st6" d="M34.4,36.3h-3c-0.3,0-0.6-0.3-0.6-0.6l0,0c0-0.3,0.3-0.6,0.6-0.6h3c0.3,0,0.6,0.3,0.6,0.6l0,0
					C35,36,34.7,36.3,34.4,36.3z"/>
			</g>
		</g>
		<g>
			<g>
				<g>
					<path class="st8" d="M50.1,9.9H38.3c-1.4,0-2.6,1.1-2.7,2.5L35.1,20c-0.1,1.4,1,2.5,2.3,2.5h2l-1.1,2.6l4.1-2.6h6.9
						c1.4,0,2.6-1.1,2.7-2.5l0.5-7.6C52.5,11,51.5,9.9,50.1,9.9z"/>
				</g>
				<g class="st29">
					<path class="st8" d="M50.1,9.9H38.3c-1.4,0-2.6,1.1-2.7,2.5L35.1,20c-0.1,1.4,1,2.5,2.3,2.5h2l-1.1,2.6l4.1-2.6h6.9
						c1.4,0,2.6-1.1,2.7-2.5l0.5-7.6C52.5,11,51.5,9.9,50.1,9.9z"/>
				</g>
			</g>
			<g>
				<path class="st6" d="M44.4,17.5c-0.1,0.3-0.4,0.6-0.8,0.6h-0.7c0-0.2,0-0.3,0-0.4c0-0.4,0.1-0.8,0.3-1.1c0.2-0.3,0.5-0.6,0.9-1
					c0.5-0.4,0.7-0.6,0.8-0.7c0.1-0.2,0.2-0.4,0.2-0.6c0-0.3-0.1-0.6-0.3-0.8c-0.2-0.2-0.5-0.3-0.9-0.3c-0.4,0-0.7,0.1-1,0.3
					c-0.2,0.1-0.3,0.3-0.4,0.5c-0.2,0.3-0.5,0.5-0.8,0.4l0,0c-0.5-0.1-0.8-0.6-0.5-1c0.2-0.3,0.4-0.5,0.6-0.7
					c0.5-0.5,1.2-0.7,2.1-0.7c0.9,0,1.6,0.2,2,0.7c0.5,0.5,0.7,1,0.7,1.6c0,0.3-0.1,0.7-0.3,1c-0.2,0.3-0.6,0.7-1.3,1.2
					c-0.3,0.3-0.6,0.5-0.6,0.6C44.4,17.2,44.4,17.3,44.4,17.5z M42.9,19.4L42.9,19.4c0-0.5,0.4-0.8,0.8-0.8h0.1
					c0.4,0,0.7,0.3,0.7,0.7l0,0.1c0,0.4-0.4,0.7-0.8,0.7h-0.1C43.1,20.1,42.8,19.8,42.9,19.4z"/>
			</g>
		</g>
	</g>
</g>
<g id="Layer_2" class="st0">
	<g id="colro_codes" class="st1">
		<text transform="matrix(1 0 0 1 112.913 54.6519)" style="font-family:'MyriadPro-Bold'; font-size:12px;">#1a716b</text>
		<text transform="matrix(1 0 0 1 114.1034 68.6733)" style="font-family:'MyriadPro-Bold'; font-size:12px;">#e83832</text>
		<text transform="matrix(1 0 0 1 116.3407 90.7915)" style="font-family:'MyriadPro-Bold'; font-size:12px;">#ef781a</text>
		<rect x="114.6" y="6.2" class="st8" width="25.1" height="23.7"/>
		<rect x="145.2" y="6.2" class="st13" width="25.1" height="23.7"/>
		<rect x="175.8" y="6.2" class="st3" width="25.1" height="23.7"/>
	</g>
</g>
</svg>
