<?xml version="1.0" encoding="utf-8"?>
<!-- Generator: Adobe Illustrator 25.0.0, SVG Export Plug-In . SVG Version: 6.00 Build 0)  -->
<svg version="1.1" xmlns="http://www.w3.org/2000/svg" xmlns:xlink="http://www.w3.org/1999/xlink" x="0px" y="0px"
	 viewBox="0 0 110 110" style="enable-background:new 0 0 110 110;" xml:space="preserve">
<style type="text/css">
	.st0{fill:#1A2E35;}
	.st1{fill:#1A716B;}
	.st2{opacity:0.4;fill:#1A2E35;}
	.st3{opacity:0.1;fill:#FFFFFF;}
	.st4{fill:#FFFFFF;}
	.st5{opacity:0.4;fill:#EF781A;}
	.st6{fill:#EF781A;}
	.st7{opacity:0.3;}
	.st8{opacity:0.8;fill:#1A2E35;}
	.st9{fill:#FFC3BD;}
	.st10{fill:#FF847F;}
	.st11{fill:#E83832;}
	.st12{opacity:0.2;fill:#E83832;}
	.st13{opacity:0.2;}
	.st14{display:none;}
	.st15{display:inline;}
</style>
<g id="plan_management">
	<g>
		<g>
			<path class="st0" d="M95.9,57.8H32.1c-0.7,0-1.2-0.6-1.2-1.2l2.1-39.1c0-0.7,0.6-1.2,1.3-1.2h63.8c0.7,0,1.2,0.6,1.2,1.2
				l-2.1,39.1C97.1,57.3,96.5,57.8,95.9,57.8z"/>
			<path class="st0" d="M69,22.9h-6.2c-2.1,0-3.6-1.7-3.5-3.7l0.1-1.1c0.1-2,1.8-3.6,3.8-3.6h6.2c2.1,0,3.6,1.7,3.5,3.7l-0.1,1.1
				C72.7,21.3,71,22.9,69,22.9z"/>
			<polygon class="st0" points="74.6,98.4 72.7,98.4 67.2,15.3 69.2,15.3 			"/>
			<polygon class="st0" points="59.8,98.4 61.8,98.4 67.2,15.3 65.3,15.3 			"/>
			<path class="st1" d="M95.5,57.8H31.8c-0.7,0-1.2-0.6-1.2-1.2l2.1-39.1c0-0.7,0.6-1.2,1.3-1.2h63.8c0.7,0,1.2,0.6,1.2,1.2
				l-2.1,39.1C96.8,57.3,96.2,57.8,95.5,57.8z"/>
			<path class="st2" d="M32.8,56.6c-0.6,0-1-0.4-0.9-1l2-37.2c0-0.6,0.5-1,1.1-1h61.9c0.6,0,1,0.4,0.9,1l-2,37.2c0,0.6-0.5,1-1.1,1
				H32.8z"/>
			<path class="st3" d="M95,36.9H76.4c-0.5,0-0.8-0.4-0.8-0.8l0.9-16.9c0-0.1,0-0.1-0.1-0.1c-0.1,0-0.1,0.1-0.1,0.1l-0.9,16.9
				c0,0.5-0.4,0.8-0.9,0.8H55.1c-0.5,0-0.8-0.4-0.8-0.8l0.9-16.9c0-0.1,0-0.1-0.1-0.1c-0.1,0-0.1,0.1-0.1,0.1l-0.9,16.9
				c0,0.5-0.4,0.8-0.9,0.8H34.6c-0.1,0-0.1,0.1-0.1,0.1c0,0.1,0,0.1,0.1,0.1h18.6c0.5,0,0.8,0.4,0.8,0.8L53,54.9
				c0,0.1,0,0.1,0.1,0.1c0.1,0,0.1-0.1,0.1-0.1L54.2,38c0-0.5,0.4-0.8,0.9-0.8h19.4c0.5,0,0.8,0.4,0.8,0.8l-0.9,16.9
				c0,0.1,0,0.1,0.1,0.1s0.1-0.1,0.1-0.1L75.5,38c0-0.5,0.4-0.8,0.9-0.8H95c0.1,0,0.1-0.1,0.1-0.1C95.1,37,95.1,36.9,95,36.9z"/>
		</g>
		<g>
			<polygon class="st2" points="64.7,22.1 57.2,22.1 56.8,29.7 64.2,29.9 			"/>
			<path class="st4" d="M63.8,29.6c-2.5-0.1-5-0.2-7.5-0.4c0.4-2.6,0.7-5.2,0.8-7.8c2.5,0.1,5,0.2,7.6,0.4
				C64.6,24.4,64.3,27,63.8,29.6z"/>
		</g>
		<g>
			<polygon class="st5" points="73.7,27.2 66.2,27.7 66.3,35.3 73.8,35 			"/>
			<path class="st6" d="M73.4,34.7c-2.5,0.1-5,0.1-7.5,0.2c0.2-2.6,0.3-5.2,0.2-7.8c2.5-0.1,5.1-0.1,7.6-0.2
				C73.7,29.5,73.7,32.1,73.4,34.7z"/>
		</g>
		<g>
			<polygon class="st2" points="51.8,41 38,40.5 36.8,52.8 50.5,53.6 			"/>
			<path class="st4" d="M49.8,53.1c-4.6-0.4-9.2-0.7-13.8-1.1c0.9-4.2,1.6-8.3,1.9-12.5c4.6,0.4,9.3,0.7,13.9,1.1
				C51.5,44.7,50.8,48.9,49.8,53.1z"/>
		</g>
		<g class="st7">
			<path class="st0" d="M37.6,23.8L37.6,23.8c-0.4,0-0.8-0.4-0.7-0.8l0,0c0-0.4,0.4-0.8,0.8-0.8l0,0c0.4,0,0.8,0.4,0.7,0.8l0,0
				C38.4,23.5,38,23.8,37.6,23.8z"/>
			<path class="st8" d="M49.8,23.8h-9.6c-0.4,0-0.8-0.4-0.7-0.8l0,0c0-0.4,0.4-0.8,0.8-0.8h9.6c0.4,0,0.8,0.4,0.7,0.8l0,0
				C50.6,23.5,50.2,23.8,49.8,23.8z"/>
			<path class="st0" d="M37.4,27.2L37.4,27.2c-0.4,0-0.8-0.4-0.7-0.8l0,0c0-0.4,0.4-0.8,0.8-0.8l0,0c0.4,0,0.8,0.4,0.7,0.8l0,0
				C38.2,26.9,37.8,27.2,37.4,27.2z"/>
			<path class="st8" d="M51.3,27.2H40c-0.4,0-0.8-0.4-0.7-0.8l0,0c0-0.4,0.4-0.8,0.8-0.8h11.3c0.4,0,0.8,0.4,0.7,0.8l0,0
				C52.1,26.9,51.7,27.2,51.3,27.2z"/>
			<path class="st0" d="M37.2,30.6L37.2,30.6c-0.4,0-0.8-0.4-0.7-0.8l0,0c0-0.4,0.4-0.8,0.8-0.8l0,0c0.4,0,0.8,0.4,0.7,0.8l0,0
				C38,30.2,37.6,30.6,37.2,30.6z"/>
			<path class="st8" d="M45.3,30.6h-5.5c-0.4,0-0.8-0.4-0.7-0.8l0,0c0-0.4,0.4-0.8,0.8-0.8h5.5c0.4,0,0.8,0.4,0.7,0.8l0,0
				C46.1,30.2,45.8,30.6,45.3,30.6z"/>
			<path class="st8" d="M50.4,34h-5.5c-0.4,0-0.8-0.4-0.7-0.8l0,0c0-0.4,0.4-0.8,0.8-0.8h5.5c0.4,0,0.8,0.4,0.7,0.8l0,0
				C51.2,33.6,50.8,34,50.4,34z"/>
			<path class="st0" d="M37,34L37,34c-0.4,0-0.8-0.4-0.7-0.8l0,0c0-0.4,0.4-0.8,0.8-0.8l0,0c0.4,0,0.8,0.4,0.7,0.8l0,0
				C37.8,33.6,37.5,34,37,34z"/>
			<path class="st8" d="M42.2,34h-2.5c-0.4,0-0.8-0.4-0.7-0.8l0,0c0-0.4,0.4-0.8,0.8-0.8h2.5c0.4,0,0.8,0.4,0.7,0.8l0,0
				C43,33.6,42.6,34,42.2,34z"/>
		</g>
		<g>
			<polygon class="st6" points="60.8,44.1 57.1,44.1 56.6,53.4 60.3,53.4 			"/>
			<polygon class="st6" points="66.5,46 62.8,46 62.4,53.4 66.1,53.4 			"/>
			<polygon class="st6" points="72.5,41.1 68.8,41.1 68.1,53.4 71.8,53.4 			"/>
			<g>
				<path class="st4" d="M58,49.3c-0.4,0-0.7,0-1.1,0c-0.6,0-1.5-0.1-2.2-0.5c-0.1-0.1-0.2-0.2-0.1-0.3c0.1-0.1,0.2-0.2,0.3-0.1
					c0.7,0.3,1.5,0.4,2.1,0.4c4.5,0.2,8.4-0.9,12.3-3.7c0.9-0.6,2.3-1.8,3.2-3.1c0.1-0.1,0.2-0.1,0.3-0.1c0.1,0.1,0.1,0.2,0.1,0.3
					c-0.9,1.3-2.3,2.5-3.3,3.2C65.7,48.1,62.1,49.3,58,49.3z"/>
				<path class="st4" d="M73.3,43.9C73.3,43.9,73.2,43.9,73.3,43.9c-0.2-0.1-0.3-0.2-0.2-0.3c0.3-0.8,0.4-1.7,0.2-2.6
					c-0.9,0.6-1.9,1.2-3,1.6c-0.1,0-0.3,0-0.3-0.1c0-0.1,0-0.3,0.1-0.3c1.1-0.4,2.2-1,3.1-1.7c0.1,0,0.1-0.1,0.2,0
					c0.1,0,0.1,0.1,0.2,0.2c0.3,1,0.3,2.2-0.1,3.2C73.5,43.9,73.4,43.9,73.3,43.9z"/>
			</g>
		</g>
		<g>
			<path class="st6" d="M92.9,34.8H79c-0.2,0-0.5-0.1-0.6-0.3c-0.2-0.2-0.2-0.4-0.2-0.6l0.6-11.7c0-0.5,0.4-0.9,0.9-0.9h13.8
				c0.2,0,0.5,0.1,0.6,0.3c0.2,0.2,0.2,0.4,0.2,0.6l-0.6,11.7C93.8,34.4,93.3,34.8,92.9,34.8z M79.8,21.6c-0.4,0-0.7,0.3-0.7,0.6
				l-0.6,11.7c0,0.2,0,0.3,0.2,0.4c0.1,0.1,0.3,0.2,0.4,0.2h13.8c0.4,0,0.7-0.3,0.7-0.6l0.6-11.7c0-0.2,0-0.3-0.2-0.4
				c-0.1-0.1-0.3-0.2-0.4-0.2H79.8z"/>
			<path class="st6" d="M94.2,24.7H78.8c-0.1,0-0.1-0.1-0.1-0.1c0-0.1,0.1-0.1,0.1-0.1h15.3c0.1,0,0.1,0.1,0.1,0.1
				C94.3,24.6,94.2,24.7,94.2,24.7z"/>
			<path class="st6" d="M81.9,34.8C81.9,34.8,81.9,34.8,81.9,34.8c-0.1,0-0.1-0.1-0.1-0.1l0.6-10.1c0-0.1,0.1-0.1,0.1-0.1
				c0.1,0,0.1,0.1,0.1,0.1L82,34.6C82,34.7,82,34.8,81.9,34.8z"/>
			<g>
				<path class="st6" d="M92.4,25.9h-8.3c-0.1,0-0.1-0.1-0.1-0.1c0-0.1,0.1-0.1,0.1-0.1h8.3c0.1,0,0.1,0.1,0.1,0.1
					C92.5,25.8,92.5,25.9,92.4,25.9z"/>
				<path class="st6" d="M91.2,27.3H84c-0.1,0-0.1-0.1-0.1-0.1c0-0.1,0.1-0.1,0.1-0.1h7.1c0.1,0,0.1,0.1,0.1,0.1
					C91.3,27.3,91.2,27.3,91.2,27.3z"/>
				<path class="st6" d="M88.1,28.9h-4.2c-0.1,0-0.1-0.1-0.1-0.1c0-0.1,0.1-0.1,0.1-0.1h4.2c0.1,0,0.1,0.1,0.1,0.1
					C88.2,28.8,88.2,28.9,88.1,28.9z"/>
				<path class="st6" d="M88.8,31.8h-5.1c-0.1,0-0.1-0.1-0.1-0.1c0-0.1,0.1-0.1,0.1-0.1h5.1c0.1,0,0.1,0.1,0.1,0.1
					C89,31.8,88.9,31.8,88.8,31.8z"/>
				<path class="st6" d="M87.8,33.3h-4.2c-0.1,0-0.1-0.1-0.1-0.1c0-0.1,0.1-0.1,0.1-0.1h4.2c0.1,0,0.1,0.1,0.1,0.1
					C88,33.3,87.9,33.3,87.8,33.3z"/>
				<path class="st6" d="M90.3,33.3H89c-0.1,0-0.1-0.1-0.1-0.1c0-0.1,0.1-0.1,0.1-0.1h1.3c0.1,0,0.1,0.1,0.1,0.1
					C90.4,33.3,90.4,33.3,90.3,33.3z"/>
				<path class="st6" d="M91.6,30.3h-7.8c-0.1,0-0.1-0.1-0.1-0.1c0-0.1,0.1-0.1,0.1-0.1h7.8c0.1,0,0.1,0.1,0.1,0.1
					C91.8,30.3,91.7,30.3,91.6,30.3z"/>
			</g>
		</g>
		<path class="st4" d="M84.4,51.8c-1.8,0-3.3-0.5-4.2-1.5c-1-1.1-1.4-2.7-1.1-4.6c0.2-1.1,0.5-2.1,1.1-2.8c0.6-0.7,1.4-1.4,2.4-1.8
			c2.3-1,5-1,7.1,0.1c1,0.5,1.6,1.1,1.8,1.8c0,0.1,0,0.3-0.2,0.3c-0.1,0-0.3,0-0.3-0.2c-0.2-0.6-0.7-1.1-1.6-1.5
			c-2-1-4.6-1.1-6.7-0.1c-1,0.4-1.7,1-2.2,1.7c-0.5,0.7-0.9,1.5-1,2.6c-0.3,1.7,0.1,3.2,1,4.2c1.2,1.3,3.3,1.4,4.4,1.4
			c2-0.1,3.8-0.8,5-2c1.3-1.4,1.7-3.5,0.9-4.8c-0.2-0.3-0.5-0.7-1-0.8c-0.1,0-0.2-0.1-0.2-0.3c0-0.1,0.1-0.2,0.3-0.2
			c0.5,0.1,1,0.4,1.4,1c1,1.5,0.6,3.9-0.9,5.4c-1.2,1.3-3.1,2-5.3,2.2C84.7,51.7,84.6,51.8,84.4,51.8z"/>
	</g>
	<g>
		<path class="st9" d="M23.1,26.8l-0.9,1.5l-0.8,1.5c-0.5,1-1.1,2-1.6,3.1c-0.2,0.5-0.5,1-0.7,1.5l0,0.1c0,0,0,0,0,0c0,0,0,0,0,0
			c0,0,0,0.1,0,0.1c0,0.1,0,0.2,0,0.3c0.1,0.3,0.4,0.7,0.7,1.1c0.3,0.4,0.8,0.8,1.2,1.1l-0.7,1.5c-0.4-0.1-0.6-0.2-1-0.3
			c-0.3-0.1-0.6-0.3-0.9-0.5c-0.6-0.4-1.2-0.8-1.7-1.5c-0.2-0.4-0.4-0.8-0.5-1.3c0-0.3,0-0.5,0-0.8c0-0.1,0-0.3,0.1-0.4l0-0.2l0-0.1
			c0.2-0.6,0.4-1.2,0.6-1.8c0.4-1.2,1-2.3,1.5-3.4c0.3-0.5,0.6-1.1,0.9-1.6c0.3-0.5,0.6-1.1,0.9-1.6L23.1,26.8z"/>
		<path class="st9" d="M20.3,36.9l1.6-0.4l0.1,2.5c0,0-1.2,0.2-2-0.6L20.3,36.9z"/>
		<polygon class="st9" points="24,36.1 23.7,38.3 21.9,39 21.8,36.5 		"/>
		<path class="st0" d="M30.4,15c0,0.2,0.2,0.3,0.3,0.3c0.1,0,0.2-0.2,0.1-0.4c0-0.2-0.2-0.3-0.3-0.3C30.5,14.7,30.4,14.8,30.4,15z"
			/>
		<path class="st10" d="M30.6,15.3c0,0,0.6,0.9,1.1,1.3c-0.2,0.3-0.8,0.3-0.8,0.3L30.6,15.3z"/>
		<path class="st0" d="M29.6,14.2C29.6,14.2,29.6,14.1,29.6,14.2c-0.1-0.1-0.1-0.1-0.1-0.2c0.4-0.4,0.9-0.3,0.9-0.3
			c0.1,0,0.1,0.1,0.1,0.1c0,0.1-0.1,0.1-0.1,0.1l0,0C30.4,13.8,30,13.8,29.6,14.2C29.7,14.1,29.6,14.2,29.6,14.2z"/>
		<path class="st9" d="M25.5,17.4c0.3,1.6,0.6,4.5-0.5,5.5c0,0,0.4,1.6,3.4,1.6c3.2,0,1.5-1.6,1.5-1.6c-1.8-0.4-1.7-1.7-1.4-3
			L25.5,17.4z"/>
		<path class="st0" d="M24.4,23.2c-0.2-0.4-0.5-0.9,0-1.1c0.6-0.2,4.4-0.5,5.5-0.2c-0.3,0.6,0.2,1.4,0.2,1.4L24.4,23.2z"/>
		<path class="st11" d="M14.8,97.2c0.2,0,0.4,0.1,0.5,0c0,0,0.1-0.1,0-0.2c0-0.1-0.1-0.1-0.1-0.2c-0.3-0.1-1,0.1-1,0.1c0,0,0,0,0,0
			c0,0,0,0,0,0C14.4,97,14.6,97.1,14.8,97.2z M15.2,96.8C15.2,96.8,15.2,96.8,15.2,96.8c0.1,0,0.1,0.1,0.1,0.1c0,0.1,0,0.1,0,0.1
			c-0.1,0.1-0.5,0-0.9-0.1C14.6,96.9,15,96.8,15.2,96.8z"/>
		<path class="st11" d="M14.3,97C14.3,97,14.3,97,14.3,97c0.3-0.1,0.8-0.4,0.8-0.7c0,0,0-0.1-0.1-0.2c-0.1,0-0.2,0-0.2,0
			C14.4,96.3,14.3,96.9,14.3,97C14.2,96.9,14.3,97,14.3,97C14.3,97,14.3,97,14.3,97z M14.9,96.2C14.9,96.2,14.9,96.2,14.9,96.2
			C15,96.2,15,96.3,14.9,96.2c0.1,0.2-0.3,0.5-0.5,0.6c0.1-0.2,0.2-0.5,0.4-0.6C14.8,96.2,14.9,96.2,14.9,96.2z"/>
		<path class="st11" d="M30.8,97.5c0.3,0,0.5,0,0.6-0.2c0,0,0.1-0.1,0-0.2c0-0.1-0.1-0.1-0.2-0.1c-0.4-0.1-1.1,0.3-1.2,0.4
			c0,0,0,0,0,0.1c0,0,0,0,0,0C30.3,97.5,30.6,97.5,30.8,97.5z M31.2,97.1C31.2,97.1,31.2,97.1,31.2,97.1c0.1,0,0.2,0,0.2,0.1
			c0,0.1,0,0.1,0,0.1c-0.1,0.1-0.6,0.1-1.1,0.1C30.5,97.3,30.9,97.1,31.2,97.1z"/>
		<path class="st11" d="M30.2,97.5C30.2,97.5,30.2,97.5,30.2,97.5c0.3-0.1,0.8-0.6,0.8-0.8c0-0.1-0.1-0.1-0.2-0.1
			c-0.1,0-0.2,0-0.3,0.1C30.2,96.8,30.1,97.4,30.2,97.5C30.1,97.4,30.1,97.4,30.2,97.5C30.1,97.5,30.2,97.5,30.2,97.5z M30.7,96.6
			C30.7,96.6,30.7,96.6,30.7,96.6c0.1,0,0.1,0,0.1,0.1c0,0.1-0.3,0.5-0.6,0.7c0-0.2,0.1-0.5,0.3-0.7C30.6,96.6,30.6,96.6,30.7,96.6z
			"/>
		<polygon class="st9" points="27.8,97.4 29.9,97.4 30.2,92.4 28,92.4 		"/>
		<polygon class="st9" points="11.9,96.4 14,96.9 16.1,92.2 14,91.7 		"/>
		<path class="st0" d="M14.2,96.7l-2.4-0.5c-0.1,0-0.2,0-0.2,0.1L10.8,98c-0.1,0.2,0,0.4,0.2,0.4c0.8,0.2,1.2,0.2,2.3,0.4
			c0.6,0.1,2.1,0.5,3,0.7c0.9,0.2,1.2-0.7,0.8-0.8c-1.6-0.7-2.2-1.3-2.6-1.9C14.4,96.8,14.3,96.7,14.2,96.7z"/>
		<path class="st0" d="M29.9,97.2h-2.4c-0.1,0-0.2,0.1-0.2,0.1L27,99.2c0,0.2,0.1,0.4,0.3,0.4c0.9,0,2.1-0.1,3.2-0.1
			c1.3,0,2.3,0.1,3.8,0.1c0.9,0,1.1-0.9,0.8-1c-1.7-0.4-3.1-0.4-4.5-1.3C30.3,97.2,30.1,97.2,29.9,97.2z"/>
		<g>
			<path class="st11" d="M21.2,23.4c-2,0.5-3.7,5.7-3.7,5.7l4.1,3.1c0,0,1.5-1.4,2.2-4C24.4,25.5,23.3,23,21.2,23.4z"/>
			<path class="st12" d="M21.2,23.4c-2,0.5-3.7,5.7-3.7,5.7l4.1,3.1c0,0,1.5-1.4,2.2-4C24.4,25.5,23.3,23,21.2,23.4z"/>
		</g>
		<path class="st13" d="M22.9,27.2c-1.1,1.1-1.5,3.1-1.5,4.8l0.2,0.1c0,0,1.5-1.4,2.2-4c0-0.2,0.1-0.3,0.1-0.5L22.9,27.2z"/>
		<g>
			<path class="st11" d="M33.3,23.5c0,0,2.3,2.6,0.1,18.7c-3.5,0-9.9,0-11.6,0c-0.1-1.8,1-10.5-0.7-18.8c0,0,2-0.4,3.9-0.5
				c1.5-0.1,3.6-0.1,4.9,0C31.7,23.1,33.3,23.5,33.3,23.5z"/>
			<path class="st12" d="M33.3,23.5c0,0,2.3,2.6,0.1,18.7c-3.5,0-9.9,0-11.6,0c-0.1-1.8,1-10.5-0.7-18.8c0,0,2-0.4,3.9-0.5
				c1.5-0.1,3.6-0.1,4.9,0C31.7,23.1,33.3,23.5,33.3,23.5z"/>
		</g>
		<path class="st13" d="M34.3,28.5L34.3,28.5l-2.7,0.6c-0.2,1.8,1.7,3.9,2.6,4.9C34.4,31.7,34.4,29.9,34.3,28.5z"/>
		<g>
			<polygon class="st13" points="30.2,92.4 30.1,95 27.9,95 28,92.4 			"/>
			<polygon class="st13" points="14,91.7 16.1,92.2 15,94.6 12.9,94.1 			"/>
		</g>
		<path class="st9" d="M24.6,15.8c0.6,2.1,0.8,3.3,2.1,4.2c1.9,1.3,4.3-0.2,4.4-2.4c0.1-2-0.9-5-3.1-5.5
			C25.8,11.7,24.1,13.7,24.6,15.8z"/>
		<path class="st0" d="M25.6,19.2c0.9,0.5,4.1-1.2,3.4-3.7c0,0,1.2-1.5,1.1-3.1c-0.1-1.6-1.3-2.2-2.4-1.9c-1,0.3-1,0.9-1,0.9
			s-5,0.6-3.9,2.6C20.7,16.1,24.5,18.5,25.6,19.2z"/>
		<path class="st0" d="M22.9,14.1c0,0-0.6-1-1.5-0.4C21.9,13.6,22.5,13.7,22.9,14.1z"/>
		<path class="st0" d="M30,13.4c0,0,1.1-2.4-0.6-3.2C29.9,11,30.2,12.2,30,13.4z"/>
		<path class="st9" d="M28.2,15.9c0.1,0.5,0.5,1,0.9,1.3c0.6,0.4,1,0,0.9-0.6c0-0.6-0.4-1.5-1-1.7C28.4,14.7,28,15.2,28.2,15.9z"/>
		<path class="st0" d="M29.3,42.3c0,0-2.5,16.6-3.8,22.8c-1.5,6.8-9.4,29.3-9.4,29.3l-3.9-0.8c0,0,5.5-18.3,6.8-27.8
			c1-7.3,2.8-23.4,2.8-23.4H29.3z"/>
		<path class="st11" d="M17,93c0,0-0.7,1.4-0.7,1.4L12,93.5l0.4-1.3L17,93z"/>
		<path class="st7" d="M27.8,48.2c-2.8,0.6-2.5,11.2-2.2,16.6c0.8-3.9,2-11.3,2.8-16.5C28.2,48.2,28,48.1,27.8,48.2z"/>
		<path class="st0" d="M33.4,42.3c0,0,0.3,16.2,0.1,22.8c-0.2,6.9-2.6,29.4-2.6,29.4h-3.7c0,0-0.1-22.1-0.3-28.9
			c-0.2-7.4-1.1-23.3-1.1-23.3H33.4z"/>
		<polygon class="st2" points="53.8,30.9 46.3,30.9 45.9,38.5 53.4,38.7 		"/>
		<path class="st6" d="M49.9,35.7c-2.5-0.3-5-0.6-7.5-0.9c0.6-2.5,1.1-5.1,1.4-7.7c2.5,0.3,5,0.6,7.5,0.9
			C51,30.7,50.5,33.2,49.9,35.7z"/>
		<path class="st11" d="M31.6,93c0,0-0.2,1.5-0.2,1.5h-4.5l-0.1-1.4L31.6,93z"/>
		<path class="st9" d="M34.4,25.5c0.3,0.5,0.7,1.1,1.1,1.6c0.4,0.5,0.8,1.1,1.2,1.6c0.8,1,1.7,2,2.6,2.9c0.2,0.2,0.5,0.4,0.7,0.6
			l0.2,0.1c0,0-0.1,0-0.1,0c-0.1,0-0.1,0-0.1,0c0,0,0.3,0,0.5-0.1c0.2-0.1,0.5-0.2,0.7-0.4c1-0.6,2.1-1.5,3.1-2.4l1.3,1
			c-0.8,1.3-1.6,2.4-2.8,3.5c-0.3,0.3-0.6,0.5-1,0.7c-0.4,0.2-0.8,0.5-1.5,0.6c-0.3,0-0.7,0-1.1-0.1c-0.2-0.1-0.4-0.2-0.6-0.3
			l-0.3-0.2c-0.3-0.2-0.7-0.4-1-0.7c-1.2-1-2.2-2.1-3.2-3.2c-0.5-0.6-0.9-1.2-1.3-1.8c-0.4-0.6-0.8-1.2-1.2-1.9L34.4,25.5z"/>
		<g>
			<path class="st11" d="M30.1,26.8c-0.7,2.9,4.6,5.8,4.6,5.8l3.4-4c0,0-1.6-2.4-3.5-4.2C32.2,22.1,30.7,24.6,30.1,26.8z"/>
			<path class="st12" d="M30.1,26.8c-0.7,2.9,4.6,5.8,4.6,5.8l3.4-4c0,0-1.6-2.4-3.5-4.2C32.2,22.1,30.7,24.6,30.1,26.8z"/>
		</g>
		<path class="st9" d="M43.9,30l0.8-2.6l2.1,1.1c0,0-0.3,1.9-1.9,2.2L43.9,30z"/>
		<polygon class="st9" points="45.6,26.7 47.5,27.3 46.8,28.5 44.7,27.4 		"/>
	</g>
</g>
<g id="Layer_2" class="st14">
	<g id="colro_codes" class="st15">
		<text transform="matrix(1 0 0 1 112.913 54.6519)" style="font-family:'MyriadPro-Bold'; font-size:12px;">#1a716b</text>
		<text transform="matrix(1 0 0 1 114.1034 68.6733)" style="font-family:'MyriadPro-Bold'; font-size:12px;">#e83832</text>
		<text transform="matrix(1 0 0 1 116.3407 90.7915)" style="font-family:'MyriadPro-Bold'; font-size:12px;">#ef781a</text>
		<rect x="114.6" y="6.2" class="st6" width="25.1" height="23.7"/>
		<rect x="145.2" y="6.2" class="st11" width="25.1" height="23.7"/>
		<rect x="175.8" y="6.2" class="st1" width="25.1" height="23.7"/>
	</g>
</g>
</svg>
